<?xml version="1.0" standalone="no"?>
<!DOCTYPE svg PUBLIC "-//W3C//DTD SVG 1.1//EN" "http://www.w3.org/Graphics/SVG/1.1/DTD/svg11.dtd" >
<svg>
<metadata>
Created by FontForge 20090914 at Tue Jul 23 10:24:13 2019
 By www-data
Typeface &#194;&#169;WOODCUTTER MMXIII All Rights Reserved
</metadata>
<defs>
<font id="StreetStyle" horiz-adv-x="1014" >
  <font-face 
    font-family="Street Style"
    font-weight="400"
    font-stretch="normal"
    units-per-em="2048"
    panose-1="2 0 5 0 0 0 0 0 0 0"
    ascent="1638"
    descent="-410"
    x-height="1112"
    cap-height="1672"
    bbox="-12.999 -420.297 4844.56 1751.44"
    underline-thickness="150"
    underline-position="-142"
    unicode-range="U+0020-U+F002"
  />
<missing-glyph horiz-adv-x="1024" 
d="M100 0v1434h824v-1434h-824zM150 50h724v1334h-724v-1334zM325 1148c20.667 18.667 40.002 32.998 58.002 42.998c35.333 20 72.666 30 111.999 30c61.333 0 110.666 -15.833 147.999 -47.5s56 -74.167 56 -127.5c0 -32.667 -7.66699 -65.5 -23 -98.5
s-44.333 -76.167 -87 -129.5c-42 -53.333 -75 -97.333 -99 -132s-36 -67.667 -36 -99c0 -25.333 8 -69.666 24 -132.999h-32c-23.333 64.667 -35 114 -35 148c0 50.667 27.167 123.334 81.5 218.001s81.5 167 81.5 217c0 38 -11 68 -33 90s-52.333 33 -91 33
c-25.333 0 -48.333 -5.66699 -69 -17c-17.333 -10 -36 -23.333 -56 -40v45zM389.002 333.998l57 57.999c7.33301 6.66699 14 10 20 10c6.66699 0 14 -3.66699 22 -11l56 -60c6 -7.33301 9 -14 9 -20c0 -7.33301 -3.33301 -14.666 -10 -21.999l-56 -62
c-9.33301 -9.33301 -16.333 -14 -21 -14c-7.33301 0 -14 3.33301 -20 10l-61 71c-4.66699 6 -7 12 -7 18c0 6.66699 3.66699 14 11 22z" />
    <glyph glyph-name=".notdef" horiz-adv-x="1024" 
d="M100 0v1434h824v-1434h-824zM150 50h724v1334h-724v-1334zM325 1148c20.667 18.667 40.002 32.998 58.002 42.998c35.333 20 72.666 30 111.999 30c61.333 0 110.666 -15.833 147.999 -47.5s56 -74.167 56 -127.5c0 -32.667 -7.66699 -65.5 -23 -98.5
s-44.333 -76.167 -87 -129.5c-42 -53.333 -75 -97.333 -99 -132s-36 -67.667 -36 -99c0 -25.333 8 -69.666 24 -132.999h-32c-23.333 64.667 -35 114 -35 148c0 50.667 27.167 123.334 81.5 218.001s81.5 167 81.5 217c0 38 -11 68 -33 90s-52.333 33 -91 33
c-25.333 0 -48.333 -5.66699 -69 -17c-17.333 -10 -36 -23.333 -56 -40v45zM389.002 333.998l57 57.999c7.33301 6.66699 14 10 20 10c6.66699 0 14 -3.66699 22 -11l56 -60c6 -7.33301 9 -14 9 -20c0 -7.33301 -3.33301 -14.666 -10 -21.999l-56 -62
c-9.33301 -9.33301 -16.333 -14 -21 -14c-7.33301 0 -14 3.33301 -20 10l-61 71c-4.66699 6 -7 12 -7 18c0 6.66699 3.66699 14 11 22z" />
    <glyph glyph-name="space" unicode=" " horiz-adv-x="508" 
 />
    <glyph glyph-name="space" unicode="&#xa0;" horiz-adv-x="508" 
 />
    <glyph glyph-name="exclam" unicode="!" horiz-adv-x="996" 
d="M526 -57c12.667 -22 23.3359 -39.334 32.0029 -52.001c26.667 -36.667 56 -52.667 88 -48c61.333 9.33301 76.333 44.333 45 105c-20.667 39.333 -54.334 81.333 -101.001 126c-51.333 48 -86 77.667 -104 89c-40.667 24 -81.667 28.667 -123 14l2 -12
c77.333 -95.333 121.666 -152 132.999 -170c3.33301 -5.33301 12.666 -22.666 27.999 -51.999zM273.002 842.999c1.33301 -66.667 12.999 -158.667 34.999 -276c27.333 -146.667 43.333 -241.334 48 -284.001c50 -5.33301 105 -23.333 165 -54
c82.667 -42 132.334 -66.333 149.001 -73c3.33301 172 -28.667 392 -96 660c-82.667 326.667 -131 547 -145 661c-0.666992 4.66699 -2.66699 6.33398 -6 5.00098c-26 -76 -65.333 -235 -118 -477c-21.333 -98 -32 -152 -32 -162zM903.001 -91.001
c-2 -55.333 -20.3311 -106 -54.998 -152c-34.667 -45.333 -78.334 -77.333 -131.001 -96c-56.667 -19.333 -114.667 -19.333 -174 0c-44.667 15.333 -87.667 51.333 -129 108c-10.667 14.667 -28.334 41.667 -53.001 81c-24 37.333 -44 66.666 -60 87.999
c-86.667 117.333 -129 172.333 -127 165c-3.33301 12 -4.33301 31 -3 57c1.33301 32.667 1.33301 55 0 67c-1.33301 15.333 -6.33301 38 -15 68c-10 34 -16.333 59 -19 75c-38 222.667 -57 382.334 -57 479.001c0 38 24.667 163.333 74 376c43.333 186 64 275.667 62 269
c34.667 102 86.667 162 156 180c112.667 28.667 191 -12 235 -122c0 0.666992 24.667 -114 74 -344c44 -201.333 72.333 -328 85 -380c49.333 -202.667 79 -333 89 -391c23.333 -148.667 21.333 -269 -6 -361c38.667 -51.333 56.667 -107 54 -167z" />
    <glyph glyph-name="quotedbl" unicode="&#x22;" horiz-adv-x="877" 
d="M206 1367c9.33301 -21.333 14.001 -35.668 14.001 -43.001c0 -9.33301 -1.66699 -23 -5 -41c-3.33301 -20.667 -5.33301 -34.667 -6 -42c-2.66699 -30.667 9.33301 -47.334 36 -50.001c9.33301 4 16 12 20 24c7.33301 20 11.333 30.667 12 32
c6 10.667 16.333 25.334 31 44.001c15.333 18.667 26 33.334 32 44.001c21.333 36 23.333 75.667 6 119c-28.667 6 -58.334 5.33301 -89.001 -2c-36 -7.33301 -56.333 -21.333 -61 -42c-2 -8.66699 1.33301 -23 10 -43zM456.001 1277
c-17.333 -20 -36.334 -34.001 -57.001 -42.001c40.667 -27.333 80.334 -35.333 119.001 -24c34 10.667 64.333 35.667 91 75c24 36.667 41 80.334 51 131.001c10 50 10.667 97.667 2 143c-124 -0.666992 -179.333 -75 -166 -223c-20.667 -32.667 -34 -52.667 -40 -60z
M253 1049c-38 -1.33301 -74.335 10.999 -109.002 36.999c-34.667 26.667 -59 60 -73 100c-14.667 44.667 -13.667 89.334 3 134.001c-21.333 48 -25.333 93 -12 135c12.667 38 38 70 76 96c36 24.667 77.333 40 124 46c48.667 6.66699 94.334 2.33398 137.001 -12.999
c24.667 32 60.667 59 108 81c48.667 22 96.334 32.333 143.001 31c51.333 -1.33301 91.333 -17 120 -47c32.667 -34.667 46.667 -86 42 -154c-8 -114.667 -37.333 -211.667 -88 -291c-60 -95.333 -140 -143 -240 -143c-46 0 -88 13.667 -126 41
c-28.667 -34.667 -63.667 -52.334 -105 -53.001z" />
    <glyph glyph-name="numbersign" unicode="#" horiz-adv-x="1412" 
d="M799 260c18.667 137.333 30 229.334 34 276.001c-82.667 -4 -174.667 -13.667 -276 -29c-3.33301 -68 -8 -140.667 -14 -218c56 3.33301 141.333 -6.33398 256 -29.001zM1001 72.001c-38.667 23.333 -63.9971 37.6689 -75.9971 43.002
c-6 -7.33301 -14.333 -20.333 -25 -39c-12 -21.333 -21 -36.333 -27 -45c-24 -34.667 -48.667 -51.667 -74 -51c-13.333 0 -28 8.33301 -44 25c-18.667 20.667 -33 33.334 -43 38.001c36.667 56 57.667 99.333 63 130c-62.667 30.667 -141.667 45.334 -237 44.001
c-0.666992 -68 2.33301 -113.333 9 -136c-40.667 -15.333 -61.334 -23.333 -62.001 -24c-29.333 19.333 -52 67.666 -68 144.999c-48.667 -14.667 -78.667 -22.334 -90 -23.001c-34.667 -4 -50 8.66699 -46 38c2.66699 17.333 20.334 29.666 53.001 36.999
c46 10.667 72 17.667 78 21c-1.33301 26.667 -1 60 1 100c2.66699 47.333 4 80 4 98c-15.333 -2 -38.333 -9 -69 -21c-27.333 -10 -51.333 -15.667 -72 -17c-20.667 36 -9 64 35 84c9.33301 4 29 10.667 59 20c24.667 8 42 15.333 52 22c0 50.667 3 123 9 217
c78 53.333 131.333 81 160 83c-2 -26 -6.33301 -68.667 -13 -128c-6 -54 -9.66699 -97 -11 -129c186.667 39.333 278.667 58.666 276 57.999c5.33301 27.333 12.666 91 21.999 191c8 81.333 18.333 138.666 31 171.999c7.33301 18.667 29 37 65 55
c57.333 28.667 85.666 42.667 84.999 42h5c0.666992 -2 -7.33301 -69.667 -24 -203c-8.66699 -70 -15.334 -144.333 -20.001 -223c8.66699 0.666992 32.667 5.66699 72 15c29.333 6.66699 52.333 8.33398 69 5.00098c19.333 -12 30 -37 32 -75c2 -34 -2.33301 -64 -13 -90
c2.66699 1.33301 -53.666 -2 -168.999 -10c-4.66699 -24 -11.334 -79.333 -20.001 -166c-7.33301 -70 -17 -122.667 -29 -158c13.333 -9.33301 40 -21.333 80 -36c36 -13.333 61 -27.333 75 -42c6 -21.333 7.33301 -42.333 4 -63c-4.66699 -22.667 -14 -37 -28 -43
c-22.667 7.33301 -49 20.333 -79 39zM1281 429.004c32 34 52.9971 78.998 62.9971 134.998c10 54 8 106.667 -6 158c-14 54 -38.667 95.333 -74 124c-5.33301 4.66699 -17 11 -35 19c-14.667 6.66699 -25.667 15 -33 25c-0.666992 27.333 6 70 20 128
c13.333 54 18 95.333 14 124c-6 47.333 -28 85.333 -66 114c-38.667 29.333 -84.334 41.333 -137.001 36c-31.333 -3.33301 -78.333 -24.333 -141 -63c-52.667 -32.667 -91.667 -65 -117 -97c-32.667 -41.333 -51.667 -91.333 -57 -150c-57.333 40 -112.333 56 -165 48
c-42 -6 -90.667 -26.333 -146 -61c-56.667 -35.333 -95 -69.666 -115 -102.999c-16 -28 -25.667 -91 -29 -189c-35.333 -4.66699 -66.666 -20.667 -93.999 -48c-26 -26 -44.667 -57.667 -56 -95c-26.667 -86 -12.334 -156.333 42.999 -211
c-43.333 -66 -46.666 -136 -9.99902 -210s93.334 -110.333 170.001 -109c15.333 -48 52.333 -81.333 111 -100c60 -19.333 116.667 -15 170 13c-1.33301 0.666992 28.334 -21 89.001 -65c36.667 -26.667 73.334 -40.667 110.001 -42c45.333 -1.33301 108 26 188 82
c50 -28 99 -35 147 -21c44 13.333 81 41.333 111 84c28.667 42 44.334 88.333 47.001 139c2 55.333 -12.333 104.333 -43 147c-4 4.66699 -28 24.334 -72 59.001c-25.333 18.667 -32 42.667 -20 72c53.333 -0.666992 97.666 18.333 132.999 57z" />
    <glyph glyph-name="dollar" unicode="$" horiz-adv-x="1561" 
d="M658 1229c0.666992 -50 -3.00195 -88.665 -11.002 -115.998c-115.333 -88.667 -203.666 -165.334 -264.999 -230.001c-60.667 -64 -100.667 -110.667 -120 -140c-48 -74 -57.667 -136.667 -29 -188c-13.333 23.333 140 -13 460 -109c76 -22.667 143 -55.334 201 -98.001
c62.667 -46 103 -95.667 121 -149c27.333 -78 13.666 -126.333 -41.001 -145c-42.667 -14.667 -101.667 -10.667 -177 12c-156 46.667 -267.333 73.667 -334 81c-60 6.66699 -89.667 10 -89 10c-37.333 0 -67 -9 -89 -27c-5.33301 -29.333 2.33398 -49.666 23.001 -60.999
c15.333 -8 41 -12 77 -12c100.667 0.666992 159.334 -4 176.001 -14v-97c18.667 -14 51.334 -27.667 98.001 -41c2 6.66699 7 24.667 15 54c6 22 12.333 38.667 19 50c38 -12.667 107.333 -46.667 208 -102c81.333 -44 152 -69.667 212 -77c77.333 -8 134 10 170 54
c33.333 40.667 45.666 99.667 36.999 177c-13.333 120 -70.333 227 -171 321c-86 81.333 -192 143 -318 185c-8 2.66699 -84 17.667 -228 45c-96 18 -152.333 43.333 -169 76c-32 63.333 14 140 138 230c91.333 66 172 108 242 126c8 2.66699 107.667 4.66699 299 6
c15.333 29.333 21 68.666 17 117.999s-15.333 85 -34 107c-44.667 11.333 -95.667 7.33301 -153 -12c-80 -26.667 -121 -40 -123 -40c2 31.333 6.66699 73.666 14 126.999c7.33301 58.667 12 100.667 14 126h-11c-115.333 -108 -171 -156 -167 -144
c-8 -21.333 -12 -55.666 -12 -102.999zM1253 1400c47.333 -55.333 74.332 -126.33 80.999 -212.997c6 -85.333 -9 -160 -45 -224c-39.333 -71.333 -96 -111.333 -170 -120c-20.667 -2.66699 -48.334 -0.666992 -83.001 6c-40.667 7.33301 -68.667 11 -84 11
c-59.333 1.33301 -124.666 -19.667 -195.999 -63c219.333 -56.667 388.333 -139 507 -247c158.667 -145.333 245 -308.333 259 -489c13.333 -175.333 -40.667 -302 -162 -380c-76.667 -50 -176.334 -64 -299.001 -42c-98.667 18 -190.667 53 -276 105
c-68 -40.667 -146.333 -46.667 -235 -18c-83.333 27.333 -141 71.666 -173 132.999c-70.667 -12.667 -132 -0.333984 -184 36.999c-46.667 33.333 -79 80.333 -97 141c-17.333 59.333 -16.666 115.666 2.00098 168.999c20 57.333 57.333 97 112 119
c-117.333 57.333 -180.666 143.666 -189.999 258.999c-10 126 42 251.667 156 377c35.333 39.333 85 87 149 143c70.667 61.333 114.667 101 132 119c22.667 134 36 205 40 213c52 96 130.667 168.667 236 218c70 33.333 138 33 204 -1c67.333 -35.333 105 -92.333 113 -171
c83.333 6.66699 151 -20.666 203 -81.999z" />
    <glyph glyph-name="percent" unicode="%" horiz-adv-x="1730" 
d="M1092 183c-20.667 -45.333 -26.666 -89.667 -17.999 -133c5.33301 -26.667 26 -54.667 62 -84c36 -30 67.333 -44.333 94 -43c35.333 1.33301 64.666 22 87.999 62c22 38.667 32 81.667 30 129c-2.66699 48.667 -21.667 87.667 -57 117
c-36.667 30.667 -78 40.334 -124 29.001c-30 -6.66699 -55 -32.334 -75 -77.001zM507.001 705.999c-42 -2 -79.001 -12.332 -111.001 -30.999c-34.667 -20 -55 -45.667 -61 -77c-6.66699 -39.333 1 -77.333 23 -114c18.667 -30.667 39 -49.667 61 -57
c25.333 -9.33301 57.666 -10 96.999 -2c41.333 8.66699 69 24 83 46c20 30 25 71.667 15 125c-9.33301 50.667 -25.666 84 -48.999 100c-11.333 7.33301 -30.666 10.666 -57.999 9.99902zM1400 -147c-59.333 -44 -123.998 -50 -193.998 -18
c-38.667 18 -84.334 58.667 -137.001 122c-67.333 81.333 -103.333 130.333 -108 147c-20 72.667 -7.66699 134.667 37 186c40 46 94.667 72 164 78c103.333 9.33301 187.666 -19 252.999 -85c68 -68.667 94.667 -157.667 80 -267c-10 -68 -41.667 -122.333 -95 -163z
M663.002 133c-4 -5.33301 -9.66699 -14.333 -17 -27c-6.66699 -12.667 -12 -21.334 -16 -26.001c-14 -19.333 -32.333 -27.666 -55 -24.999c-4.66699 51.333 11.333 102.333 48 153c1.33301 2 37.666 42.333 108.999 121c117.333 130.667 270.333 344.334 459 641.001
c45.333 71.333 74.333 113.666 87 126.999c36.667 40 82.667 64.333 138 73c11.333 -9.33301 13.333 -22.333 6 -39c2.66699 5.33301 -4 -6 -20 -34c-241.333 -422 -448.666 -707.333 -621.999 -856c-67.333 -58 -106.333 -94 -117 -108zM225.002 436
c-26.667 39.333 -35.668 82 -27.001 128c9.33301 44.667 58.333 93.334 147 146.001c78 46.667 149.667 74.667 215 84c46 6 80.333 4.33301 103 -5c51.333 -22 80.333 -77.333 87 -166c6.66699 -86 -11 -149.667 -53 -191c-35.333 -36 -94.666 -62 -177.999 -78
c-86 -16.667 -155.333 -13.667 -208 9c-35.333 15.333 -64 39.666 -86 72.999zM1536 404c-72 69.333 -164 114.333 -276 135c16 23.333 73 116.333 171 279c103.333 171.333 157 267.666 161 288.999c16 72 2.66699 131 -40 177c-40.667 44 -94 63 -160 57
c-46 -3.33301 -94 -19.333 -144 -48c-46 -26 -82.667 -55.667 -110 -89c-30.667 -36.667 -74.334 -104.667 -131.001 -204c-52.667 -92 -97.334 -157.667 -134.001 -197c-28.667 69.333 -76.667 116.666 -144 141.999c-59.333 22.667 -129.666 27 -210.999 13
c-162 -26.667 -294.667 -94.667 -398 -204c-51.333 -54 -80.666 -116.333 -87.999 -187c-7.33301 -66 5 -130 37 -192c31.333 -62 76.666 -111.333 135.999 -148c63.333 -39.333 133 -57.666 209 -54.999c-26 -78 -21 -146.667 15 -206
c35.333 -58.667 87.333 -87.667 156 -87c48.667 0 93 16.667 133 50c16.667 14 47.334 48 92.001 102c58.667 -104.667 127 -194.334 205 -269.001c74 -71.333 155.667 -110.666 245 -117.999c126.667 -10.667 230 34.333 310 135c75.333 96 107.333 210.667 96 344
c-10 112.667 -53.333 206.334 -130 281.001z" />
    <glyph glyph-name="ampersand" unicode="&#x26;" horiz-adv-x="1860" 
d="M485 498c-7.33301 -50 10 -87.333 52 -112c32.667 -19.333 84.667 -32 156 -38c19.333 -1.33301 84.333 -3.33301 195 -6c77.333 -2 133 -7.66699 167 -17c-84 94 -225 198.667 -423 314c-90.667 -36 -139.667 -83 -147 -141zM773 865
c41.333 24.667 72.332 44.332 92.999 58.999c72.667 52 114.334 106.333 125.001 163c11.333 60 2.33301 103.667 -27 131c-28 26.667 -72.333 36.667 -133 30c-66.667 -7.33301 -135 -31.666 -205 -72.999c-80.667 -47.333 -123.667 -98 -129 -152
c-4.66699 -48.667 16 -90.667 62 -126c13.333 -10 35 -24 65 -42c30 -18.667 52 -33 66 -43c15.333 11.333 43 29 83 53zM1414 -21.002c0.666992 -2.66699 8.33398 -15.6611 23.001 -38.9941c11.333 -18.667 16.333 -31.334 15 -38.001c-3.33301 -23.333 -22 -39 -56 -47
c-18.667 -4.66699 -55.334 -8.33398 -110.001 -11.001c-28 26.667 -48 89 -60 187c-12 97.333 -32.667 159 -62 185c-30.667 2.66699 -80.334 17 -149.001 43c-69.333 26 -128.666 41.667 -177.999 47c-42 4 -101.333 -1 -178 -15c-78 -14.667 -134 -20.667 -168 -18
c-44.667 4 -86 19 -124 45c-38.667 26 -61.334 56 -68.001 90c-15.333 71.333 5.33398 133.666 62.001 186.999c16.667 16 42.334 36 77.001 60c36 25.333 60 43.333 72 54c-15.333 15.333 -43 34 -83 56c-46 26 -77.333 45 -94 57c-68 51.333 -86 116.333 -54 195
c15.333 36.667 56 83.667 122 141c74 63.333 169.333 124 286 182c140 70 258.333 105.333 355 106c64 1.33301 112.667 -18.667 146 -60c29.333 -36 45 -84.667 47 -146c3.33301 -128.667 -35.334 -235 -116.001 -319c-54 -56 -156.667 -118 -308 -186
c4 -5.33301 70.333 -67.333 199 -186c22 -20 55.333 -52.333 100 -97c42.667 -42.667 75.667 -74.334 99 -95.001c49.333 23.333 85 67.666 107 132.999c16.667 47.333 28 116.333 34 207c31.333 12.667 70.333 15 117 7c43.333 -8 77 -21.333 101 -40
c7.33301 -120.667 -8 -220.334 -46 -299.001c-42.667 -88 -110.667 -140 -204 -156zM1674 865.004c-64.667 40 -157.669 63.001 -279.002 69.001c82.667 186.667 87.334 357 14.001 511c-36 76.667 -89 134 -159 172c-76 42 -166.667 57.667 -272 47
c-126 -12 -269.333 -60 -430 -144c-158 -81.333 -281.667 -170 -371 -266c-74 -79.333 -116.667 -175 -128 -287c-12 -122.667 22 -219.334 102 -290.001c-63.333 -90.667 -89 -184.667 -77 -282c14 -106.667 67.667 -193 161 -259c90 -63.333 194.667 -92.333 314 -87
c20 1.33301 51.667 6.33301 95 15c44 10 78.333 15.667 103 17c48 3.33301 133.667 -15.667 257 -57c18.667 -164.667 55 -273.667 109 -327c70.667 -71.333 169.334 -94.333 296.001 -69c124.667 24 207.334 79 248.001 165c36.667 76.667 22 179 -44 307
c4.66699 16.667 18 37.667 40 63c27.333 30.667 46 54.667 56 72c69.333 122.667 99.333 259.334 90 410.001c-6.66699 99.333 -48.334 172.666 -125.001 219.999z" />
    <glyph glyph-name="quotesingle" unicode="'" horiz-adv-x="700" 
d="M249 1261l-23 -35.998c-16 -30 -21 -59.667 -15 -89c43.333 2 83.666 14 120.999 36c36.667 22 66.334 51.333 89.001 88c50.667 82 56.667 176 18 282c-66 -24.667 -112.333 -51 -139 -79c-39.333 -42.667 -49.333 -98.334 -30 -167.001
c-4 -8.66699 -11 -20.334 -21 -35.001zM523 1673c32.667 -18 56.332 -42.001 70.999 -72.001c27.333 -56 35.333 -134 24 -234c-10.667 -92.667 -30.667 -160.667 -60 -204c-30 -44 -79.333 -86.333 -148 -127c-74.667 -44.667 -141 -66 -199 -64
c-54 2 -96.667 24.333 -128 67c-30.667 42 -42.667 92.667 -36 152c2.66699 24.667 12.667 52 30 82c17.333 30.667 27 52 29 64c2 10.667 3.33301 38 4 82c0.666992 32 5.33398 57.667 14.001 77c18.667 38.667 57.667 80 117 124c66.667 48.667 128 74.334 184 77.001
c33.333 1.33301 66 -6.66699 98 -24z" />
    <glyph glyph-name="parenleft" unicode="(" horiz-adv-x="758" 
d="M278 746c-35.333 -104 -59.333 -188.336 -72 -253.003c-8 -41.333 -8 -79.333 0 -114c8 -36 32.667 -82.333 74 -139c50.667 -69.333 81.334 -114.666 92.001 -135.999c21.333 -43.333 49 -125 83 -245c1.33301 -4 2.66602 -11 3.99902 -21s2.66602 -17.333 3.99902 -22
c4.66699 -18 13.667 -30 27 -36c34.667 34.667 49.334 88.667 44.001 162c0 0.666992 -32 124.334 -96 371.001c-44 168 -40.667 374.333 10 619c6 30.667 29.333 130.334 70 299.001c28 118 46.333 212.667 55 284c0 3.33301 -1.33301 5 -4 5
c-62.667 -86 -129.667 -253.667 -201 -503c-12.667 -42.667 -42.667 -133 -90 -271zM692 1614c31.333 -46.667 38.332 -108.666 20.999 -185.999c-23.333 -105.333 -49.666 -230.666 -78.999 -375.999c-55.333 -277.333 -81.333 -453.666 -78 -528.999
c2.66699 -66 28 -171.667 76 -317c43.333 -131.333 61.666 -242.666 54.999 -333.999c-7.33301 -88.667 -40.666 -158 -99.999 -208c-64.667 -54 -132 -54.667 -202 -2c-30.667 23.333 -57.667 76 -81 158c-32 115.333 -53 183.666 -63 204.999
c2 -4.66699 -41.333 61.666 -130 198.999c-48.667 74 -69.334 157.667 -62.001 251c3.33301 43.333 32.333 146.666 87 309.999c10.667 31.333 39.334 132 86.001 302c34 121.333 69.333 221.666 106 300.999c49.333 106 77 163.667 83 173c36.667 62 79 97.667 127 107
c70 14 121.333 -4 154 -54z" />
    <glyph glyph-name="parenright" unicode=")" horiz-adv-x="758" 
d="M492 550c35.333 103.333 59.3311 187.667 71.998 253c8 41.333 8 79.333 0 114c-8 36 -33 82.333 -75 139c-50.667 69.333 -81 114.666 -91 135.999c-21.333 43.333 -49.333 125 -84 245c-0.666992 4 -2 11 -4 21c-1.33301 10 -2.66602 17.333 -3.99902 22
c-4.66699 17.333 -13.667 29 -27 35c-34 -34.667 -48.333 -88.334 -43 -161.001c0 -0.666992 32 -124.667 96 -372c44 -167.333 40.667 -373.666 -10 -618.999c-6 -30.667 -29 -130 -69 -298c-28 -118 -46.667 -213 -56 -285
c0.666992 -3.33301 2.33398 -4.66602 5.00098 -3.99902c62.667 86 129.667 253.667 201 503c12 42.667 41.667 133 89 271zM77.998 -318.999c-30.667 47.333 -37.335 109.662 -20.002 186.995c23.333 105.333 49.333 230.666 78 375.999
c55.333 277.333 81.333 453.333 78 528c-2.66699 66.667 -28 172.667 -76 318c-44 130.667 -62.333 241.667 -55 333c6.66699 88.667 39.667 158 99 208c64.667 54.667 132 55.334 202 2.00098c31.333 -23.333 58.333 -75.666 81 -156.999
c32.667 -115.333 54 -183.666 64 -204.999c-2 4.66699 41.333 -61.666 130 -198.999c48.667 -74 69.334 -157.667 62.001 -251c-3.33301 -43.333 -32.333 -146.666 -87 -309.999c-10.667 -31.333 -39.334 -132.333 -86.001 -303
c-33.333 -120.667 -68.666 -221 -105.999 -301c-49.333 -105.333 -76.666 -162.666 -81.999 -171.999c-37.333 -62 -79.666 -97.667 -126.999 -107c-70.667 -14.667 -122.334 3 -155.001 53z" />
    <glyph glyph-name="asterisk" unicode="*" horiz-adv-x="1107" 
d="M482 1267c-57.333 29.333 -115.667 44.333 -175 45c-76 1.33301 -110.667 -30 -104 -94c106 10.667 186 5.66699 240 -15c-10.667 -5.33301 -27.667 -12.666 -51 -21.999c-22.667 -9.33301 -39.667 -17 -51 -23c-38 -18.667 -64.333 -41 -79 -67
c20 -20.667 40.667 -30.334 62 -29.001c16 1.33301 35.333 9.33301 58 24c6 4 15.333 10.667 28 20l29 21c22 14.667 41.333 22.334 58 23.001c-4 -52 -7.33301 -84.667 -10 -98c14 -2.66699 30.667 -7.33398 50 -14.001c27.333 -9.33301 43.333 -14.666 48 -15.999
c7.33301 13.333 9.66602 32 6.99902 56c0 6 -1.33301 16.333 -4 31c-2 13.333 -3 23.666 -3 30.999c51.333 -28.667 111.333 -92.334 180 -191.001c51.333 -3.33301 89 14.667 113 54c-22 40 -58.333 77.667 -109 113c-15.333 10.667 -38 25.334 -68 44.001
c-30.667 18.667 -53 33 -67 43c120.667 29.333 208.334 67 263.001 113c-4 62.667 -28.333 114.667 -73 156c-22 -14.667 -62.333 -49.667 -121 -105c-48.667 -46 -89.667 -76 -123 -90c1.33301 24 5.66602 67 12.999 129c6.66699 54.667 10.334 94.667 11.001 120
c-84.667 -14 -140 -40 -166 -78c25.333 -66 40 -126.333 44 -181zM914.999 1615c48.667 -26.667 87 -70.3301 115 -130.997c27.333 -58.667 37.666 -117.667 30.999 -177c-8 -64.667 -34.667 -114 -80 -148c39.333 -55.333 60.333 -91 63 -107
c10.667 -56.667 1 -108 -29 -154c-27.333 -42 -66.666 -74 -117.999 -96c-50 -21.333 -100 -28 -150 -20c-54 9.33301 -96.667 34 -128 74c-34 -6.66699 -71.333 -3.66699 -112 9c-9.33301 3.33301 -26 9.66602 -50 18.999c-20.667 7.33301 -36.667 12.666 -48 15.999
c-78.667 -17.333 -149 -9.33301 -211 24c-65.333 35.333 -101 89.333 -107 162c-32 33.333 -50.667 73.666 -56 120.999c-4.66699 44 2.33301 87.667 21 131c19.333 43.333 47 78.333 83 105c38.667 28.667 81.334 43.334 128.001 44.001
c10.667 38.667 35.334 75 74.001 109c37.333 33.333 80.666 58.666 129.999 75.999c51.333 18 100 23.667 146 17c51.333 -7.33301 92.666 -29 123.999 -65c61.333 24.667 119.333 21.667 174 -9z" />
    <glyph glyph-name="plus" unicode="+" horiz-adv-x="1561" 
d="M635 691c7.33301 -69.333 12.333 -126.334 15 -171.001c-192 -21.333 -323.667 -51.666 -395 -90.999c-5.33301 -38 6.66699 -66.333 36 -85c12.667 2.66699 41.667 10 87 22c36.667 9.33301 67 16.333 91 21c72.667 14 139 16 199 6
c-1.33301 -22 0.666992 -50.667 6 -86c4.66699 -35.333 6.66699 -63.333 6 -84c13.333 -8.66699 32.666 -16.667 57.999 -24c36.667 -10 57.667 -16.333 63 -19c16 18.667 25.667 48.667 29 90c0.666992 10 1.33398 49 2.00098 117c58.667 -8 133.334 -25.333 224.001 -52
c101.333 -30 174.333 -49.333 219 -58c21.333 20.667 32 57.334 32 110.001c0 53.333 -10.667 89.666 -32 108.999c-111.333 14 -259 24 -443 30c-4.66699 49.333 -7.33398 119.666 -8.00098 210.999c-0.666992 102.667 -2 170 -4 202
c-68 8.66699 -135 -17.666 -201 -78.999c2 -22.667 7.33301 -79 16 -169zM1203 717.999c61.333 -1.33301 109.667 -8.66992 145 -22.0029c65.333 -24 113.333 -72.667 144 -146c28 -68 36 -141.667 24 -221c-12.667 -82 -43.334 -147.333 -92.001 -196
c-54.667 -54.667 -122.667 -77.334 -204 -68.001c-24.667 2.66699 -56.334 12 -95.001 28c-42.667 17.333 -75.667 28.333 -99 33c-51.333 -63.333 -80.333 -97.666 -87 -102.999c-38 -34.667 -81.667 -53 -131 -55c-67.333 -2.66699 -135.666 14.666 -204.999 51.999
c-77.333 42.667 -118.333 94 -123 154c-19.333 -2.66699 -48 -10.667 -86 -24c-32 -11.333 -60 -17.333 -84 -18c-64 -2 -119.667 17 -167 57c-43.333 36.667 -73.333 84.334 -90 143.001c-16 58 -15 113.333 3 166c18.667 58 54.667 102 108 132
c30 16.667 68.667 30 116 40c70 14.667 116.333 25.334 139 32.001c-7.33301 82.667 -9.66602 138.667 -6.99902 168c4 54.667 20.333 100 49 136c31.333 38 77.666 71.667 138.999 101c60 29.333 117 46.333 171 51c106.667 8.66699 182.334 -27.666 227.001 -108.999
c40.667 -75.333 52 -180.666 34 -315.999c38.667 -8 95.667 -13 171 -15z" />
    <glyph glyph-name="comma" unicode="," horiz-adv-x="557" 
d="M374 20c-2.66699 44 -12.3301 63.335 -28.9971 58.002c-25.333 -9.33301 -52.333 -24 -81 -44c-34.667 -24 -54.334 -45.667 -59.001 -65c-2.66699 -13.333 -2.33398 -31.333 0.999023 -54c4 -22.667 5 -38.334 3 -47.001c-2 -10.667 -14 -32.667 -36 -66
c-16 -24 -19.667 -47.667 -11 -71c66 18 113 37.667 141 59c41.333 31.333 64.666 76.666 69.999 135.999c2.66699 36 3 67.333 1 94zM509.004 -89.998c-10 -88.667 -46.333 -160.001 -109 -214.001c-72.667 -62 -145.334 -95.667 -218.001 -101
c-48 -3.33301 -87 10.667 -117 42c-28.667 30 -43 69.333 -43 118c0 32 15.667 80 47 144l4 8c2 12 2.66699 32 2 60c0 23.333 2 41 6 53c12.667 38.667 46.334 77.334 101.001 116.001c67.333 48.667 115.333 74.667 144 78c55.333 7.33301 98.333 -5 129 -37
c25.333 -26 43.333 -66.667 54 -122v-145z" />
    <glyph glyph-name="hyphen" unicode="-" horiz-adv-x="764" 
d="M238 124c18 -7.33301 37.002 -10.665 57.002 -9.99805c7.33301 16 19.666 27.667 36.999 35c15.333 7.33301 32.333 9.66602 51 6.99902c18.667 -2 34.667 -8.33301 48 -19c15.333 -10.667 24.666 -24.334 27.999 -41.001c48 -6.66699 80 25.333 96 96
c-20 -3.33301 -80.667 -8.33301 -182 -15c-80.667 -4.66699 -139.667 -14 -177 -28c22.667 -14 36.667 -22.333 42 -25zM216.002 1.00098c-26 7.33301 -49.999 17.667 -71.999 31c-22 12.667 -38 25.667 -48 39c-25.333 32.667 -32.333 70 -21 112
c10 39.333 31.333 67.333 64 84c32 16.667 95 28.667 189 36c16.667 0.666992 54.667 3 114 7c43.333 2 75.333 4.33301 96 7c41.333 4.66699 76.333 -7 105 -35c30 -28.667 42.333 -65.667 37 -111c-4 -36 -16.667 -69.667 -38 -101
c-20.667 -31.333 -46.334 -56 -77.001 -74c-32 -18.667 -64.667 -27.334 -98 -26.001c-36.667 1.33301 -70 15 -100 41c-38 -25.333 -88.333 -28.666 -151 -9.99902z" />
    <glyph glyph-name="hyphen" unicode="&#xad;" horiz-adv-x="764" 
d="M238 124c18 -7.33301 37.002 -10.665 57.002 -9.99805c7.33301 16 19.666 27.667 36.999 35c15.333 7.33301 32.333 9.66602 51 6.99902c18.667 -2 34.667 -8.33301 48 -19c15.333 -10.667 24.666 -24.334 27.999 -41.001c48 -6.66699 80 25.333 96 96
c-20 -3.33301 -80.667 -8.33301 -182 -15c-80.667 -4.66699 -139.667 -14 -177 -28c22.667 -14 36.667 -22.333 42 -25zM216.002 1.00098c-26 7.33301 -49.999 17.667 -71.999 31c-22 12.667 -38 25.667 -48 39c-25.333 32.667 -32.333 70 -21 112
c10 39.333 31.333 67.333 64 84c32 16.667 95 28.667 189 36c16.667 0.666992 54.667 3 114 7c43.333 2 75.333 4.33301 96 7c41.333 4.66699 76.333 -7 105 -35c30 -28.667 42.333 -65.667 37 -111c-4 -36 -16.667 -69.667 -38 -101
c-20.667 -31.333 -46.334 -56 -77.001 -74c-32 -18.667 -64.667 -27.334 -98 -26.001c-36.667 1.33301 -70 15 -100 41c-38 -25.333 -88.333 -28.666 -151 -9.99902z" />
    <glyph glyph-name="period" unicode="." horiz-adv-x="557" 
d="M197 4c-12 -23.333 -5.33301 -40.666 20 -51.999c3.33301 -1.33301 11 -1.33301 23 0c12.667 0.666992 20.334 0.666992 23.001 0c8 -1.33301 18.333 -7 31 -17c11.333 -8.66699 20 -12.334 26 -11.001c10 1.33301 17.667 9.33301 23 24
c5.33301 12.667 7.66602 28 6.99902 46c0 18.667 -2.33301 34.667 -7 48c-6 15.333 -13.667 24.333 -23 27c-1.33301 0.666992 -2.33301 1 -3 1c-2 -0.666992 -3.33301 -1 -4 -1c-16 1.33301 -39.667 -5.66699 -71 -21c-20 -10 -35 -24.667 -45 -44zM363 190
c38.667 -10.667 68 -37.332 88 -79.999c18.667 -39.333 26 -83.333 22 -132c-4 -50 -19 -91.333 -45 -124c-28.667 -36.667 -65.667 -54.667 -111 -54c-10.667 0 -24 3.33301 -40 10c-22 9.33301 -37.333 15.333 -46 18c-6.66699 2 -18 3.66699 -34 5
c-13.333 0.666992 -23 2.66699 -29 6c-38.667 16.667 -67.334 46.667 -86.001 90c-20 47.333 -20 93 0 137c14 29.333 38.667 55.333 74 78c36.667 23.333 78.334 38.666 125.001 45.999c34 5.33301 61.333 5.33301 82 0z" />
    <glyph glyph-name="slash" unicode="/" horiz-adv-x="1160" 
d="M670 1132c-106.667 -366.667 -221.001 -678.999 -343.001 -936.999c-51.333 -108 -79.333 -169.333 -84 -184c-22.667 -75.333 -15.667 -140.666 21 -195.999c30.667 -2.66699 52.334 8.66602 65.001 33.999c3.33301 7.33301 7.33301 19 12 35
c4.66699 17.333 8.66699 29.333 12 36c18 40 50 95.333 96 166c48.667 76.667 82.667 134 102 172c93.333 187.333 214.666 603.666 363.999 1249h-10c-99.333 -80 -158.333 -139 -177 -177c0.666992 1.33301 -18.666 -64.667 -57.999 -198zM1008 1657
c44.667 -26 72.667 -62.001 84 -108.001c12 -48.667 5 -124.334 -21 -227.001c-7.33301 -30 -19 -72.667 -35 -128c-16.667 -54.667 -27.667 -92.667 -33 -114c-106 -426.667 -196 -714.667 -270 -864c-22 -43.333 -57.667 -104.666 -107 -183.999
c-48 -75.333 -81.667 -133.666 -101 -174.999c4 8.66699 -8 -23.333 -36 -96c-13.333 -34 -31 -59.333 -53 -76c-27.333 -20 -65 -34.333 -113 -43c-51.333 -8.66699 -95 -6.33398 -131 6.99902c-48.667 17.333 -87 57.333 -115 120c-28.667 64 -37.334 133.333 -26.001 208
c7.33301 48 54.333 164 141 348c80.667 172.667 167.334 412.334 260.001 719.001c71.333 237.333 109.333 360.333 114 369c25.333 50 68.666 103.667 129.999 161c70.667 66 133.334 102.667 188.001 110c42.667 5.33301 84 -3.66699 124 -27z" />
    <glyph glyph-name="zero" unicode="0" horiz-adv-x="1613" 
d="M929 339c-55.333 20 -92.999 33.3301 -112.999 39.9971c22.667 18.667 58.667 38.334 108 59.001c56 24 93.667 42.333 113 55c13.333 -16 18.666 -46.333 15.999 -91c-0.666992 -11.333 -2.33398 -29.666 -5.00098 -54.999c-2.66699 -22 -4 -37.333 -4 -46
c-29.333 8.66699 -67.666 21.334 -114.999 38.001zM1030 741.997c-36 -14 -82.666 -35.001 -139.999 -63.001c-64.667 -32 -110.667 -53.667 -138 -65c-8.66699 90 12 161.667 62 215c23.333 24.667 78.666 62 165.999 112c11.333 -19.333 28 -85.666 50 -198.999z
M709.002 1072c-85.333 -68 -144.336 -142.667 -177.003 -224c-38 -93.333 -47 -204 -27 -332c18 -120.667 53 -213.667 105 -279c28.667 -36 70.334 -66 125.001 -90c0.666992 -0.666992 56.334 -20.667 167.001 -60c120 -42.667 203 -57 249 -43
c126.667 40.667 174 237.667 142 591c-16 178 -38.667 306.667 -68 386c-47.333 127.333 -122 186 -224 176c-101.333 -10 -198.666 -51.667 -291.999 -125zM1058 -86.0039c-116 76 -189.332 119.332 -219.999 129.999c-32.667 12 -98.334 27.333 -197.001 46
c-82 16 -139.667 34 -173 54c-90.667 54.667 -154 144.334 -190 269.001c-36.667 128.667 -30.334 252.334 18.999 371.001c78.667 190 280.334 377.333 605.001 562c116.667 67.333 211.334 105.333 284.001 114c113.333 14.667 201.666 -38.333 264.999 -159
c37.333 -70.667 72.333 -188.334 105 -353.001c54.667 -270.667 73 -500.667 55 -690c-24.667 -272.667 -126 -412.667 -304 -420c-83.333 -3.33301 -166.333 22 -249 76zM1172 1709c-175.333 -20 -381.666 -114.666 -618.999 -283.999c-204 -146 -351 -298 -441 -456
c-124.667 -218 -140.667 -446.667 -48 -686c41.333 -106.667 100.666 -198 177.999 -274c79.333 -78 168.666 -130.333 267.999 -157c17.333 -4.66699 55.333 -10 114 -16c52 -6 94.667 -14.667 128 -26c42 -14.667 116.667 -54.667 224 -120
c88.667 -54.667 166 -86 232 -94c124 -14.667 233 2 327 50c210.667 108 319 359.333 325 754c4.66699 318.667 -46.666 624.667 -153.999 918c-106.667 289.333 -284.667 419.666 -534 390.999z" />
    <glyph glyph-name="one" unicode="1" horiz-adv-x="1129" 
d="M887 1420c-2.66699 2 -4.66602 3.00098 -5.99902 3.00098c-2.66699 -1.33301 -6 -2.33301 -10 -3c-4.66699 -1.33301 -8 -2.33301 -10 -3c-72 -34 -146.333 -90 -223 -168c-23.333 -23.333 -55.333 -58 -96 -104l-96 -104c-10.667 -12 -31.334 -32.667 -62.001 -62
c-27.333 -26.667 -47.666 -47 -60.999 -61c-38.667 -41.333 -60 -65.333 -64 -72c-20.667 -30.667 -23 -58.667 -7 -84c36.667 10.667 105.667 62.667 207 156c96 87.333 158.667 141.333 188 162c31.333 -516 46.666 -795 45.999 -837
c-41.333 12 -84.666 15.667 -129.999 11c-50.667 -4.66699 -85.334 -19 -104.001 -43c4 -36 23.333 -50.667 58 -44c7.33301 1.33301 23.666 6 48.999 14c20.667 6.66699 37 10.334 49 11.001c92 4.66699 170.667 -32 236 -110c46.667 -56 91 -140.333 133 -253
c34 -9.33301 67 -8.66602 99 2.00098c30.667 11.333 47.334 27.666 50.001 48.999c3.33301 26 -33.334 78 -110.001 156c-18.667 19.333 -45.667 43.666 -81 72.999c-31.333 26.667 -51.666 45.667 -60.999 57c34.667 141.333 45 342.666 31 603.999
c-18 334 -24 549.667 -18 647c-2.66699 0 -5 1 -7 3zM405.001 -39.999c-82 34.667 -135.33 86.001 -159.997 154.001c-30 81.333 -23 155.666 21 222.999c42 64.667 106.333 107 193 127c1.33301 14 -0.666992 59.333 -6 136c-14.667 -5.33301 -38.667 -17.666 -72 -36.999
c-26 -15.333 -49.667 -24.666 -71 -27.999c-109.333 -16 -193.333 19.667 -252 107c-56 84 -65 173.667 -27 269c16.667 40.667 53.667 90.334 111 149.001c11.333 12 36 36.333 74 73c30 29.333 52.667 52.666 68 69.999c138 152 226.667 245 266 279
c79.333 68.667 156.666 116.334 231.999 143.001c106.667 38 193.667 27 261 -33c51.333 -46.667 80.333 -155.667 87 -327c2 -48.667 2.66699 -121.667 2 -219c-0.666992 -94.667 -0.333984 -161.334 0.999023 -200.001c2 -36 4.33301 -84.333 7 -145
c3.33301 -74.667 5.33301 -123.334 6 -146.001c2 -34 -1.33301 -87.333 -10 -160c-6.66699 -63.333 -7.66699 -107.333 -3 -132c1.33301 -4.66699 36 -48 104 -130c52 -62 86.667 -116 104 -162c27.333 -73.333 23 -144.666 -13 -213.999
c-24.667 -46.667 -63.334 -84.334 -116.001 -113.001c-49.333 -26.667 -104 -41.667 -164 -45c-60.667 -2.66699 -115.667 7.66602 -165 30.999c-54 25.333 -93.667 63.333 -119 114c1.33301 -2.66699 -11.667 36.666 -39 117.999c-15.333 44 -41.333 76 -78 96
c-75.333 -35.333 -156 -34.666 -242 2.00098z" />
    <glyph glyph-name="two" unicode="2" horiz-adv-x="1240" 
d="M1114 1431c-75.333 47.333 -194.338 23.9961 -357.005 -70.0039c-124 -71.333 -255.667 -173.333 -395 -306c-4.66699 -4.66699 -21 -18.667 -49 -42c-21.333 -18 -37.666 -33.667 -48.999 -47c-34 -38.667 -43.667 -77 -29 -115c26 -4.66699 52 4.33301 78 27
c8 6.66699 18.667 17.334 32 32.001s23.333 24.667 30 30c40.667 36 85.334 72.333 134.001 109c140.667 106 253 154.667 337 146c34.667 -3.33301 64.334 -22.333 89.001 -57c20.667 -28.667 33.667 -60.667 39 -96c24 -176 -32 -321.667 -168 -437
c-24 -20.667 -83.667 -64 -179 -130c-73.333 -50.667 -125.666 -95 -156.999 -133c-38 -47.333 -55 -83.666 -51 -108.999c1.33301 -7.33301 9.66602 -18 24.999 -32c16 -16 29 -24.333 39 -25c14.667 -1.33301 33 4 55 16c24.667 14 40.334 21.333 47.001 22
c110 16.667 201.333 -20 274 -110c32.667 -40 77.334 -124.333 134.001 -253c31.333 -8.66699 62.666 -8.66699 93.999 0c35.333 9.33301 55 26.333 59 51c3.33301 20.667 -28.667 67.334 -96 140.001c-146.667 159.333 -301.667 240 -465 242
c285.333 150 428 224.667 428 224c138 102 212 244 222 426c14.667 270.667 -25.666 436.334 -120.999 497.001zM1205 200.996c44 -42.667 77.6631 -80.334 100.996 -113.001c70 -98 82.333 -196 37 -294c-23.333 -51.333 -61.666 -92 -114.999 -122
c-50 -28 -105.333 -43.333 -166 -46c-61.333 -2 -117.333 8.66699 -168 32c-54 25.333 -93.333 62 -118 110c-7.33301 15.333 -15.333 36.333 -24 63c-11.333 33.333 -18.666 54.333 -21.999 63c-19.333 48.667 -48.666 81 -87.999 97
c-61.333 -35.333 -131.333 -43.666 -210 -24.999c-70 16.667 -127.333 48.334 -172 95.001c-28.667 65.333 -45 105.333 -49 120c-13.333 46 -14 91 -2 135c23.333 85.333 79.666 164 168.999 236c25.333 20 66 49.333 122 88c55.333 38 96.333 68 123 90
c74.667 61.333 117.334 129.333 128.001 204c-54.667 -12.667 -124.667 -62.667 -210 -150c-86 -88.667 -158.333 -140.667 -217 -156c-57.333 -14.667 -111.333 -12 -162 8c-46 18.667 -83.667 49.667 -113 93c-29.333 42 -46 89 -50 141c-4 54 6.66699 105 32 153
c16 30.667 81.667 100.667 197 210c292.667 278 551.667 424.667 777 440c128.667 8.66699 232.667 -35 312 -131c70.667 -84.667 115.667 -200.667 135 -348c18 -137.333 11 -276 -21 -416c-32 -142.667 -82.667 -254.334 -152 -335.001c-36 -42 -93.333 -90.667 -172 -146
c4.66699 -5.33301 37.334 -37.333 98.001 -96z" />
    <glyph glyph-name="three" unicode="3" horiz-adv-x="1409" 
d="M1282 1065c4.66699 188.667 -34.6689 308.334 -118.002 359.001c-52 31.333 -118.667 31.333 -200 0c-34 -12.667 -92.333 -44 -175 -94c-147.333 -88 -287.666 -192.667 -420.999 -314c-48.667 -44 -80.667 -77 -96 -99c-31.333 -43.333 -39.333 -83.666 -24 -120.999
c1.33301 0.666992 97 74 287 220c74.667 57.333 125.334 93.666 152.001 108.999c74.667 42.667 142.334 57.667 203.001 45c34 -6.66699 61 -32.334 81 -77.001c17.333 -36.667 26 -75.667 26 -117c0 -128 -56 -219.333 -168 -274c-7.33301 -4 -98 -24.667 -272 -62
c-51.333 -11.333 -87.333 -25.333 -108 -42c-26 -20.667 -33 -48.334 -21 -83.001c34 -12.667 75.667 -15.334 125 -8.00098c69.333 10.667 117 15.667 143 15c90 -3.33301 173.667 -30 251 -80c73.333 -48.667 121 -104.667 143 -168c21.333 -62 21.333 -111 0 -147
c-26 -44 -83 -54.667 -171 -32c-26.667 7.33301 -61.667 19 -105 35c-45.333 17.333 -73.666 27.666 -84.999 30.999c-114.667 32.667 -228.334 41.667 -341.001 27c-6.66699 -15.333 -2 -30.666 14 -45.999c4 -4 11 -10 21 -18c9.33301 -7.33301 15.666 -13 18.999 -17
c23.333 -1.33301 51 0.333984 83 5.00098c34.667 6 58.334 9 71.001 9c87.333 -1.33301 194.333 -47.666 321 -138.999c119.333 -86.667 221.666 -125 306.999 -115c51.333 6 93 29.333 125 70s48.333 90.667 49 150c0.666992 122 -48.333 232.667 -147 332
c-87.333 88.667 -192.333 149.667 -315 183c96 7.33301 169.667 34 221 80c78 70 119.667 197.667 125 383zM1608 224c39.333 -180.667 11.668 -328.667 -82.999 -444c-48 -58 -112.667 -99.667 -194 -125c-86 -27.333 -173 -30.333 -261 -9
c-64.667 16 -148.334 60.667 -251.001 134c-94 67.333 -166.333 103 -217 107c-18 1.33301 -46.667 -1.33398 -86 -8.00098c-38 -6 -67.333 -8 -88 -6c-55.333 6.66699 -106.333 28 -153 64c-44.667 34.667 -77.667 77.334 -99 128.001
c-22.667 52.667 -28.667 104.667 -18 156c11.333 56.667 41.333 105.667 90 147c-43.333 58 -63.333 125 -60 201c-76 18.667 -131.333 73.334 -166 164.001c-35.333 94 -29 181.667 19 263c21.333 36.667 90.333 108 207 214c322 292.667 582.667 448.667 782 468
c122 12 223.667 -20 305 -96c72.667 -67.333 123.667 -163 153 -287c27.333 -114.667 32 -235.334 14 -362.001c-18 -128 -55 -236 -111 -324c108.667 -90.667 181 -219 217 -385z" />
    <glyph glyph-name="four" unicode="4" horiz-adv-x="1445" 
d="M920 264c4.66699 108 3.33203 249 -4.00098 423c-10 255.333 -15.333 397.666 -16 426.999c-50 -113.333 -128.333 -254.666 -235 -423.999c-131.333 -208 -212.666 -341 -243.999 -399c144 41.333 310.333 32.333 499 -27zM1257 -66
c-57.333 54.667 -95.332 83.6641 -113.999 86.9971c-8 -10.667 -18.333 -28 -31 -52c-15.333 -27.333 -26 -45.666 -32 -54.999c-26.667 -42 -55.334 -62.667 -86.001 -62c-22.667 0.666992 -46 18.334 -70 53.001c-28.667 42 -50 67 -64 75
c31.333 56.667 49 108.667 53 156c-78.667 45.333 -181.334 68.333 -308.001 69c-121.333 1.33301 -227.666 -17.334 -318.999 -56.001c-46 33.333 -55 85.333 -27 156c4.66699 12.667 38.334 73.334 101.001 182.001l142 236l142 236c12.667 22.667 34 67 64 133
c25.333 53.333 46.666 92.333 63.999 117c47.333 65.333 175.333 139.666 384 222.999c2 -0.666992 4.33301 -2 7 -4c2 -2 4.33301 -3 7 -3c-8.66699 -131.333 -9 -337 -1 -617c8.66699 -286 9 -496.667 1 -632c14 -15.333 60.333 -38 139 -68c70 -26 111.333 -55 124 -87
c11.333 -27.333 11.333 -58.666 0 -93.999c-11.333 -36.667 -29.333 -57 -54 -61c-28 -5.33301 -68.667 17.334 -122 68.001zM1543 240.997c-13.333 9.33301 -34.332 22.665 -62.999 39.998c-29.333 18.667 -51.666 33.334 -66.999 44.001
c0.666992 86.667 -1.33301 223.667 -6 411c-5.33301 199.333 -8 341.333 -8 426c0 27.333 3.33301 74 10 140c4.66699 57.333 6 100.666 4 129.999c-6 78 -41.333 140 -106 186c-67.333 47.333 -142.333 59.333 -225 36c-89.333 -24.667 -181 -65 -275 -121
c-108 -63.333 -185 -128.666 -231 -195.999c-18 -26 -40.333 -65.333 -67 -118c-34.667 -68.667 -57.334 -112.667 -68.001 -132l-146 -248l-144 -244c-68.667 -119.333 -108.334 -192.333 -119.001 -219c-37.333 -94 -40.333 -178.667 -9 -254
c27.333 -68 63.333 -119.667 108 -155c60 -49.333 138 -63 234 -41c143.333 33.333 229.333 49.333 258 48c6.66699 -58 36.667 -121.333 90 -190c48.667 -63.333 97.667 -108 147 -134c108.667 -58.667 218.667 -43 330 47c64 -51.333 132 -72.666 204 -63.999
c65.333 7.33301 124 37.333 176 90c50.667 52 83.667 114 99 186c16 76.667 7 150 -27 220c-20 42 -53 79.333 -99 112z" />
    <glyph glyph-name="five" unicode="5" horiz-adv-x="1315" 
d="M1124 1446l-355.001 -232l-351 -228c-114.667 -78 -182 -137 -202 -177c2.66699 -17.333 9.33398 -46 20.001 -86c12 -46 20 -80.333 24 -103c2.66699 -12.667 5 -30.667 7 -54c2.66699 -26.667 4.66699 -44.667 6 -54c6 -41.333 18.667 -70.333 38 -87
c281.333 36 415.666 54.667 402.999 56c105.333 -11.333 187.333 -55.333 246 -132c25.333 -32.667 43 -70.667 53 -114c12.667 -52.667 9.66699 -98.667 -9 -138c-26.667 -54 -94 -69 -202 -45c-16 4 -61.333 16.667 -136 38c-54 15.333 -94.667 24 -122 26
c-80 6 -145 1.66699 -195 -13c8.66699 -48 36.334 -70.667 83.001 -68c12 0.666992 32.333 4 61 10c26 5.33301 45 8 57 8c78.667 -0.666992 174.334 -39 287.001 -115c107.333 -73.333 200.666 -106.333 279.999 -99c58.667 4.66699 105.334 31.667 140.001 81
c30.667 44 47 96.667 49 158c4 101.333 -17.333 193.333 -64 276c-44.667 78 -107.334 141.333 -188.001 190c-173.333 103.333 -362.333 118.333 -567 45c0 38 -3.66699 86.667 -11 146c-8 68.667 -12.667 116.334 -14 143.001c39.333 25.333 203 109.666 491 252.999
c102 50 156.667 79.333 164 88c20 22.667 32.667 58 38 106c5.33301 52.667 -3 93 -25 121h-6zM1337 597c126 -138 189.333 -304.667 190 -500c0 -132 -36.333 -242.667 -109 -332c-76.667 -94 -179 -143 -307 -147c-92.667 -2.66699 -193.334 24.666 -302.001 81.999
l-115 78c-49.333 33.333 -93 51.333 -131 54c-20 2 -55 -1.66699 -105 -11c-43.333 -8 -77.666 -8.33301 -102.999 -1c-88.667 24 -155 77.667 -199 161c-47.333 90 -40 175 22 255c-46 36 -78 82.333 -96 139c-7.33301 21.333 -21.333 90.333 -42 207
c-26.667 148 -40 219.333 -40 214c-4.66699 72.667 15 136 59 190c20 24 97.667 82.667 233 176l246 161l252 160l93 69c42.667 32 78.667 56 108 72c91.333 48.667 175.333 54.334 252 17.001c80 -39.333 124.333 -113 133 -221
c12.667 -165.333 -38.333 -294.333 -153 -387c-28 -22.667 -145 -84.667 -351 -186c190 -36 345 -119.333 465 -250z" />
    <glyph glyph-name="six" unicode="6" horiz-adv-x="1381" 
d="M560 480c-62.667 -19.333 -98 -43.002 -106 -71.002c-12 -45.333 7 -102.666 57 -171.999c26.667 -36 67 -66 121 -90c17.333 -7.33301 42 -16.666 74 -27.999c38.667 -13.333 65 -22.666 79 -27.999c114.667 -44.667 193 -57.334 235 -38.001
c46 21.333 70 69.666 72 144.999c2 70.667 -13.667 132.334 -47 185.001c-28 44.667 -74.667 79 -140 103c-61.333 22.667 -124.666 30.667 -189.999 24c-56.667 -5.33301 -108.334 -15.333 -155.001 -30zM989 -111.002c-32.667 16 -78.332 43 -136.999 81
c-56.667 36.667 -96 60 -118 70c-30.667 14 -83.334 28.333 -158.001 43c-72.667 14 -126 29.333 -160 46c-58.667 29.333 -106.334 79 -143.001 149c-36 67.333 -54 138.333 -54 213c0 119.333 41 235.666 123 348.999c50.667 70.667 128.334 151.334 233.001 242.001
c202 174.667 396.667 295.334 584 362.001c14.667 5.33301 36 7.33301 64 6c10.667 -35.333 16 -73.333 16 -114c0 -50 -9.66699 -84 -29 -102c-12.667 -11.333 -37 -19 -73 -23c-58.667 -6.66699 -85 -9.33398 -79 -8.00098c-149.333 -31.333 -289 -107.666 -419 -228.999
c-69.333 -64 -118.333 -122.333 -147 -175c-40.667 -73.333 -61.667 -161 -63 -263c116 72.667 243.667 113.667 383 123c154 10 278.333 -24.667 373 -104c77.333 -66 134 -170 170 -312c41.333 -164.667 14.333 -283 -81 -355c-74 -56.667 -169 -56.334 -285 0.999023z
M886.002 884.998c42 44.667 106.998 73.6689 194.998 87.002c109.333 16.667 182 34.334 218 53.001c56.667 28.667 100 83 130 163c28 76 37 154.667 27 236c-10.667 86 -40.667 151.333 -90 196c-57.333 51.333 -132.666 66.666 -225.999 45.999
c-204.667 -45.333 -439.667 -183 -705 -413c-268 -232 -412 -460.667 -432 -686c-14 -162.667 15.667 -304 89 -424c66 -108.667 157 -185.334 273 -230.001c25.333 -10 64.333 -19.333 117 -28c61.333 -10.667 107 -20.334 137 -29.001
c32.667 -9.33301 72.667 -31.333 120 -66c62 -45.333 100.667 -72 116 -80c94 -52.667 187 -80.334 279 -83.001c124 -3.33301 228.333 37.667 313 123c78 78.667 124 177.334 138 296.001c24.667 214.667 -34.666 409.667 -177.999 585c-132 161.333 -305.667 246 -521 254
z" />
    <glyph glyph-name="seven" unicode="7" horiz-adv-x="1498" 
d="M354 704c-4.66699 -4 -17.334 -12.6689 -38.001 -26.002c-16.667 -10.667 -29.667 -20 -39 -28c-28 -24.667 -40.667 -51.667 -38 -81c36.667 -8 78 0.333008 124 25c14 7.33301 33 19 57 35c26.667 17.333 45 28.666 55 33.999c225.333 128.667 468 245.334 728 350.001
c-96 -266 -177 -465.667 -243 -599c-21.333 -42.667 -73 -132.334 -155 -269.001c-66 -109.333 -113 -201.666 -141 -276.999c12 -5.33301 35.333 -7.66602 70 -6.99902c35.333 0.666992 59 -1.33301 71 -6c124.667 78 231.667 190.333 321 337
c68.667 112.667 137 265.334 205 458.001c116.667 332 170.334 590 161.001 774h-13c-72.667 -49.333 -292.667 -186.333 -660 -411c-184 -111.333 -339 -214.333 -465 -309zM551 434.998c-97.333 -69.333 -174.33 -107.667 -230.997 -115
c-104 -14.667 -188.333 13.333 -253 84c-65.333 72 -84.333 160.667 -57 266c19.333 72 120.666 170.667 303.999 296c87.333 60 210.666 137.667 369.999 233c198 118.667 321.333 193.667 370 225c21.333 13.333 51.666 35 90.999 65c48.667 37.333 82 62.333 100 75
c83.333 58.667 152.333 90.667 207 96c81.333 8.66699 149.666 -14.666 204.999 -69.999c53.333 -53.333 81.333 -122 84 -206c4 -99.333 -31.667 -281.333 -107 -546c-148 -518.667 -334.333 -875.667 -559 -1071c-93.333 -80.667 -156.333 -125.334 -189 -134.001
c-126 -34 -234.333 -26 -325 24c-98.667 54 -140.667 142.333 -126 265c10 89.333 60 195.333 150 318c100 136 160 239 180 309c-45.333 -7.33301 -116.666 -45.333 -213.999 -114z" />
    <glyph glyph-name="eight" unicode="8" horiz-adv-x="1381" 
d="M565 437c-64 -42 -94.334 -86.3301 -91.001 -132.997c2.66699 -46.667 37.667 -82 105 -106c19.333 -7.33301 48.333 -15.333 87 -24c37.333 -8.66699 62.666 -15.334 75.999 -20.001c0.666992 0 34.334 -14.667 101.001 -44c52 -22.667 94.333 -37.334 127 -44.001
c100.667 -22.667 144.334 17.666 131.001 120.999c-8.66699 64 -58.667 134 -150 210c-90 74 -164.333 108.333 -223 103c-52.667 -4.66699 -107 -25.667 -163 -63zM899.999 732.003c47.333 38.667 81.6689 74.667 103.002 108c31.333 50 46.333 113 45 189
c-2 81.333 -25.667 131.666 -71 150.999c-22.667 9.33301 -62 9.33301 -118 0c-146.667 -24.667 -266.334 -92 -359.001 -202c-48.667 -57.333 -66.334 -112 -53.001 -164c7.33301 -26.667 28.666 -48 63.999 -64c-3.33301 1.33301 23.334 -7.66699 80.001 -27
c115.333 -40 176.333 -59.667 183 -59c32 2.66699 74 25.334 126 68.001zM937.002 -36.9971c-55.333 47.333 -98.666 80.334 -129.999 99.001c-48.667 29.333 -103.667 47.666 -165 54.999c-10.667 0.666992 -40 2.66699 -88 6c-40.667 3.33301 -76.334 7 -107.001 11
c-41.333 6 -77.333 21.333 -108 46c-34 26 -52.333 56.667 -55 92c-5.33301 67.333 27 127 97 179c22.667 16.667 54 36 94 58c49.333 26.667 79.333 43.334 90 50.001c-22 12.667 -86 30 -192 52c-82 16.667 -131.333 45 -148 85c-29.333 72 7.66699 163.667 111 275
c114.667 123.333 265 238.666 451 345.999c86 50 145 81.333 177 94c80.667 32 150.334 38 209.001 18c54.667 -19.333 93 -74 115 -164c17.333 -71.333 22.666 -152 15.999 -242c-17.333 -222 -133 -368 -347 -438c265.333 -166 405 -335.667 419 -509
c6.66699 -92.667 -24 -159 -92 -199c-66.667 -38.667 -143 -38 -229 2c-30.667 14.667 -70 42.667 -118 84zM1506 880.004c29.333 125.333 34 249.002 14 371.002c-22 130.667 -69 232.667 -141 306c-82 83.333 -187.667 119 -317 107
c-145.333 -13.333 -341.333 -107 -588 -281c-230.667 -162.667 -376.667 -306.667 -438 -432c-41.333 -83.333 -53.333 -172.666 -36 -267.999c16 -92.667 54 -162.334 114 -209.001c-80 -132 -78.667 -258.667 4 -380c77.333 -113.333 187 -176 329 -188
c9.33301 -1.33301 36.666 -1.33301 81.999 0c36 1.33301 65.333 -1 88 -7c-4.66699 1.33301 80.333 -55.334 255 -170.001c115.333 -75.333 222.333 -112.333 321 -111c120.667 1.33301 219.334 42.666 296.001 123.999c72 76.667 110.333 172.667 115 288
c4.66699 111.333 -20.333 214.333 -75 309c6.66699 -11.333 -51 68.667 -173 240c69.333 72.667 119.333 173 150 301z" />
    <glyph glyph-name="nine" unicode="9" horiz-adv-x="1581" 
d="M1002 1158c-24.667 0.666992 -41.666 0.333008 -50.999 -1c-98.667 -13.333 -198.334 -65 -299.001 -155c-109.333 -98 -162.666 -196.667 -159.999 -296c2.66699 -132.667 104 -206.667 304 -222c171.333 -13.333 324 11 458 73c-23.333 202.667 -39 321 -47 355
c-30 122.667 -82.667 204.334 -158 245.001c-6.66699 -0.666992 -22.334 -0.333984 -47.001 0.999023zM1022 -90.001c-147.333 72.667 -253.666 109.669 -318.999 111.002c-14.667 0 -33.667 -2.66699 -57 -8c-28 -6.66699 -46 -10.667 -54 -12
c-41.333 -4 -74.666 14.333 -99.999 55c54 42.667 153 48 297 16c159.333 -34.667 269.666 -40 330.999 -16c77.333 30.667 124.333 124.667 141 282c-80.667 -8 -269 -0.666992 -565 22c-154.667 11.333 -257.334 26.666 -308.001 45.999
c-92.667 35.333 -140.334 102.333 -143.001 201c-1.33301 45.333 10.334 94.666 35.001 147.999c55.333 118.667 182.333 252.667 381 402c240 180.667 419 268 537 262c89.333 -5.33301 158.333 -56.666 207 -153.999c26 -52.667 55.667 -152 89 -298
c56 -244.667 81.333 -455.334 76 -632.001c-8 -256.667 -82.667 -411 -224 -463c-94.667 -34 -202.667 -21.333 -324 38zM1581 1457c-102.667 160 -253.998 229.67 -453.998 209.003c-150.667 -16 -355.334 -122 -614.001 -318
c-222.667 -169.333 -371 -324.666 -445 -465.999c-68 -130.667 -81.667 -268.334 -41 -413.001c41.333 -146.667 123.333 -242 246 -286c-42.667 -95.333 -38 -185.333 14 -270c46 -74.667 112 -123.334 198 -146.001c30 -8.66699 66.333 -9.33398 109 -2.00098
c50 8.66699 91.333 11.667 124 9c4 -0.666992 76.667 -31.334 218 -92.001c115.333 -49.333 235 -68.666 359 -57.999c130.667 11.333 234.667 54 312 128c113.333 109.333 179.666 282.333 198.999 519c15.333 195.333 -1.66699 415.333 -51 660
c-49.333 247.333 -107.333 422.666 -174 525.999z" />
    <glyph glyph-name="colon" unicode=":" horiz-adv-x="714" 
d="M329 192c9.33301 -16.667 16 -27.668 20 -33.001c17.333 -26 36 -39.333 56 -40c10 0 20.667 3 32 9c11.333 6.66699 18.333 14.667 21 24c5.33301 18.667 0.333008 41.334 -15 68.001c-14 25.333 -34 48.333 -60 69c-26 22 -51.667 35.333 -77 40
c-28 5.33301 -50.333 -1.33398 -67 -20.001c4 -17.333 13.667 -32.666 29 -45.999c24.667 -23.333 38.667 -37 42 -41c4.66699 -6 11 -16 19 -30zM405 911.999c-0.666992 3.33301 -2.33105 4.66895 -4.99805 4.00195c-100.667 -138.667 -158.334 -258.334 -173.001 -359.001
c79.333 51.333 131.666 93.666 156.999 126.999c49.333 64.667 59 140.667 29 228h-8zM603.003 198.002c7.33301 -68 -10.002 -123.998 -52.002 -167.998c-43.333 -44 -99 -62.333 -167 -55c-46.667 4 -85 23.667 -115 59c-8.66699 10 -21 26.333 -37 49
c-15.333 23.333 -28 41 -38 53c-47.333 55.333 -72.666 86 -75.999 92c-25.333 43.333 -29 89.666 -11 138.999c0.666992 1.33301 9.33398 11.666 26.001 30.999c16 18.667 24 29 24 31s-9.66699 13 -29 33c-20 20.667 -31 33 -33 37c-22.667 50 -21.667 107.333 3 172
c2 6.66699 28.333 59.334 79 158.001c55.333 107.333 96.666 172 123.999 194c22 18 47.333 29.667 76 35c31.333 5.33301 61 2 89 -10c64 -27.333 99 -95.666 105 -204.999c5.33301 -104.667 -15.667 -186.334 -63 -245.001c-14 -16.667 -38.333 -38.334 -73 -65.001
c-35.333 -26 -60.666 -48.333 -75.999 -67c150.667 -74.667 232 -164 244 -268z" />
    <glyph glyph-name="semicolon" unicode=";" horiz-adv-x="557" 
d="M295 203c-20 -14 -53.333 -26.666 -100 -37.999c-6.66699 14.667 -4.33398 30 6.99902 46c16 22 25 36.333 27 43c1.33301 5.33301 0.666016 15.666 -2.00098 30.999c-2.66699 14.667 -3 26.334 -1 35.001c2.66699 12.667 16.334 27 41.001 43
c20.667 12.667 40.334 22 59.001 28c11.333 4 18 -8.33301 20 -37c1.33301 -18 1 -38.667 -1 -62c-3.33301 -38.667 -20 -68.334 -50 -89.001zM209 430.001c-38.667 -26 -62.666 -51.6689 -71.999 -77.002c-2.66699 -7.33301 -4 -18.666 -4 -33.999
c0 -18.667 -0.666992 -32 -2 -40l-2 -5c-22.667 -42 -34 -73.333 -34 -94c0 -32 10.333 -57.667 31 -77c21.333 -20.667 49 -29.667 83 -27c52 3.33301 104 25.333 156 66c44.667 34.667 70.667 81.334 78 140.001v94c-16.667 78 -60.334 112.667 -131.001 104
c-20.667 -2 -55 -18.667 -103 -50zM346.001 853.999c4.66699 -0.666992 6.66602 -0.666016 5.99902 0.000976562c15.333 -4.66699 23.333 -22.667 24 -54c0 -32 -8 -49 -24 -51c-5.33301 -0.666992 -12 2 -20 8c-10.667 7.33301 -18.667 11.333 -24 12
c-2.66699 0.666992 -9 0.666992 -19 0c-9.33301 -0.666992 -15.333 -0.666992 -18 0c-19.333 8.66699 -24.666 21.334 -15.999 38.001c8 13.333 20 23.666 36 30.999c24 11.333 42.333 16.666 55 15.999zM256 684c12 -1.33301 21 -2.66602 27 -3.99902
s17.667 -5.33301 35 -12c12.667 -5.33301 23 -8 31 -8c36 0 65 13 87 39c20.667 23.333 32.667 53 36 89c2.66699 35.333 -3 67 -17 95c-16 30.667 -39.333 49.667 -70 57c-16 4 -37.333 4 -64 0c-36.667 -5.33301 -69.334 -16.333 -98.001 -33
c-27.333 -16.667 -46.333 -35.334 -57 -56.001c-16 -31.333 -16 -64 0 -98c14.667 -31.333 37 -53 67 -65c4.66699 -2 12.334 -3.33301 23.001 -4z" />
    <glyph glyph-name="semicolon" unicode="&#x37e;" horiz-adv-x="557" 
d="M295 203c-20 -14 -53.333 -26.666 -100 -37.999c-6.66699 14.667 -4.33398 30 6.99902 46c16 22 25 36.333 27 43c1.33301 5.33301 0.666016 15.666 -2.00098 30.999c-2.66699 14.667 -3 26.334 -1 35.001c2.66699 12.667 16.334 27 41.001 43
c20.667 12.667 40.334 22 59.001 28c11.333 4 18 -8.33301 20 -37c1.33301 -18 1 -38.667 -1 -62c-3.33301 -38.667 -20 -68.334 -50 -89.001zM209 430.001c-38.667 -26 -62.666 -51.6689 -71.999 -77.002c-2.66699 -7.33301 -4 -18.666 -4 -33.999
c0 -18.667 -0.666992 -32 -2 -40l-2 -5c-22.667 -42 -34 -73.333 -34 -94c0 -32 10.333 -57.667 31 -77c21.333 -20.667 49 -29.667 83 -27c52 3.33301 104 25.333 156 66c44.667 34.667 70.667 81.334 78 140.001v94c-16.667 78 -60.334 112.667 -131.001 104
c-20.667 -2 -55 -18.667 -103 -50zM346.001 853.999c4.66699 -0.666992 6.66602 -0.666016 5.99902 0.000976562c15.333 -4.66699 23.333 -22.667 24 -54c0 -32 -8 -49 -24 -51c-5.33301 -0.666992 -12 2 -20 8c-10.667 7.33301 -18.667 11.333 -24 12
c-2.66699 0.666992 -9 0.666992 -19 0c-9.33301 -0.666992 -15.333 -0.666992 -18 0c-19.333 8.66699 -24.666 21.334 -15.999 38.001c8 13.333 20 23.666 36 30.999c24 11.333 42.333 16.666 55 15.999zM256 684c12 -1.33301 21 -2.66602 27 -3.99902
s17.667 -5.33301 35 -12c12.667 -5.33301 23 -8 31 -8c36 0 65 13 87 39c20.667 23.333 32.667 53 36 89c2.66699 35.333 -3 67 -17 95c-16 30.667 -39.333 49.667 -70 57c-16 4 -37.333 4 -64 0c-36.667 -5.33301 -69.334 -16.333 -98.001 -33
c-27.333 -16.667 -46.333 -35.334 -57 -56.001c-16 -31.333 -16 -64 0 -98c14.667 -31.333 37 -53 67 -65c4.66699 -2 12.334 -3.33301 23.001 -4z" />
    <glyph glyph-name="less" unicode="&#x3c;" horiz-adv-x="1312" 
d="M460 487c-42 -28 -67.001 -46.665 -75.001 -55.998c-18.667 -22 -17 -45.667 5 -71c156.667 -10.667 271.334 -34.334 344.001 -71.001c102.667 -52 152.334 -137.333 149.001 -256c28 -4.66699 55 -1.66699 81 9c28.667 10.667 43.667 26.667 45 48
c3.33301 31.333 -28.334 80.666 -95.001 147.999c-46 46 -105.667 86.333 -179 121c-72.667 34.667 -144 56.667 -214 66c246 128.667 397.333 214.667 454 258c75.333 58 117.333 95.667 126 113c19.333 40.667 23.666 101.667 12.999 183
c-21.333 -15.333 -49.666 -41.333 -84.999 -78c-44 -44.667 -73.667 -73.667 -89 -87c-36 -32 -196 -141 -480 -327zM1145 172.002c30.667 -76.667 18 -146.334 -38 -209.001c-54 -60 -123 -89 -207 -87c-45.333 0.666992 -84 13.667 -116 39
c-33.333 26.667 -52.666 61.667 -57.999 105c-0.666992 5.33301 0.333008 16.666 3 33.999c2.66699 16.667 3 28.667 1 36c-6.66699 28.667 -39.334 54.334 -98.001 77.001c-52.667 20.667 -108.667 32.667 -168 36c-79.333 4.66699 -125.666 10.334 -138.999 17.001
c-14.667 8 -29.334 20.333 -44.001 37c-19.333 22.667 -32.333 36.667 -39 42c-26.667 4.66699 -62 9.33398 -106 14.001c-58 6 -94 10 -108 12c37.333 24.667 101.333 61 192 109c8.66699 50.667 39 95.667 91 135c0 0.666992 49.667 31.334 149 92.001
c158.667 97.333 291 193.333 397 288c4 3.33301 26.333 25.666 67 66.999c31.333 32 58.666 56.333 81.999 73c71.333 50 138 55.667 200 17c41.333 -26 64.333 -81.667 69 -167c4 -81.333 -9 -152.333 -39 -213c-18 -37.333 -70.333 -89.666 -157 -156.999
c-57.333 -44.667 -119.666 -85.334 -186.999 -122.001c136.667 -102.667 221 -194.334 253 -275.001z" />
    <glyph glyph-name="equal" unicode="=" horiz-adv-x="1511" 
d="M471 294c62.667 66.667 137.333 84.665 224 53.998c36.667 -12.667 69.667 -32.667 99 -60s50 -57.333 62 -90c1.33301 -2 6 -22 14 -60c5.33301 -23.333 13 -38 23 -44c29.333 -16.667 59.333 -17.667 90 -3c28 13.333 47.333 33.333 58 60
c-66.667 78 -162.334 141.333 -287.001 190c-141.333 54.667 -261.666 61.334 -360.999 20.001c5.33301 -33.333 31.333 -55.666 78 -66.999zM239.999 599.998c6 -38 38.6641 -59.334 97.9971 -64.001c18 -1.33301 45.667 -1.33301 83 0c40.667 2 69.334 2.66699 86.001 2
c70 -2.66699 186 -12.667 348 -30c156 -17.333 267.333 -26.333 334 -27c24.667 23.333 45.667 52.333 63 87c20 42.667 27 80.334 21 113.001c0.666992 4 -0.666016 6 -3.99902 6c-95.333 -14.667 -225.666 -25 -390.999 -31c-218 -7.33301 -350.333 -13 -397 -17
c-130 -10 -210.333 -23 -241 -39zM1216 230.997c10 -20.667 15.6641 -39.0039 16.9971 -55.0039c8 -70.667 -11 -131.667 -57 -183c-41.333 -46 -96.666 -76.333 -165.999 -91c-68 -14.667 -131.333 -10.667 -190 12c-64 24.667 -107.333 67.334 -130 128.001
c-0.666992 1.33301 -4 22.333 -10 63c-3.33301 24.667 -15 44.334 -35 59.001c-46 -27.333 -85 -45.666 -117 -54.999c-44.667 -12.667 -88.667 -12.334 -132 0.999023c-56 16 -103 48 -141 96c-38.667 48.667 -58.667 101.334 -60 158.001
c-41.333 16 -75.666 44.333 -102.999 85c-26 38.667 -41 81.334 -45 128.001c-4 48.667 4.66699 92.334 26 131.001c23.333 42.667 59.333 73 108 91c32.667 12 120.334 23.667 263.001 35c62 4.66699 154.333 8.33398 277 11.001c135.333 2 228 4.66699 278 8
c18 0.666992 69.333 8 154 22c60.667 10 109.667 11.667 147 5c76 -12.667 127.333 -51 154 -115c24 -56.667 25.667 -123.667 5 -201c-19.333 -74 -53 -137.667 -101 -191c-52 -56.667 -107.333 -85.334 -166 -86.001c3.33301 -12.667 11.333 -31.334 24 -56.001z" />
    <glyph glyph-name="greater" unicode="&#x3e;" horiz-adv-x="1628" 
d="M1164 694c-142.667 77.333 -298.335 125.669 -467.002 145.002c-198.667 22 -354 -8.66699 -466 -92c2 -10 7.33301 -19.667 16 -29c11.333 -12.667 18 -20.667 20 -24c154.667 33.333 310 32.666 466 -2.00098c145.333 -31.333 265.666 -85.333 360.999 -162
c-41.333 -12.667 -99.666 -25.667 -174.999 -39c-90.667 -16 -150.667 -27.667 -180 -35c-136 -32.667 -225 -86.334 -267 -161.001c26.667 -35.333 56 -53 88 -53c18.667 52 58.334 87.667 119.001 107c47.333 14.667 114.333 21.334 201 20.001c24 -0.666992 62 -2 114 -4
c50 -2.66699 87.667 -4 113 -4c86 -1.33301 152 6 198 22c16.667 32 27 67.333 31 106c4.66699 45.333 -1.66602 82.333 -18.999 111c-6.66699 11.333 -57.667 42.666 -153 93.999zM1571 452.003c-20.667 -5.33301 -32.998 -8.66992 -36.998 -10.0029
c-4 -127.333 -58.667 -209.666 -164 -246.999c-64.667 -23.333 -194 -35 -388 -35h-217c-13.333 -4 -27 -17 -41 -39c-17.333 -25.333 -31 -41.666 -41 -48.999c-38 -26.667 -81.333 -39 -130 -37c-42.667 1.33301 -86 14 -130 38c-41.333 22 -76.333 49.667 -105 83
c-29.333 34 -46.333 66.667 -51 98c-9.33301 53.333 -2.66602 101.666 20.001 144.999c13.333 25.333 39.666 59 78.999 101c-63.333 -21.333 -123.333 -18.666 -180 8.00098c-51.333 24 -91.666 63 -120.999 117c-28.667 52.667 -39.667 106.667 -33 162
c7.33301 59.333 34.666 106.666 81.999 141.999c50 36.667 123.333 65.334 220 86.001c57.333 12 144.333 24.333 261 37c123.333 13.333 283.666 -18 480.999 -94c187.333 -72 312.666 -138.333 375.999 -199c46.667 -45.333 76 -127.666 88 -246.999
c4 -9.33301 13.667 -18 29 -26c19.333 -10 31 -17 35 -21c-6.66699 -4.66699 -17.667 -9 -33 -13z" />
    <glyph glyph-name="question" unicode="?" horiz-adv-x="1716" 
d="M739 -88c14 -6 35.332 -13.334 63.999 -22.001c30.667 -9.33301 52.334 -16.666 65.001 -21.999c27.333 24 37.333 49.667 30 77c-6.66699 24 -24.667 45.333 -54 64c-28.667 18 -59 28.333 -91 31c-35.333 2.66699 -63 -5.33301 -83 -24
c0.666992 -47.333 23.667 -82 69 -104zM1413 670.999c17.333 92.667 20.998 193.669 10.998 303.002s-31.333 203.333 -64 282c-36 85.333 -79.667 136.666 -131 153.999c-61.333 20.667 -129.333 14.334 -204 -18.999c-32 -14.667 -86.667 -48.334 -164 -101.001
c-157.333 -107.333 -301.333 -227.666 -432 -360.999c-57.333 -58.667 -90.333 -93.667 -99 -105c-36.667 -46.667 -53 -89.667 -49 -129c28.667 -2 57.334 10.667 86.001 38c8.66699 8 20.334 20.667 35.001 38l34 38c222 221.333 399 327.333 531 318
c49.333 -3.33301 88.333 -30.333 117 -81c25.333 -44.667 39.333 -101.667 42 -171c2 -66.667 -7 -129.334 -27 -188.001c-21.333 -62.667 -51.333 -107 -90 -133c-34 -23.333 -91.667 -40.333 -173 -51c-86.667 -12 -149.334 -28 -188.001 -48
c-7.33301 -44.667 2.33398 -148.334 29.001 -311.001c105.333 -20 171.333 -29.667 198 -29c2 22 3.66699 64 5 126c1.33301 54 4.33301 94.667 9 122c110 -5.33301 194 -3 252 7c76 12.667 136 41 180 85c43.333 43.333 74 115.333 92 216zM1131 25.001
c12.667 -41.333 19.333 -70.334 20 -87.001c1.33301 -85.333 -26 -159 -82 -221c-56 -62.667 -123 -95 -201 -97c-62 -2 -134 16.667 -216 56c-76.667 36.667 -129.667 74.667 -159 114c-28.667 37.333 -46.334 81.333 -53.001 132c-2.66699 20.667 -4 73.334 -4 158.001
c0 32.667 -9.33301 94.667 -28 186c-16 79.333 -20.667 142.333 -14 189c-52 -18.667 -105 -20.334 -159 -5.00098c-52 14.667 -96.667 42.334 -134 83.001c-38.667 41.333 -63.667 88.666 -75 141.999c-11.333 58.667 -4.33301 117.334 21 176.001
c18 42 86.333 122.333 205 241c324 323.333 583.333 509.333 778 558c221.333 55.333 390.666 -15 507.999 -211c94.667 -158 142.334 -363.333 143.001 -616c0.666992 -200.667 -48.666 -364.667 -147.999 -492c-100.667 -128.667 -237.667 -200.667 -411 -216
c-4.66699 -25.333 -1.66699 -55.333 9 -90z" />
    <glyph glyph-name="at" unicode="@" horiz-adv-x="2019" 
d="M872 638c-38 -22 -69.668 -56.334 -95.001 -103.001c-23.333 -45.333 -34.666 -89.666 -33.999 -132.999c0 -46.667 14.333 -79.667 43 -99c38 -26 88.667 -29 152 -9c52.667 16 93 38.667 121 68c1.33301 19.333 10 52.333 26 99c13.333 38.667 17.666 70.667 12.999 96
c-3.33301 18 -16.666 37.333 -39.999 58c-19.333 16.667 -36.666 28 -51.999 34c-46.667 18 -91.334 14.333 -134.001 -11zM1396 63.999c-66.667 7.33301 -129.997 28.9941 -189.997 64.9941s-104 79.333 -132 130c-62.667 -24.667 -134.667 -38 -216 -40
c-92.667 -2 -158.667 14.667 -198 50c-53.333 47.333 -68 123.666 -44 228.999c10 46 35.667 90.667 77 134c40.667 43.333 88 77.333 142 102c57.333 26 112.333 36.333 165 31c58.667 -6 107.667 -31.667 147 -77c3.33301 49.333 11.333 83.666 24 102.999
c46 22 86.667 28.333 122 19c-14.667 -126.667 -39 -261.334 -73 -404.001c-18 -74.667 -24.333 -122 -19 -142c7.33301 -30.667 32.666 -53.667 75.999 -69c39.333 -14.667 75.666 -17.667 108.999 -9c94 24.667 146 151.334 156 380.001c13.333 310 -77.667 466 -273 468
c-131.333 2 -294 -50 -488 -156c-171.333 -93.333 -280 -198.666 -326 -315.999c-28 -71.333 -31.667 -146.666 -11 -225.999c20 -80 57.667 -134.667 113 -164c36 -19.333 91.333 -31 166 -35c100 -4.66699 161.667 -9.33398 185 -14.001
c26 -5.33301 76.333 -21.666 151 -48.999l34 -11c14.667 -4 26.334 -7.66699 35.001 -11c26.667 -11.333 46 -26.666 58 -45.999c-24.667 -12.667 -53.334 -10.667 -86.001 6c-8.66699 4.66699 -22.334 13 -41.001 25c-16.667 10.667 -29.667 18.334 -39 23.001
c-68 31.333 -133 47.333 -195 48c-29.333 0.666992 -68 -3.33301 -116 -12c-47.333 -8.66699 -83.333 -12.667 -108 -12c-97.333 0.666992 -174.666 35.334 -231.999 104.001c-54.667 65.333 -79.667 146 -75 242c8.66699 177.333 143.667 346.333 405 507
c79.333 48.667 181.666 99 306.999 151c156 64.667 271.333 100.334 346 107.001c134 12.667 228 -29.666 282 -126.999c54.667 -97.333 83 -241.666 85 -432.999c2 -194 -24.667 -340.333 -80 -439s-136.333 -142.667 -243 -132zM1577 1331.99
c-70.667 26.667 -147.333 36.333 -230 29c-119.333 -11.333 -262.333 -52 -429 -122c-128.667 -54 -247.334 -117.333 -356.001 -190c-294.667 -196.667 -441 -412.667 -439 -648c1.33301 -128.667 40.666 -238.334 117.999 -329.001
c78.667 -92 179.334 -143.333 302.001 -154c38.667 -3.33301 87.667 -0.333008 147 9c60.667 10 110.667 13.667 150 11c40.667 -3.33301 97.334 -27 170.001 -71c64.667 -38.667 125 -54 181 -46c22 2.66699 48 16.667 78 42c29.333 24.667 52 38.334 68 41.001
c13.333 1.33301 34 -0.333984 62 -5.00098c28.667 -5.33301 52 -7 70 -5c88.667 7.33301 165 41.333 229 102c120 113.333 184 312 192 596c8 280.667 -41.333 488.334 -148 623.001c-42 52 -97 91 -165 117z" />
    <glyph glyph-name="A" unicode="A" horiz-adv-x="1290" 
d="M995 485c-108 299.333 -214.669 534.667 -320.002 706c-25.333 -86 -60.666 -193.667 -105.999 -323c-62 -177.333 -98.667 -283.333 -110 -318c132.667 14 311.334 -7.66699 536.001 -65zM1210 -56.999c-44 -69.333 -89.3311 -98.001 -135.998 -86.001
c-24 5.33301 -41 30.333 -51 75c-12.667 54.667 -24 88.334 -34 101.001c28 32.667 47.667 74.667 59 126c12 56.667 9.66699 110.667 -7 162c-184.667 106 -387.334 149.667 -608.001 131c-7.33301 -18 -12.333 -67.333 -15 -148c-2 -55.333 -21 -91 -57 -107
c-86.667 57.333 -118.334 158 -95.001 302c4.66699 32 40.667 153.667 108 365c8 26.667 20.667 63.334 38 110.001l40 112c49.333 144 75.666 218.333 78.999 223c16 20 58.333 45.667 127 77c64 29.333 113 47 147 53c13.333 2.66699 24.333 2.66699 33 0
c20.667 -6 66.334 -97.333 137.001 -274l60 -155l52 -140c118 -310 181 -519 189 -627c3.33301 -44.667 3.33301 -84 0 -118c-6 -60.667 -28 -121.334 -66 -182.001zM1172 1289c-59.333 145.333 -101.998 235.334 -127.998 270.001
c-64.667 87.333 -153 123.666 -265 108.999c-61.333 -7.33301 -138.333 -34 -231 -80c-94.667 -47.333 -159.334 -92.333 -194.001 -135c-37.333 -47.333 -73.333 -124 -108 -230c-8.66699 -27.333 -23 -75.333 -43 -144c-18 -64 -33 -114 -45 -150
c-90.667 -273.333 -134.334 -456.333 -131.001 -549c3.33301 -91.333 26.333 -173.333 69 -246c42.667 -73.333 96 -122.333 160 -147c90 -34 173 -23 249 33c58 42.667 108 108 150 196c75.333 -14.667 123.333 -27.667 144 -39
c-44.667 -74.667 -46.334 -173.334 -5.00098 -296.001c40 -117.333 94 -193 162 -227c89.333 -44.667 182.333 -40.667 279 12c76.667 42 138.334 101.333 185.001 178c86 140.667 107.333 321.667 64 543c-20.667 106.667 -79 287.334 -175 542.001z" />
    <glyph glyph-name="B" unicode="B" horiz-adv-x="1596" 
d="M688 183c49.333 6.66699 88.335 8.99805 117.002 6.99805c22 -1.33301 68 -14.666 138 -39.999c78.667 -27.333 136 -44.666 172 -51.999c138 -28 195.333 25.667 172 161c-18.667 111.333 -102.334 190.333 -251.001 237c-140.667 44.667 -282 46 -424 4
c9.33301 -95.333 34.666 -201 75.999 -317zM1165 1026c-21.333 104.667 -77 151.999 -167 141.999c-67.333 -7.33301 -149.333 -37.666 -246 -90.999c-27.333 -14.667 -65 -36.667 -113 -66c-46 -28 -78 -46.667 -96 -56c28 -186 44 -298.667 48 -338
c20.667 8 117 25 289 51c123.333 18 204 53.667 242 107c48.667 69.333 63 153 43 251zM1221 -101.003c-32.667 17.333 -81.999 51.0039 -147.999 101.004c-62 47.333 -111.333 79.333 -148 96c-57.333 26.667 -115.666 35 -174.999 25c-12 -2 -30.333 -10.667 -55 -26
c-23.333 -14.667 -41.666 -22 -54.999 -22c-50 0 -102 43 -156 129c-40.667 65.333 -71.334 132.666 -92.001 201.999c-6.66699 21.333 -24 99.666 -52 234.999c-18.667 94 -42.667 164.667 -72 212c124.667 146.667 345 303 661 469c84 44 149 73 195 87
c90 27.333 160.333 23.333 211 -12c63.333 -43.333 101 -141.333 113 -294c11.333 -154 -10.334 -274 -65.001 -360c-34.667 -56 -94.334 -99.667 -179.001 -131c258.667 -114.667 387.334 -284.334 386.001 -509.001c0 -62.667 -18.333 -117.334 -55 -164.001
c-38 -48 -84 -73.667 -138 -77c-58.667 -4 -117.334 9 -176.001 39zM1683 981.001c9.33301 122 -2.33203 234.995 -34.999 338.995c-34.667 111.333 -89 197 -163 257c-81.333 66.667 -179.333 95.667 -294 87c-103.333 -7.33301 -216.333 -42.333 -339 -105
c-54 -27.333 -157 -88.666 -309 -183.999c-36.667 -23.333 -128.334 -87.666 -275.001 -192.999c-134 -96 -210 -176.333 -228 -241c-12.667 -48 -11.334 -98.333 3.99902 -151c4.66699 -14.667 12.334 -36 23.001 -64c10.667 -27.333 18 -47.666 22 -60.999
c106 -358.667 158.667 -537.667 158 -537c60.667 -111.333 139 -193.666 235 -246.999c115.333 -64.667 227.666 -65 336.999 -1c210 -131.333 325.667 -201.666 347 -210.999c154 -67.333 295.333 -68 424 -2c84 42.667 145.667 108 185 196c36 80 51 171.333 45 274
c-12 214 -86.333 383.333 -223 508c48.667 101.333 77.334 213.333 86.001 336z" />
    <glyph glyph-name="C" unicode="C" horiz-adv-x="1426" 
d="M1244 1460c-171.333 -25.333 -357.673 -111.336 -559.006 -258.003c-195.333 -142.667 -327.666 -284.667 -396.999 -426c-48 -99.333 -57.667 -199.666 -29 -300.999c28 -97.333 83 -167.666 165 -210.999c36 -18.667 106 -39 210 -61
c98.667 -21.333 170.334 -46.333 215.001 -75c27.333 -16.667 87 -68 179 -154c96 -88.667 164 -131.667 204 -129c27.333 1.33301 52.333 15 75 41c22.667 25.333 30.334 48.666 23.001 69.999c-4.66699 14.667 -29 30.334 -73 47.001c-7.33301 2.66699 -26.333 9 -57 19
c-24 8 -42.333 14.667 -55 20c-64 28 -125.667 59 -185 93c-27.333 16 -87.666 45.333 -180.999 88c-75.333 35.333 -132 67 -170 95c-116.667 84 -166 205.667 -148 365c13.333 121.333 88 238 224 350c130 106.667 261 167 393 181c54.667 5.33301 106.334 0 155.001 -16
c96 -31.333 143 -46.666 141 -45.999c20.667 28 34.667 73 42 135c7.33301 66 1.33301 113.667 -18 143c-21.333 32 -72.666 42 -153.999 30zM1463.99 1638c63.333 -29.333 107.332 -69.9951 131.999 -121.995c54 -115.333 58.667 -238 14 -368
c-46 -133.333 -122.667 -204 -230 -212c-32 -2 -72 6.66699 -120 26c-52.667 22 -93 34 -121 36c-94 6 -200.667 -39.333 -320 -136c-55.333 -44.667 -93.666 -83.334 -114.999 -116.001c-34.667 -54.667 -43.667 -114.667 -27 -180c10 -40 45.667 -75 107 -105
c17.333 -8.66699 44.333 -20.334 81 -35.001c36 -14 61.667 -24.667 77 -32c29.333 -14.667 76.333 -41.667 141 -81c58 -34.667 103.333 -59.334 136 -74.001c21.333 -8.66699 56 -21.334 104 -38.001c42 -14.667 73 -27.334 93 -38.001
c64 -31.333 105.333 -79.666 124 -144.999c28.667 -99.333 6 -190 -68 -272c-68.667 -76.667 -148.667 -115.667 -240 -117c-97.333 -2 -195.666 43 -294.999 135c-128 118.667 -206.333 184.667 -235 198c-34 15.333 -78.333 28.666 -133 39.999
c-68.667 14 -110.667 23.333 -126 28c-166 50.667 -286.333 154 -361 310c-81.333 170 -76.333 348.333 15 535c130 264 389 492 777 684c144.667 71.333 272 110.333 382 117c75.333 4.66699 144.666 -8 207.999 -38z" />
    <glyph glyph-name="D" unicode="D" horiz-adv-x="1962" 
d="M823 1079c-30.667 -14.667 -75.667 -37.332 -135 -67.999l-140 -71c14 -47.333 43.333 -185.666 88 -414.999c34 -172.667 74.333 -300.667 121 -384c82.667 31.333 199 26 349 -16c148 -40.667 258.333 -45.334 331 -14.001c106 45.333 158.333 179.666 157 402.999
c-1.33301 188.667 -36.666 342 -105.999 460c-84.667 143.333 -208.667 207 -372 191c-90.667 -9.33301 -188.334 -38 -293.001 -86zM1466 -102.998c-48 12 -111.665 40.0039 -190.998 84.0039c-88 48 -151.667 79 -191 93c-74 25.333 -145.667 30 -215 14
c-20.667 -4.66699 -48 -20 -82 -46c-30 -24 -55 -36 -75 -36c-47.333 -0.666992 -100 38.666 -158 117.999c-40.667 55.333 -75.334 115.666 -104.001 180.999c-24.667 58 -57 156.333 -97 295c-34 116 -68.667 204.667 -104 266c82.667 82 247 189 493 321
c262.667 141.333 457 218.666 583 231.999c167.333 17.333 297 -37.667 389 -165c115.333 -160 183.666 -398 204.999 -714c10.667 -157.333 -1 -289 -35 -395c-39.333 -122.667 -106 -201.334 -200 -236.001c-72 -26.667 -144.667 -30.667 -218 -12zM1898 1446.01
c-143.333 178 -339.334 253.669 -588.001 227.002c-140 -15.333 -282 -55.333 -426 -120c-230 -103.333 -456.667 -230.333 -680 -381c-144.667 -97.333 -217 -202 -217 -314c0 13.333 30 -66.334 90 -239.001c124 -358 196 -552.333 216 -583
c133.333 -199.333 278 -296.333 434 -291c39.333 0.666992 83 15.667 131 45c47.333 29.333 83.333 44 108 44c-7.33301 0 77.334 -39.667 254.001 -119c106.667 -48.667 204 -76.334 292 -83.001c282 -21.333 477.333 99.667 586 363c93.333 224 109.666 496.667 49 818
c-52.667 281.333 -135.667 492.333 -249 633z" />
    <glyph glyph-name="E" unicode="E" horiz-adv-x="1129" 
d="M1106 1269c15.333 24.667 24.001 57.332 26.001 97.999c1.33301 42.667 -5.33398 78.334 -20.001 107.001c-8 -3.33301 -13.667 -7 -17 -11c-73.333 -60.667 -183 -143 -329 -247c-158 -112.667 -271 -196 -339 -250c-6.66699 -5.33301 -24.334 -18 -53.001 -38l-64 -49
c-52.667 -42.667 -80.334 -78.334 -83.001 -107.001c-0.666992 -13.333 4.33301 -40.666 15 -81.999c14.667 -51.333 23 -84.666 25 -99.999c16.667 -103.333 28.334 -168.333 35.001 -195c15.333 -62.667 35.333 -117.667 60 -165c36 -68 75 -104.333 117 -109
c12 -1.33301 27.667 2 47 10c20.667 8.66699 35.334 13 44.001 13c54.667 2 107.667 -17.333 159 -58c40 -32.667 72.667 -72.334 98 -119.001c50.667 -94.667 73.334 -140.334 68.001 -137.001c25.333 -7.33301 51 -6.33301 77 3c27.333 10.667 41.666 27 42.999 49
c1.33301 14.667 -25.334 52.667 -80.001 114c-123.333 138.667 -254.666 207 -393.999 205c-25.333 68.667 -42.333 164 -51 286c128.667 22 315 3 559 -57c19.333 16.667 27 46 23 88c-4 36.667 -13.333 66.334 -28 89.001c-176 40 -364.333 34.333 -565 -17
c-17.333 163.333 -27 258.333 -29 285c5.33301 3.33301 171 100.333 497 291c100.667 58.667 153.667 93 159 103zM1134 774.998c95.333 -54 141.336 -150.002 138.003 -288.002c-2 -82.667 -28.333 -148 -79 -196c-56 -53.333 -128.667 -70 -218 -50
c9.33301 -12 38 -41.667 86 -89c42.667 -44 75 -81.333 97 -112c70 -99.333 77.667 -194 23 -284c-44.667 -73.333 -121.334 -116 -230.001 -128c-114 -12 -197.333 23 -250 105c-93.333 146.667 -131.333 215.334 -114 206.001c-272.667 -58 -442 130.333 -508 565
c-1.33301 8 -4 29 -8 63c-2.66699 26 -5.66699 46.667 -9 62l-16 61c-7.33301 25.333 -12 46 -14 62c-6.66699 48 1.33301 92.667 24 134c26 48 100.333 120.333 223 217c9.33301 7.33301 176.666 129.333 501.999 366c20 14 45.667 35 77 63l75 66
c60.667 48 116.667 73.333 168 76c60.667 3.33301 111 -15 151 -55c35.333 -35.333 59.333 -83.666 72 -144.999c27.333 -132 6.33301 -244.333 -63 -337c-18 -23.333 -100 -76.333 -246 -159l-251 -149c165.333 10 288.666 -8 369.999 -54z" />
    <glyph glyph-name="F" unicode="F" horiz-adv-x="1273" 
d="M1218 1447c-77.333 -67.333 -199.336 -165.333 -366.003 -294l-387 -307c-7.33301 -6 -27.666 -21.667 -60.999 -47c-29.333 -22.667 -52.666 -41.667 -69.999 -57c-55.333 -48 -84 -88 -86 -120c-0.666992 -6.66699 2.66602 -21 9.99902 -43
c8.66699 -27.333 14 -46 16 -56c6 -30 17 -97.333 33 -202c12.667 -82 24.667 -145.667 36 -191c35.333 -136 96 -225 182 -267c56.667 20 87.334 31 92.001 33c-36.667 114 -58.667 235 -66 363c110.667 22 236.334 15 377.001 -21c31.333 -8 87.333 -24.333 168 -49
c66.667 -20.667 118.334 -34.667 155.001 -42c18.667 30.667 26.667 69.667 24 117c-2 48 -14.667 81.333 -38 100c-19.333 16.667 -96.333 32.334 -231 47.001c-174 19.333 -330 10.333 -468 -27c-4.66699 47.333 -15.667 170.666 -33 369.999
c-13.333 -9.33301 162.667 98.334 528 323.001c115.333 71.333 174.666 108.666 177.999 111.999c20 22 32.667 63 38 123c6 64 -2.33301 109 -25 135h-6zM1290 595c68.667 -22.667 122.996 -74.002 162.996 -154.002c38 -74.667 54.667 -155 50 -241
c-4.66699 -90.667 -32 -162 -82 -214c-57.333 -59.333 -136 -82.666 -236 -69.999c-39.333 4.66699 -97.666 23.667 -174.999 57c-74.667 32 -137.334 50.333 -188.001 55c49.333 -103.333 39 -196.666 -31 -279.999c-66 -76.667 -152.667 -115.334 -260 -116.001
c-94 -0.666992 -179 43 -255 131c-62 72.667 -111 165.334 -147 278.001c-22.667 69.333 -42.667 168.333 -60 297c-3.33301 24.667 -14 77.334 -32 158.001c-14.667 63.333 -21.334 109.666 -20.001 138.999c2.66699 82.667 43.334 162.667 122.001 240
c26 26 61.333 56 106 90l102 79c14 12 183.333 146.333 508 403c16.667 12.667 41.667 34.667 75 66c36 33.333 63 57.333 81 72c67.333 55.333 127.333 86.333 180 93c75.333 9.33301 138 -8.66699 188 -54c44.667 -40 75.334 -97 92.001 -171
c15.333 -69.333 16.333 -141 3 -215c-14 -76 -40 -138.333 -78 -187c-29.333 -37.333 -130.666 -107.666 -303.999 -210.999c-11.333 -7.33301 -65.666 -38.333 -162.999 -93c-64.667 -36 -118 -69 -160 -99c310.667 -22.667 484.334 -40.334 521.001 -53.001z" />
    <glyph glyph-name="G" unicode="G" horiz-adv-x="1553" 
d="M1360 1453c-90 -8 -214.001 -50.668 -372.001 -128.001c-138.667 -68.667 -246.334 -129.667 -323.001 -183c-154 -108.667 -269.333 -219.334 -346 -332.001c-120.667 -176 -121 -329.333 -1 -460c48 -52.667 141.667 -92 281 -118
c159.333 -29.333 269 -63.333 329 -102c34 -22 90.667 -72.667 170 -152c8.66699 -8.66699 22 -23.667 40 -45c17.333 -20.667 31 -36 41 -46c34 -33.333 70 -49.666 108 -48.999c55.333 0.666992 108.333 41.334 159 122.001c40 64 68.333 157.333 85 280
c24 176.667 18 282.334 -18 317.001c-13.333 12.667 -62.333 24.667 -147 36c-240.667 34 -405 44.333 -493 31c-12 -38.667 -10 -75.334 6 -110.001c30 -8.66699 101 -23.667 213 -45c90 -17.333 157 -36.666 201 -57.999c-17.333 -187.333 -47.666 -305.333 -90.999 -354
c-42.667 16 -100 43.667 -172 83c-78.667 42.667 -137.334 72 -176.001 88l-96 37c-40.667 15.333 -71.667 27.666 -93 36.999c-68 30.667 -118.667 67 -152 109c-58 73.333 -77.333 159.333 -58 258c16.667 81.333 54.334 155.666 113.001 222.999
c77.333 88.667 181.333 164.334 312 227.001c147.333 72 283 102 407 90c26.667 -2.66699 61.334 -11.667 104.001 -27c44 -16 78.333 -25.333 103 -28c18 30 31.333 72 40 126c9.33301 62 4.33301 107.333 -15 136c-21.333 32 -74.333 44.333 -159 37zM1208 830.999
c175.333 -18 295.997 -41.002 361.997 -69.002c108.667 -46 170.667 -126.667 186 -242c24.667 -175.333 2.33398 -356 -66.999 -542c-60.667 -164.667 -154 -274.334 -280 -329.001c-73.333 -32 -143 -37.333 -209 -16c-51.333 16 -106 50.667 -164 104
c-18.667 17.333 -42.667 41.666 -72 72.999l-70 72c-54 53.333 -101.667 87.333 -143 102c-40.667 14.667 -94 26.334 -160 35.001c-73.333 10.667 -121.666 19.334 -144.999 26.001c-136.667 38.667 -244.667 109.667 -324 213c-92.667 120 -122.667 260.333 -90 421
c26.667 132.667 90.667 255.334 192 368.001c72 79.333 180.667 170 326 272c304.667 213.333 572.667 329 804 347c110.667 8.66699 202 -11.666 274 -60.999c46.667 -31.333 80.334 -83 101.001 -155c19.333 -66.667 23.666 -138 12.999 -214
c-10.667 -78 -34.667 -143.333 -72 -196c-42 -58 -94.333 -91 -157 -99c-39.333 -4.66699 -80.666 1.33301 -123.999 18c-54 22 -92 34.333 -114 37c-77.333 9.33301 -156.333 -4.66699 -237 -42c-26 -12 -59.333 -30 -100 -54c-50 -30.667 -82 -49.667 -96 -57
c92.667 8 214.667 4 366 -12z" />
    <glyph glyph-name="H" unicode="H" horiz-adv-x="1417" 
d="M1164 1165c-2.66699 -202.667 1.33398 -382.999 12.001 -540.999c-238 26 -465.333 13 -682 -39c-33.333 192 -58 303 -74 333c-83.333 -33.333 -150.666 -80.333 -201.999 -141c8 -16 49.333 -140 124 -372c48.667 -150.667 118 -246.667 208 -288
c12.667 3.33301 25.667 11 39 23c16 15.333 27.333 24.666 34 27.999c-55.333 82 -91 185.333 -107 310c222 49.333 442 34.333 660 -45c-6.66699 -189.333 -29.334 -311.333 -68.001 -366c-9.33301 -14 -26 -28.333 -50 -43c-24.667 -16 -42 -30 -52 -42
c2.66699 -4 12.667 -35.333 30 -94c10.667 -36.667 27 -58 49 -64c48 -12 108.333 12.667 181 74c112 93.333 160.667 296 146 608c-24 504.667 -29.667 829.667 -17 975h-11c-8.66699 -5.33301 -26.334 -14.666 -53.001 -27.999
c-27.333 -14.667 -48.333 -26.334 -63 -35.001c-52 -30 -82.667 -57.667 -92 -83c-6 -16 -10 -72.667 -12 -170zM781.001 303.001c28.667 -38 41.0029 -81.6699 37.0029 -131.003c-2.66699 -46 -18.667 -89.667 -48 -131c-28.667 -41.333 -65 -72.666 -109 -93.999
c-46.667 -22.667 -95 -29.667 -145 -21c-112.667 19.333 -212 109.333 -298 270c-26.667 48.667 -52 118.334 -76 209.001c-29.333 110.667 -51 183.667 -65 219c-4.66699 12 -13.334 31.333 -26.001 58c-11.333 23.333 -19 41.666 -23 54.999
c-13.333 42 -10.333 85.333 9 130c20 45.333 69.667 96.333 149 153c79.333 56 146.333 87.667 201 95c83.333 10.667 147 -13 191 -71c36 -46.667 62.333 -122.667 79 -228c159.333 12 262.666 17.667 309.999 17c4 48.667 5 110.667 3 186
c-3.33301 110.667 -5 170.334 -5 179.001c0 134.667 25 231 75 289c49.333 56 113.666 103.667 192.999 143c101.333 50 185.333 58.667 252 26c62 -30.667 96.333 -85.667 103 -165c2 -27.333 1.66699 -67.333 -1 -120c-4 -68.667 -6 -114.667 -6 -138
c0 -83.333 5.33301 -211 16 -383c11.333 -178.667 17.333 -309 18 -391c1.33301 -300.667 -51.334 -516 -158.001 -646c-61.333 -75.333 -142.666 -130 -243.999 -164c-116.667 -39.333 -210 -28 -280 34c-42.667 38 -76.334 98.667 -101.001 182
c-27.333 90.667 -27.333 163.334 0 218.001c8 16.667 35.333 43.334 82 80.001c36.667 28.667 56.334 68 59.001 118c-66.667 15.333 -130.667 22.666 -192 21.999z" />
    <glyph glyph-name="I" unicode="I" horiz-adv-x="581" 
d="M512 785c-47.333 302 -64.334 527.002 -51.001 675.002c-2 0 -4 1 -6 3s-3.66699 3 -5 3c6 8 -35.333 -31.667 -124 -119c-54 -53.333 -87.333 -103.666 -100 -150.999c-8.66699 -32.667 -6.66699 -146.334 6 -341.001l13 -171c5.33301 -70 9 -124.667 11 -164
c18.667 -396.667 34.334 -612.334 47.001 -647.001c77.333 -54.667 142 -53.334 194 3.99902c44.667 49.333 70 124.333 76 225c9.33301 144 -11 371.667 -61 683zM75.999 -54.998c-19.333 104 -20.332 197.667 -2.99902 281c-13.333 95.333 -27 262 -41 500
c-16.667 290.667 -18.667 465 -6 523c12.667 54 63.667 134.333 153 241c96 113.333 176.333 174 241 182c52.667 6.66699 101 -3.66602 145 -30.999c40 -24 68.333 -56.667 85 -98c5.33301 -14.667 9 -81.334 11 -200.001c1.33301 -52.667 31 -309.334 89 -770.001
c34 -270.667 35.667 -478 5 -622c-44.667 -211.333 -158.334 -319.666 -341.001 -324.999c-68 -2 -152 23.667 -252 77c-39.333 67.333 -68 148 -86 242z" />
    <glyph glyph-name="J" unicode="J" horiz-adv-x="864" 
d="M518 -104c63.333 -54.667 126 -78.667 188 -72c92.667 10 143.667 102 153 276c8 138 -12.333 364.667 -61 680c-47.333 303.333 -64 527 -50 671c-2.66699 0 -5 1 -7 3c-2 1.33301 -3.66699 2.33301 -5 3c-30.667 -20 -74.667 -64.333 -132 -133
c-61.333 -74 -93.666 -125.667 -96.999 -155c-2 -14 7.66699 -204 29 -570c7.33301 -122.667 11.333 -218.667 12 -288c1.33301 -158 -16.334 -242 -53.001 -252c-28 -8 -72.667 3 -134 33c-58 28 -103.333 34.667 -136 20c5.33301 -32.667 22 -54 50 -64
c6 -2 19.667 -5.33301 41 -10c18 -4.66699 32.667 -9.66699 44 -15c18 -8 70.667 -50.333 158 -127zM315 778c-20 199.333 -22.666 349.337 -7.99902 450.004c7.33301 50.667 54.333 127 141 229c71.333 84 121 136.333 149 157c71.333 53.333 145 65.666 221 36.999
c34 -12.667 63.667 -35.334 89 -68.001c26.667 -34.667 42 -72.667 46 -114c1.33301 -15.333 0.666016 -35.666 -2.00098 -60.999c-2.66699 -30.667 -4 -55.334 -4 -74.001c1.33301 -53.333 30.666 -310 87.999 -770c34 -268 36.333 -473.667 7 -617
c-45.333 -216.667 -161 -326.334 -347 -329.001c-74 -1.33301 -138.667 13.334 -194 44.001c-24.667 13.333 -67.667 45.666 -129 96.999c-59.333 49.333 -90.666 74.666 -93.999 75.999c-16.667 8 -38.667 15 -66 21c-24 5.33301 -43.333 12.333 -58 21
c-101.333 60 -146.333 144 -135 252c8 76.667 43.333 131.667 106 165c60 31.333 132.333 37 217 17c4 86 -5 241.667 -27 467z" />
    <glyph glyph-name="K" unicode="K" horiz-adv-x="1254" 
d="M637 735c-76 -96 -127.333 -153.001 -154 -171.001c-8.66699 118.667 -27.667 246 -57 382c-82.667 -34 -154.667 -87 -216 -159c7.33301 -15.333 44.333 -141.666 111 -378.999c42.667 -154 110 -250 202 -288c7.33301 7.33301 18.333 15.333 33 24
c20 12 32 19.333 36 22c-40.667 66.667 -75 190 -103 370c124 -88 208.667 -152.667 254 -194c97.333 -90.667 155 -180 173 -268c2 -8 3 -21.667 3 -41c0.666992 -18 1.66699 -30.667 3 -38c24.667 -112 55 -169 91 -171c24 -1.33301 43 15 57 49
c12 29.333 17.667 62.333 17 99c-1.33301 93.333 -52.666 209 -153.999 347c-80.667 110.667 -160.334 200 -239.001 268c163.333 158 317.333 369 462 633c65.333 120 95.666 203.333 90.999 250c-77.333 -22 -143.333 -67.333 -198 -136
c-9.33301 -12 -53.666 -80.667 -132.999 -206c-82.667 -131.333 -175.667 -262.333 -279 -393zM1071 463.999c43.333 -56 76.9961 -102.668 100.996 -140.001c74.667 -116.667 113 -234 115 -352c1.33301 -96 -21 -176.333 -67 -241
c-48 -66.667 -111.333 -102.334 -190 -107.001c-95.333 -4.66699 -169 35 -221 119c-34.667 56.667 -63.334 144.334 -86.001 263.001c-15.333 -4.66699 -33.666 -13.667 -54.999 -27c-29.333 -18 -48 -29 -56 -33c-48 -24 -100.333 -28.667 -157 -14
c-107.333 28 -198.666 121 -273.999 279c-23.333 49.333 -45 120 -65 212c-24 110.667 -42 184.334 -54 221.001c-27.333 80.667 -41 120.667 -41 120c-10 47.333 -4 91 18 131c18 32.667 57 73.667 117 123c60.667 49.333 114.667 84.333 162 105c57.333 24 114 27 170 9
c56.667 -18.667 95 -54 115 -106c28 37.333 65.667 94 113 170c52.667 85.333 91.334 145 116.001 179c98 139.333 204 232 318 278c83.333 33.333 157.666 26.333 222.999 -21c66.667 -48.667 94.667 -119.667 84 -213c-6.66699 -63.333 -36 -140.333 -88 -231
c-16 -28 -38.333 -64.667 -67 -110c-31.333 -49.333 -51.666 -82 -60.999 -98c-95.333 -161.333 -184.666 -290.333 -267.999 -387c14.667 -21.333 47.334 -64.333 98.001 -129z" />
    <glyph glyph-name="L" unicode="L" horiz-adv-x="1306" 
d="M293 1154c25.333 -62 50.6631 -182.006 75.9961 -360.006c24 -168.667 51.667 -283.667 83 -345c19.333 -37.333 43.333 -71.666 72 -102.999c35.333 -39.333 67 -60.666 95 -63.999c12.667 -1.33301 30.334 2 53.001 10c24.667 8.66699 42.334 13 53.001 13
c74 0 143.667 -30.333 209 -91c52.667 -48.667 94.334 -107 125.001 -175l22 -73c8.66699 -29.333 21.334 -50.333 38.001 -63c34 -18 71 -19.667 111 -5c39.333 14.667 60.666 36.667 63.999 66c2.66699 28.667 -20.333 69.334 -69 122.001
c-14 14.667 -54.333 52.334 -121 113.001c-124 112.667 -260.333 178.334 -409 197.001c-24 106 -45 274.667 -63 506c-18 238.667 -37.667 408.334 -59 509.001c-125.333 -79.333 -218.666 -165 -279.999 -257zM1286 387.994c112 -106 183.668 -183.668 215.001 -233.001
c72.667 -114.667 82 -226.334 28 -335.001c-27.333 -54 -71.666 -98.667 -132.999 -134c-58.667 -33.333 -123 -52.666 -193 -57.999c-72.667 -6 -138.667 3.66699 -198 29c-64.667 28.667 -112.334 72.667 -143.001 132c-2.66699 4 -17 47.667 -43 131
c-15.333 48.667 -44 86 -86 112c-228.667 -54.667 -405.667 61.666 -531 348.999c-34 76.667 -60.667 179.334 -80 308.001c-26.667 179.333 -43 281 -49 305c-4 17.333 -10.333 39 -19 65c-9.33301 27.333 -15.333 47 -18 59c-10.667 44 -8.33398 88.667 6.99902 134
c21.333 64.667 81.333 142.667 180 234c92 85.333 171 141.333 237 168c70 28.667 141.667 28.334 215 -0.999023c71.333 -28.667 121 -74 149 -136c20 -44 40 -190.333 60 -439c24 -292.667 36.667 -444.334 38 -455.001c146.667 -65.333 268 -143.666 364 -234.999z" />
    <glyph glyph-name="M" unicode="M" horiz-adv-x="1987" 
d="M1671 1335c-38 -33.333 -85.002 -116.335 -141.002 -249.002c-13.333 -31.333 -32.333 -79 -57 -143c-25.333 -64 -44.333 -110.667 -57 -140c-108.667 -259.333 -206.667 -425.666 -294 -498.999c-195.333 278 -318 444.333 -368 499
c-71.333 76 -126.333 117.333 -165 124c-40 7.33301 -108 -11.334 -204 -56.001c-95.333 -44.667 -150 -77 -164 -97c10 -12 80 -136.333 210 -373c84 -150.667 182 -247.334 294 -290.001c10 6.66699 21 17.667 33 33c14 18.667 24 30.334 30 35.001
c-76 54.667 -142 150 -198 286c-15.333 38 -36.666 96.667 -63.999 176c-26 76.667 -46.333 132.334 -61 167.001c69.333 -35.333 167.333 -122 294 -260c16.667 -18 38.667 -44 66 -78c32.667 -41.333 54.667 -68.666 66 -81.999c53.333 -62 102 -103.333 146 -124
c42 -19.333 86.667 -29.666 134 -30.999c48 -1.33301 86.333 7.33398 115 26.001c56.667 35.333 109 97 157 185c23.333 43.333 59.666 125 108.999 245c21.333 50.667 55.333 137 102 259c41.333 106 73.666 186 96.999 240c-14.667 -82 -22.334 -200.667 -23.001 -356
c-1.33301 -198 -3.66602 -322.333 -6.99902 -373c-10 -133.333 -33 -237 -69 -311c-44.667 -91.333 -113.667 -149 -207 -173c4.66699 -78 25.334 -130.667 62.001 -158c216 21.333 350.667 168.666 404 441.999c6.66699 35.333 21.334 301.666 44.001 798.999
c1.33301 28 9 98.333 23 211c10 81.333 11.667 145 5 191c-14 8.66699 -34.667 6.66699 -62 -6c-153.333 -68 -236.666 -107.667 -249.999 -119zM962.998 82.998c-6.66699 -7.33301 -24.665 -29.333 -53.998 -66c-20.667 -26 -38.667 -45.333 -54 -58
c-44 -36.667 -100.333 -50 -169 -40c-64 8.66699 -136 46.334 -216 113.001c-65.333 54.667 -129.333 138 -192 250c-16 28.667 -41 76 -75 142c-30.667 60 -55 105 -73 135c-4.66699 8.66699 -18 28.667 -40 60c-18 26 -31.667 48 -41 66
c-27.333 56.667 -30.333 113 -9 169c22.667 60 90.667 116.667 204 170c108.667 50.667 174.667 79.667 198 87c86.667 26.667 166 26 238 -2c76.667 -30 159 -97.667 247 -203c27.333 -32.667 62 -77.667 104 -135c45.333 -62 75.666 -102.333 90.999 -121
c36.667 55.333 107.667 220.666 213 495.999c76.667 198.667 173.667 331.667 291 399c124 70.667 222.333 110.334 295 119.001c73.333 8.66699 135.666 -8.33301 186.999 -51c50.667 -42 79 -98.667 85 -170c2.66699 -32.667 -1.33301 -77.667 -12 -135
c-12.667 -76 -20 -125.333 -22 -148c-7.33301 -85.333 -13 -213.333 -17 -384c-4.66699 -166.667 -10.334 -289 -17.001 -367c-23.333 -269.333 -89.666 -465 -198.999 -587c-126.667 -142 -266.334 -210 -419.001 -204c-91.333 4 -160 48.667 -206 134
c-43.333 79.333 -57.666 174.666 -42.999 285.999c-46.667 -8.66699 -145 6.33301 -295 45z" />
    <glyph glyph-name="N" unicode="N" horiz-adv-x="1470" 
d="M1018 129c4 -14.667 9.66309 -41.666 16.9961 -80.999c7.33301 -40 13.666 -70 18.999 -90c18 -69.333 41.667 -110.333 71 -123c30 -13.333 68 -9 114 13c35.333 16 65.333 36 90 60c68.667 67.333 112 180 130 338c12 110.667 12.333 262.334 1 455.001
c-17.333 276.667 -21.333 478.667 -12 606c0.666992 10 3.33398 30 8.00098 60c4 26.667 6 46.667 6 60c1.33301 42 -12.667 56.667 -42 44c-76.667 -32.667 -139 -77.667 -187 -135c-15.333 -101.333 -16.666 -317.333 -3.99902 -648
c10.667 -274.667 -8.66602 -474.334 -57.999 -599.001c-68 265.333 -202 505.333 -402 720c-91.333 97.333 -165 148.333 -221 153c-32.667 2.66699 -65.667 -4.66602 -99 -21.999c4.66699 2 -22.666 -15.333 -81.999 -52c-4 -2.66699 -17.333 -10.334 -40 -23.001
c-19.333 -10.667 -34.666 -19.667 -45.999 -27c-36 -24.667 -54.667 -47.667 -56 -69c-0.666992 -10.667 5.33301 -27.667 18 -51c16.667 -30 25.667 -47 27 -51c11.333 -31.333 28 -85.666 50 -162.999c20.667 -70.667 38 -124.334 52 -161.001
c46 -118 110.333 -195 193 -231c12.667 2 25.334 10 38.001 24c14 15.333 25.667 24.333 35 27c-48.667 63.333 -87.334 163.333 -116.001 300c-2.66699 13.333 -13.667 71.666 -33 174.999c-13.333 71.333 -26 128.333 -38 171c110.667 -62.667 220.334 -161 329.001 -295
c135.333 -166.667 214.666 -295 237.999 -385zM767.996 22.001c-23.333 -26.667 -43.9971 -46.668 -61.9971 -60.001c-54.667 -40.667 -118.667 -53 -192 -37c-57.333 12.667 -116 48.667 -176 108c-64 62.667 -116.667 147.667 -158 255
c-14 35.333 -30.667 87.666 -50 156.999c-20 72.667 -35.667 124 -47 154c-3.33301 10 -12 31.333 -26 64c-10.667 25.333 -18.334 45.666 -23.001 60.999c-12.667 46.667 -9.33398 92 9.99902 136c41.333 95.333 152.666 184 333.999 266
c126 56.667 252.333 41.334 379 -45.999c70 -47.333 159 -137.666 267 -270.999c4.66699 49.333 3.66699 158.333 -3 327c-5.33301 124 5 217 31 279c23.333 56 71 109 143 159c62.667 43.333 130 75.333 202 96c58 16 114 6.66699 168 -28c52 -33.333 83 -77 93 -131
c4.66699 -27.333 4 -68 -2 -122c-9.33301 -75.333 -14.333 -121.333 -15 -138c-4 -90.667 -1.66699 -209.667 7 -357c12 -214 18.333 -334.333 19 -361c8.66699 -282 -24.666 -492 -99.999 -630c-40 -74 -92 -135.333 -156 -184c-67.333 -52 -138 -81.333 -212 -88
c-114.667 -11.333 -204.667 31.334 -270 128.001c-52.667 78 -87.334 186.333 -104.001 325c-5.33301 -5.33301 -24.333 -26 -57 -62z" />
    <glyph glyph-name="O" unicode="O" horiz-adv-x="1933" 
d="M848 1050c-98 -52 -175.668 -113.001 -233.001 -183.001c-70.667 -86.667 -102 -196 -94 -328c8.66699 -135.333 56.334 -235.333 143.001 -300c27.333 -20 147.333 -57.333 360 -112c225.333 -58.667 347.333 -87 366 -85c155.333 16.667 233 162.334 233 437.001
c0 209.333 -28.667 371.333 -86 486c-72 145.333 -186.667 209 -344 191c-122 -14 -237 -49.333 -345 -106zM1279 -58.001c-143.333 85.333 -232.998 132.665 -268.998 141.998c-54.667 14.667 -146.334 23.334 -275.001 26.001c-107.333 2 -187.333 17 -240 45
c-82.667 44 -145.667 112.667 -189 206c-46.667 102.667 -54.334 208 -23.001 316c52.667 178.667 238.334 354.667 557.001 528c220.667 120.667 411.334 189 572.001 205c133.333 13.333 238.333 -29.667 315 -129c53.333 -69.333 98.666 -179 135.999 -329
c61.333 -246 77.666 -473.333 48.999 -682c-36 -263.333 -144 -402.666 -324 -417.999c-92.667 -8 -195.667 22 -309 90zM1718 1603c-94 44 -195.998 62.001 -305.998 54.001c-122 -9.33301 -258.333 -44.666 -409 -105.999c-438.667 -178 -732.667 -392 -882 -642
c-67.333 -112.667 -101 -231.334 -101 -356.001c0 -114.667 28 -224 84 -328c53.333 -100.667 125.666 -183.667 216.999 -249c93.333 -66.667 193.666 -105.667 300.999 -117c25.333 -2.66699 75 -2.33398 149 0.999023c65.333 2.66699 119 0 161 -8
c48 -10 117 -42.667 207 -98c98 -60 172.333 -98 223 -114c147.333 -45.333 287 -39.333 419 18c122.667 52.667 215.667 138.334 279 257.001c102 191.333 136.333 452 103 782c-32 317.333 -108.667 559.666 -230 726.999c-56 78 -127.667 137.667 -215 179z" />
    <glyph glyph-name="P" unicode="P" horiz-adv-x="1641" 
d="M806 1019c-14.667 -8.66699 -54.668 -34.334 -120.001 -77.001c-46 -30 -82.667 -51.667 -110 -65c7.33301 -47.333 17.333 -125.333 30 -234c12 -102 22.333 -179.667 31 -233c34 9.33301 139 19.333 315 30c124 7.33301 212.333 37.333 265 90
c36 36.667 61.667 89 77 157c14.667 65.333 16.334 131.333 5.00098 198c-11.333 70.667 -35 126.667 -71 168c-40.667 46.667 -92 68.334 -154 65.001c-76.667 -4 -166 -37 -268 -99zM1124 269c-242 16.667 -397.001 18.3311 -465.001 4.99805
c2 -91.333 32.333 -201.666 91 -330.999c-11.333 -8 -26.333 -17 -45 -27l-46 -26c-108.667 42 -187 142.333 -235 301c-15.333 48.667 -33 122.334 -53 221.001c-21.333 108.667 -38.333 185.667 -51 231c-2.66699 10.667 -10.667 31.667 -24 63
c-9.33301 24 -14 40.667 -14 50c2.66699 31.333 30 68 82 110c16.667 14 39.334 31 68.001 51c36 24.667 56.667 39 62 43c193.333 143.333 359 253.666 497 330.999c90 50.667 156.333 83.667 199 99c92.667 32.667 172 35 238 7
c73.333 -31.333 128.666 -113.666 165.999 -246.999c30 -106 45 -227 45 -363c0 -83.333 -12 -164 -36 -242c-25.333 -81.333 -58.666 -141.333 -99.999 -180c-80 -76 -206.333 -108 -379 -96zM1240 1668c-125.333 -19.333 -248.665 -63.9961 -369.998 -133.996
c-35.333 -20 -148.333 -95.667 -339 -227c-194.667 -134.667 -291.334 -201.334 -290.001 -200.001c-102.667 -80.667 -169.334 -160 -200.001 -238c-20 -51.333 -24.667 -104 -14 -158c3.33301 -16.667 10 -41.334 20 -74.001c12 -37.333 20 -65.333 24 -84
c94.667 -384.667 162.667 -608.334 204 -671.001c41.333 -63.333 91.333 -118 150 -164c78.667 -62 156.667 -92.667 234 -92c98 1.33301 185 39.666 261 114.999c80.667 80 111.667 169.667 93 269c299.333 -23.333 518 27 656 151c85.333 76.667 148 187.667 188 333
c37.333 135.333 50.333 281.333 39 438s-45 296 -101 418c-60 131.333 -137 222.333 -231 273c-92.667 49.333 -200.667 64.333 -324 45z" />
    <glyph glyph-name="Q" unicode="Q" horiz-adv-x="1608" 
d="M682 1139c-111.333 -68 -183.668 -140.334 -217.001 -217.001c-30.667 -70 -37 -146.333 -19 -229c16.667 -78.667 50.334 -143 101.001 -193c48 -48 163.667 -85.333 347 -112c166 -24.667 273.333 -26.667 322 -6c84 35.333 131 131.333 141 288
c12 178 -6 318.667 -54 422c-59.333 126.667 -158.666 181.667 -297.999 165c-108.667 -13.333 -216.334 -52.666 -323.001 -117.999zM1510 -123.001c-7.33301 -24.667 -32 -42.998 -74 -54.998c-43.333 -12.667 -81.333 -10 -114 8
c14.667 171.333 -30.333 314.333 -135 429c-276 50.667 -413 76 -411 76c-200 10.667 -331 40 -393 88c-51.333 40 -92 96.333 -122 169c-34.667 86 -41 168.667 -19 248c36 128.667 163 259.667 381 393c222.667 136 406.667 210.667 552 224
c139.333 12 241.333 -37 306 -147c86.667 -148 125.667 -349.667 117 -605c-4.66699 -126 -26 -228 -64 -306c-43.333 -90.667 -106 -141.334 -188 -152.001c2 -16 14.667 -40.667 38 -74c31.333 -44.667 51.666 -76.667 60.999 -96
c52.667 -102.667 74.334 -169.334 65.001 -200.001zM1424 1619c-86.667 36 -177.331 48.335 -271.998 37.002c-238.667 -28.667 -479.334 -128.334 -722.001 -299.001c-121.333 -85.333 -212.333 -167 -273 -245c-89.333 -114 -133.333 -238 -132 -372
c1.33301 -208 85.333 -372.333 252 -493c86 -62 209.333 -99 370 -111c142.667 -11.333 217 -17.333 223 -18c114.667 -17.333 181.334 -33 200.001 -47c28.667 -21.333 43 -67.333 43 -138c0 -88.667 5 -146.334 15 -173.001c36.667 -96.667 120.667 -146 252 -148
c125.333 -1.33301 219.666 36.334 282.999 113.001c81.333 99.333 69.333 246 -36 440c119.333 127.333 177.333 337.333 174 630c-2.66699 289.333 -62.334 513.666 -179.001 672.999c-48.667 66 -114.667 116.333 -198 151z" />
    <glyph glyph-name="R" unicode="R" horiz-adv-x="1365" 
d="M897 1204c-60.667 -7.33301 -132.333 -34.333 -215 -81c-21.333 -12 -54.333 -31.667 -99 -59c-40 -24.667 -70 -42 -90 -52c9.33301 -38.667 18.666 -91.667 27.999 -159c12 -84.667 20 -138.667 24 -162c28.667 8.66699 71.334 16.667 128.001 24
c81.333 10 130 16.333 146 19c118 20.667 195.333 57.667 232 111c32 46 46.333 106.333 43 181c-4 76 -24.667 129 -62 159c-26 20 -71 26.333 -135 19zM1274 262c41.333 -148 33.334 -263.666 -23.999 -346.999c-34 -48.667 -68.333 -70 -103 -64
c-16.667 3.33301 -36 30 -58 80c-20 44.667 -30.333 78 -31 100c-0.666992 11.333 3 34.666 11 69.999c8 34 10.667 64 8 90c-13.333 140 -62.333 247.667 -147 323c-96 86 -218 106.667 -366 62c12 -123.333 46.333 -236.666 103 -339.999
c-8.66699 -4.66699 -21.667 -13.334 -39 -26.001c-15.333 -12 -28 -20.667 -38 -26c-94.667 36.667 -165 124.667 -211 264c-14 42 -30.667 105 -50 189c-20 88.667 -35.667 151.667 -47 189c-1.33301 3.33301 -9.33301 20 -24 50c-10.667 22.667 -15.667 40 -15 52
c2.66699 22 25.667 49.667 69 83c-4 -3.33301 31 20.334 105 71.001c299.333 205.333 508.666 323 627.999 353c95.333 23.333 172 3.33301 230 -60c51.333 -56.667 80.666 -137 87.999 -241c6.66699 -100 -8 -194 -44 -282c-39.333 -94.667 -94.333 -157 -165 -187
c-2 -0.666992 -47 -11.334 -135 -32.001c56.667 -37.333 93 -65 109 -83c62.667 -68 111.334 -164 146.001 -288zM799.002 1582c-34 -17.333 -129.331 -75.001 -285.998 -173.001c-185.333 -115.333 -277.333 -172.666 -276 -171.999
c-114 -81.333 -182.333 -158.666 -205 -231.999c-17.333 -56 -14.666 -120.333 8.00098 -193l33 -93c14 -38.667 23.667 -71.667 29 -99c77.333 -358 210 -571.667 398 -641c64 -23.333 125.333 -22 184 4c-8.66699 -4 41 26.667 149 92c12 -136 43.333 -243.333 94 -322
c63.333 -98 151.666 -140 264.999 -126c90 10.667 162.667 53 218 127c49.333 66.667 81 152 95 256c12.667 97.333 8.66699 196 -12 296c-20.667 101.333 -54.667 184.666 -102 249.999c75.333 68 129.666 165.333 162.999 292c32 122.667 38 247 18 373
c-20.667 132 -66.667 238.333 -138 319c-80 90 -182 134 -306 132c-102.667 -1.33301 -212.334 -31.333 -329.001 -90z" />
    <glyph glyph-name="S" unicode="S" horiz-adv-x="1362" 
d="M376 950c-103.333 -118.667 -139.999 -216.333 -109.999 -293c14.667 -38 65.667 -68.667 153 -92c23.333 -6 61.666 -14.667 114.999 -26c50 -10.667 86.333 -19 109 -25c158.667 -44.667 273.667 -105.334 345 -182.001c55.333 -59.333 81.333 -115.666 78 -168.999
c-4.66699 -76.667 -56.667 -105 -156 -85c-32 6.66699 -70 18.667 -114 36c-52 20 -77 29.667 -75 29c-127.333 38 -240 46.667 -338 26c9.33301 -50.667 37 -76.667 83 -78c10.667 -0.666992 33.334 0.666016 68.001 3.99902c31.333 3.33301 57 4.33301 77 3
c78 -7.33301 164.667 -47 260 -119c96.667 -73.333 181 -114 253 -122c78 -8.66699 137.667 9.33301 179 54c36.667 39.333 55.334 93 56.001 161c0.666992 168 -88.333 317.333 -267 448c-69.333 51.333 -169 97 -299 137c-12.667 4 -42.334 12 -89.001 24
c-40 10.667 -71.333 20 -94 28c-70.667 24.667 -109.667 55 -117 91c-10 50.667 9.66699 105 59 163c68 80 155.333 140 262 180c114.667 42.667 237.667 56.334 369 41.001c16.667 24 26 64.333 28 121c2 54 -3 98.333 -15 133c-105.333 10.667 -229 -28.333 -371 -117
c-182.667 -115.333 -332.334 -239 -449.001 -371zM1339 605.001c164.667 -164.667 247.001 -342.336 247.001 -533.003c0 -141.333 -43.333 -253.333 -130 -336c-90 -86 -207 -121.667 -351 -107c-76.667 8 -165.667 42.667 -267 104c-13.333 8.66699 -31 21.334 -53 38.001
c-29.333 22.667 -47.333 36.334 -54 41.001c-46 32.667 -88.333 52 -127 58c-214.667 32.667 -316.667 45.667 -306 39c-80.667 51.333 -126.334 128.333 -137.001 231c-12 107.333 25 186.333 111 237c-76 27.333 -135.667 71.333 -179 132c-48 67.333 -68.333 147 -61 239
c8 109.333 62 222 162 338c60.667 70.667 145.334 151 254.001 241c254.667 211.333 471.334 326.333 650.001 345c77.333 8 144.666 -3.33301 201.999 -34c56.667 -29.333 95.667 -72.333 117 -129c46 -122 45.333 -242.667 -2 -362c-48.667 -119.333 -124 -185 -226 -197
c-21.333 -2.66699 -52 -1 -92 5c-42 6.66699 -74 9.33398 -96 8.00098c-26.667 -2 -85.334 -26 -176.001 -72c228 -76 399.333 -171.333 514 -286z" />
    <glyph glyph-name="T" unicode="T" horiz-adv-x="1686" 
d="M1664 1431c-130 -84 -341.666 -203.336 -634.999 -358.003c-291.333 -154 -502.333 -273.667 -633 -359c-6.66699 -4 -20.667 -11.667 -42 -23c-19.333 -10 -34.333 -18.667 -45 -26c-33.333 -23.333 -48.666 -51.333 -45.999 -84c19.333 -15.333 43.333 -17 72 -5
c-6.66699 -2.66699 15.666 10 66.999 38c157.333 88 303.666 156.667 438.999 206c8 -116 20 -268.667 36 -458l37 -458c20.667 -3.33301 45.667 -11.666 75 -24.999c32.667 -15.333 56.334 -24.666 71.001 -27.999c44 114.667 61 286 51 514
c-16.667 368.667 -25 556 -25 562c214 80.667 402.333 162.334 565 245.001c19.333 41.333 32.666 85 39.999 131c10.667 62 4 104.667 -20 128h-7zM1335 431.997c9.33301 -166.667 11.9971 -291.665 7.99707 -374.998c-6.66699 -133.333 -28.667 -235 -66 -305
c-45.333 -85.333 -115.666 -130 -210.999 -134c-65.333 -2.66699 -138.666 18.666 -219.999 63.999c-82.667 45.333 -133.334 92.666 -152.001 141.999c-20.667 57.333 -32.334 159.333 -35.001 306c-2 163.333 -10 276 -24 338c-34.667 -6.66699 -82 -29.334 -142 -68.001
c-58 -37.333 -106 -58.666 -144 -63.999c-114.667 -17.333 -205 17.667 -271 105c-64.667 86 -74 179.333 -28 280c22 47.333 70 95.666 144 144.999c-7.33301 -4.66699 60 35.333 202 120c108.667 66 273.334 157.333 494.001 274c222 118.667 385 209 489 271
c142 84.667 228.333 129 259 133c82 9.33301 148.333 -11.334 199 -62.001c44.667 -45.333 73 -108.666 85 -189.999c10.667 -76 5.33398 -152.667 -15.999 -230c-22 -79.333 -56 -140 -102 -182c-51.333 -47.333 -127.666 -89.333 -228.999 -126
c-131.333 -47.333 -214.666 -80.666 -249.999 -99.999c-2.66699 -60.667 0.666016 -174.667 9.99902 -342z" />
    <glyph glyph-name="U" unicode="U" horiz-adv-x="1564" 
d="M1301 999c0 -109.333 1.99902 -214.664 5.99902 -315.997c0.666992 -14 3.66699 -64 9 -150c4 -70 6.33301 -127.333 7 -172c2 -138 -11.333 -233.333 -40 -286c-31.333 -58 -86.666 -80.667 -165.999 -68c-15.333 2 -81.666 22.667 -198.999 62
c-174.667 58.667 -263.667 89 -267 91c-64 43.333 -106.333 148 -127 314c-25.333 199.333 -50 321.666 -74 366.999c-101.333 -38.667 -176.333 -89.334 -225 -152.001c28 -40.667 67.333 -152.667 118 -336c38.667 -143.333 96.667 -232 174 -266
c34 -14.667 87.333 -24 160 -28c83.333 -4.66699 141.333 -11.334 174 -20.001c49.333 -14 121.666 -53.333 216.999 -118c85.333 -58 157 -89.667 215 -95c116.667 -10.667 197 35.333 241 138c30 70 45 180 45 330c0 80 -7 248 -21 504
c-11.333 204.667 -12.666 369 -3.99902 493c1.33301 10.667 3.66602 27 6.99902 49l7 48c2.66699 34.667 -4 57 -20 67c-128.667 -60 -201.667 -112.667 -219 -158c-12 -32.667 -18 -132 -18 -298zM932.999 284.002c75.333 -22.667 129.004 -39.6689 161.004 -51.002
c7.33301 102.667 7.66602 247.667 0.999023 435c-7.33301 206.667 -9.66602 355.667 -6.99902 447c5.33301 137.333 15.666 226.333 30.999 267c20.667 54 74 113 160 177c88.667 65.333 167 101.666 235 108.999c62 6 118.667 -9.33301 170 -46
c49.333 -36 77.666 -79.667 84.999 -131c1.33301 -10 -2.66699 -76.667 -12 -200c-8 -108 -4 -310.667 12 -608c14.667 -256.667 15.667 -443.334 3 -560.001c-20 -192 -75.667 -327.667 -167 -407c-76.667 -66 -176 -97.667 -298 -95
c-112.667 2.66699 -216 32.334 -310 89.001c-139.333 84 -204 124.667 -194 122c-40 12 -100.333 20.333 -181 25c-74 4 -131.333 14 -172 30c-97.333 38 -172.333 98.667 -225 182c6 -9.33301 -40.667 132.334 -140 425.001c2 -4.66699 -13.667 28.666 -47 99.999
c-20 42.667 -28.667 82.334 -26 119.001c4 47.333 23 90 57 128c20.667 22 58.667 52.333 114 91c75.333 52.667 128.666 85.667 159.999 99c67.333 28.667 131.333 30.334 192 5.00098c74 -31.333 128.667 -132.666 164 -303.999c7.33301 -34.667 18.666 -99 33.999 -193
c12.667 -80 25.667 -147.667 39 -203c37.333 -12.667 91 -30 161 -52z" />
    <glyph glyph-name="V" unicode="V" horiz-adv-x="1902" 
d="M1584 1122c-24 -69.333 -56.6641 -175.002 -97.9971 -317.002c-43.333 -148 -76.333 -256 -99 -324c-83.333 -248 -176 -426.667 -278 -536c-232 387.333 -365.667 601.333 -401 642c-85.333 97.333 -152.333 146.333 -201 147
c-36.667 0.666992 -83.334 -20.333 -140.001 -63c-43.333 -32 -79 -64.667 -107 -98c108 -21.333 205.333 -74.333 292 -159c16 -15.333 85.667 -98 209 -248c134 -163.333 216.667 -252.666 248 -267.999c8 -4 22.333 -8.33301 43 -13c24 -5.33301 40.667 -10 50 -14
c91.333 -33.333 174 -17.666 248 47.001c104 92 193.667 258.333 269 499c23.333 74.667 52 179 86 313c37.333 146.667 63.666 246 78.999 298c75.333 254.667 113.333 386.334 114 395.001h-14c-14 -10 -54.333 -29.667 -121 -59
c-52.667 -23.333 -90.334 -48.333 -113.001 -75c-10 -12.667 -32 -68.334 -66 -167.001zM1276 927.998c88.667 288 150.999 455.001 186.999 501.001c30.667 39.333 90.334 85 179.001 137c95.333 56.667 171.666 87 228.999 91c70.667 4 131.667 -16 183 -60
c49.333 -42.667 77.333 -96.334 84 -161.001c4.66699 -38.667 -17.333 -132.334 -66 -281.001c-29.333 -88.667 -68.333 -219 -117 -391c-49.333 -175.333 -88.333 -308 -117 -398c-72 -221.333 -141.333 -379.333 -208 -474c-142 -203.333 -300 -297 -474 -281
c-2 0 -46.667 15.667 -134 47c-12.667 4 -36.667 10.333 -72 19c-28.667 6.66699 -49.334 13.667 -62.001 21c-47.333 25.333 -147.666 130 -300.999 314c-158.667 190.667 -259 295.334 -301 314.001c-13.333 6 -38.333 13.333 -75 22
c-32.667 7.33301 -56.667 15.666 -72 24.999c-96 58.667 -133.667 145.667 -113 261c12 68.667 74.667 141.667 188 219c112 76 209.667 114.333 293 115c72.667 0 143.334 -25.667 212.001 -77c32.667 -24 82.334 -72 149.001 -144c39.333 -42 82.666 -97.333 129.999 -166
c68.667 -98.667 108 -154.667 118 -168c8 22.667 61.333 194.334 160 515.001z" />
    <glyph glyph-name="W" unicode="W" horiz-adv-x="2726" 
d="M2358 1018c-53.333 -156 -90.3311 -268.334 -110.998 -337.001c-77.333 -260.667 -122.333 -407 -135 -439c-59.333 -146.667 -135.333 -242.667 -228 -288c-15.333 176 -84.333 459.333 -207 850c-38.667 122.667 -73.334 207 -104.001 253
c-58 4 -140.333 -17.667 -247 -65c-86 -326 -140 -624.333 -162 -895c-66.667 40.667 -147.667 118.667 -243 234c-116 139.333 -195 227.666 -237 264.999c-94 84 -161 127.333 -201 130c-36 2 -78.667 -11.333 -128 -40c-13.333 -7.33301 -33 -19.666 -59 -36.999
c-24 -16 -41.667 -27 -53 -33c137.333 -40 286.333 -135.333 447 -286c6.66699 -5.33301 34.334 -33 83.001 -83c41.333 -41.333 77 -75 107 -101c94 -80 175.667 -118 245 -114c16.667 0.666992 43 9.66699 79 27c35.333 16.667 65.333 25 90 25
c25.333 70.667 54 177 86 319c35.333 153.333 62.666 261 81.999 323c14 -44 61 -162.667 141 -356c59.333 -143.333 96.666 -271.333 111.999 -384c62 -61.333 111.333 -101 148 -119c64 -32 131.667 -31 203 3c94 44 175.333 143 244 297
c35.333 80 83.666 225.333 145 436c78.667 270.667 161 515 247 733c0.666992 2.66699 4.33398 10.334 11 23.001c5.33301 10.667 9 19.667 11 27c7.33301 22 2 37.667 -16 47c-142.667 -54.667 -218.334 -87 -227 -97c-16.667 -19.333 -57.667 -125.333 -123 -318z
M1261 -163.001c-102.667 -34.667 -203.001 -34.667 -301.001 0c-77.333 26.667 -160.333 78.667 -249 156c-282 244.667 -425 368 -429 370c-22 10 -50.333 19.667 -85 29c-31.333 8 -52.666 15.667 -63.999 23c-58 34.667 -93.333 90.667 -106 168c-12.667 78 3 143 47 195
c68.667 80 185.334 136.333 350.001 169c49.333 9.33301 97 7 143 -7c73.333 -22 153 -73.333 239 -154c24 -22.667 58 -56.667 102 -102c42.667 -44.667 74 -76 94 -94c12 41.333 24.667 99.333 38 174c15.333 88 26.666 146.667 33.999 176c31.333 131.333 83 218 155 260
c93.333 53.333 193.333 81.333 300 84c123.333 2 209.333 -37 258 -117c13.333 -22 48 -119.333 104 -292c8 -26 22.667 -76.333 44 -151c18 -62.667 33.333 -111.667 46 -147c18.667 52 42.667 129 72 231c30.667 107.333 54.334 186 71 236
c54.667 163.333 88.334 259 101 287c46 105.333 101 178.333 165 219c103.333 65.333 198.666 102 286 110c78.667 7.33301 145 -12.667 199 -60c54.667 -48 81.334 -112.333 80 -193c-1.33301 -45.333 -19.666 -113 -55 -203c-58 -147.333 -87.333 -222.333 -88 -225
c-17.333 -52.667 -50 -158.667 -98 -318c-42.667 -144 -78.334 -257 -107 -339c-91.333 -261.333 -187.333 -442.333 -288 -543c-64 -64 -142.667 -111 -236 -141c-114.667 -36.667 -220 -33 -316 11c-24.667 11.333 -67.667 46 -129 104l-49 42
c-19.333 16 -34 29.333 -44 40c-28.667 32 -47.667 73.667 -57 125c-28 -40.667 -103.667 -81.667 -227 -123z" />
    <glyph glyph-name="X" unicode="X" horiz-adv-x="1287" 
d="M1034 1222c-110 -309.333 -178.329 -490.666 -204.996 -543.999c-63.333 64 -123 113.667 -179 149c-102.667 64.667 -181.667 90.667 -237 78c-38 -8 -104.667 -67.333 -200 -178c108 15.333 206.667 2 296 -40c50 -24 120.667 -73.333 212 -148
c-8 -18.667 -26 -50.667 -54 -96c-28.667 -47.333 -48.667 -84.333 -60 -111c-42 -92.667 -39 -170.334 9 -233.001c12.667 3.33301 25.334 12.666 38.001 27.999c13.333 16.667 24.666 27.334 33.999 32.001c8.66699 52 33 106.667 73 164
c67.333 96 100.666 143.333 99.999 142c-6 8.66699 42 -45.666 144 -162.999c59.333 -68 91.333 -136.667 96 -206c0 -5.33301 -1 -15.666 -3 -30.999c-2 -14 -2.33301 -24.667 -1 -32c5.33301 -26.667 19.333 -57.334 42 -92.001c23.333 -36 44.333 -58 63 -66
c27.333 8.66699 48.666 29.667 63.999 63c13.333 30.667 19.666 64.667 18.999 102c-3.33301 95.333 -44 196 -122 302c-18.667 26 -51.667 67.333 -99 124c-40.667 48.667 -69.334 85.667 -86.001 111c57.333 99.333 119.333 257.333 186 474c85.333 278 131 445 137 501
l-11 -1c-122.667 -96.667 -185 -146.334 -187 -149.001c-7.33301 -10.667 -30.333 -70.667 -69 -180zM1444 206c58 -188 39.3389 -336.003 -55.9941 -444.003c-68.667 -77.333 -151 -104.666 -247 -81.999c-63.333 14.667 -124.333 79 -183 193
c-34 64.667 -52.333 104.334 -55 119.001c-2.66699 13.333 -3.33398 36.333 -2.00098 69c0.666992 24 -4 44 -14 60c-19.333 -72.667 -69 -132.334 -149 -179.001c-88.667 -52 -170.334 -52.333 -245.001 -1c-76.667 52.667 -114.334 141 -113.001 265
c1.33301 113.333 30 204.333 86 273c-38.667 33.333 -118.334 52.333 -239.001 57c-50 2 -88.333 8.66699 -115 20c-37.333 16 -65 44.333 -83 85c-42.667 98 -19.667 188.667 69 272c23.333 22 63.666 53.333 120.999 94c52.667 38 88.334 67 107.001 87
c84 14 163.667 9.66699 239 -13c41.333 -12 102.666 -39.333 183.999 -82c21.333 40.667 54 137.667 98 291c35.333 123.333 78 212.333 128 267c60 64.667 124 116.334 192 155.001c80.667 46 158.667 47.667 234 5c79.333 -44 112.666 -117.333 99.999 -220
c-4 -35.333 -47.667 -187 -131 -455c-59.333 -192 -111.333 -337.333 -156 -436c106 -115.333 182.667 -248.666 230 -399.999z" />
    <glyph glyph-name="Y" unicode="Y" horiz-adv-x="1641" 
d="M1370 1267c-8 -11.333 -40.9971 -85.9971 -98.9971 -223.997c-152.667 -363.333 -253.667 -591.333 -303 -684c-124.667 173.333 -186 258.666 -184 255.999c-108.667 118 -198.667 175.333 -270 172c-39.333 -2 -87 -26.667 -143 -74
c-18 -14.667 -39.333 -33.667 -64 -57c-28 -26.667 -44.667 -42.334 -50 -47.001c142.667 -0.666992 278.667 -60 408 -178c115.333 -105.333 181.333 -182.333 198 -231c10.667 -32.667 15.334 -79.334 14.001 -140.001c-1.33301 -70.667 0.666992 -120.334 6 -149.001
c14.667 -5.33301 39.334 -15.666 74.001 -30.999c31.333 -13.333 57 -23 77 -29c27.333 34 40.666 84.333 39.999 151c-0.666992 84.667 3.66602 142 12.999 172c4.66699 14.667 18 36 40 64c28.667 36 46 58.667 52 68c23.333 36.667 49.666 85 78.999 145
c101.333 205.333 228.666 532.333 381.999 981c-2.66699 0 -5 1 -7 3c-2.66699 2 -4.66699 3 -6 3c-164.667 -104.667 -250.334 -161.667 -257.001 -171zM1046 1100c49.333 135.333 93.667 232.666 133 291.999c32.667 50 94.667 106.333 186 169
c102 69.333 187 105.333 255 108c75.333 2.66699 137.333 -22.333 186 -75c48 -52.667 69.333 -117.667 64 -195c-1.33301 -24 -40.666 -140.333 -117.999 -349c-174.667 -469.333 -321.667 -789.666 -441 -960.999c-6 -310 -100.333 -466 -283 -468
c-59.333 -0.666992 -127 19 -203 59s-124.667 81.667 -146 125c-14.667 29.333 -22 74.666 -22 135.999c-0.666992 69.333 -6.66699 123 -18 161c-12 40 -51.667 91.333 -119 154c-68 64 -125 102.667 -171 116c-13.333 4 -39.333 6 -78 6c-38 0 -64.667 2.33301 -80 7
c-70.667 20 -120 67.667 -148 143c-28 76 -22.333 146.667 17 212c29.333 50 91 106.667 185 170c100 66.667 183 102.334 249 107.001c86.667 6.66699 168.667 -16.666 246 -69.999c24.667 -16.667 56 -41.334 94 -74.001c42 -36.667 71.333 -61 88 -73
c27.333 50.667 68.666 150.667 123.999 300z" />
    <glyph glyph-name="Z" unicode="Z" horiz-adv-x="1276" 
d="M1099 1384c-66.667 -44 -111 -72.3301 -133 -84.9971c-312.667 -187.333 -528.334 -324.333 -647.001 -411c-4 -2.66699 -15 -9.33398 -33 -20.001c-14 -8.66699 -25 -16.334 -33 -23.001c-23.333 -21.333 -30.333 -45.333 -21 -72c24 0 87.667 29 191 87
c144 80 340.333 174.333 589 283c-90.667 -201.333 -239 -436.666 -445 -705.999c-82 -107.333 -122.333 -196 -121 -266c18 -35.333 44 -48.333 78 -39c7.33301 2.66699 22 8.66699 44 18c19.333 8.66699 34.333 14 45 16c22.667 3.33301 48 3.33301 76 0
c135.333 -17.333 237.333 -129.333 306 -336c30.667 -8 61 -8 91 0c34 9.33301 52 26.666 54 51.999c1.33301 19.333 -24 56 -76 110c-150 159.333 -310 236.666 -480 231.999c256 300 385.333 452 388 456c66 99.333 118 188 156 266c90.667 187.333 139 324.333 145 411
c2 36.667 3 57.334 3 62.001c-2 25.333 -11 41.333 -27 48c-16 -4.66699 -23.667 -6.66699 -23 -6c-31.333 -16.667 -73.666 -42.334 -126.999 -77.001zM1319 -7.99707c46.667 -100 32.999 -190.669 -41.001 -272.002c-73.333 -79.333 -167.666 -112 -282.999 -98
c-62 8 -112 31.333 -150 70c-18.667 18 -42.667 67.333 -72 148c-24 66 -58 107 -102 123c-80 -31.333 -141.667 -44.666 -185 -39.999c-21.333 2.66699 -48.666 12.334 -81.999 29.001c-32.667 17.333 -57.334 27 -74.001 29c-48.667 58.667 -71.667 87.334 -69 86.001
c-30 113.333 -15.667 226.666 43 339.999c19.333 37.333 80 122.666 182 255.999c-84 -48 -136.333 -75.667 -157 -83c-60.667 -22.667 -118 -22 -172 2c-57.333 25.333 -98 70.333 -122 135c-24.667 67.333 -20.667 132.333 12 195c23.333 44.667 106 114 248 208
c48.667 32 237.667 147.667 567 347c19.333 11.333 65.666 43.333 138.999 96c56.667 39.333 103 67 139 83c74 32 145.667 29.667 215 -7c66.667 -35.333 106.667 -89 120 -161c19.333 -107.333 2 -228.666 -52 -363.999c-138 -344 -292.333 -604.333 -463 -781
c196.667 -136 316.334 -249.667 359.001 -341z" />
    <glyph glyph-name="bracketleft" unicode="[" horiz-adv-x="1027" 
d="M388 -137c3.33301 0.666992 7.99902 5.00195 13.999 13.002c4.66699 5.33301 66 116.666 184 333.999c89.333 163.333 145 280.666 167 351.999c-24 -26.667 -57.667 -79 -101 -157c-43.333 -79.333 -76.666 -132 -99.999 -158c23.333 728 33.333 1083.67 30 1067
c60 -56.667 102 -88.334 126 -95.001c-7.33301 12 -25.666 36.667 -54.999 74c-24 30 -42.333 57.667 -55 83c0.666992 -1.33301 -10.666 33.334 -33.999 104.001c-15.333 47.333 -33 73.666 -53 78.999c-26.667 6.66699 -59.334 -2.33301 -98.001 -27
c-32.667 -21.333 -58 -44.333 -76 -69c-44.667 -62.667 -69.334 -156 -74.001 -280c-6 -146 13.667 -365.333 59 -658c45.333 -289.333 64.333 -509.666 57 -660.999zM380.999 -306.998c-48.667 18 -84.333 36.332 -107 54.999c-33.333 28 -52 64.333 -56 109
c-2.66699 22.667 -3.33398 54 -2.00098 94c0.666992 46.667 0.666992 78 0 94c-4 106.667 -22.333 278 -55 514c-38 276.667 -54.333 480.334 -49 611.001c10 234 74 393.333 192 478c63.333 45.333 130.666 66.333 201.999 63c78 -4 135.667 -37.667 173 -101
c8.66699 -14 17 -36 25 -66c10.667 -36.667 18.334 -61.667 23.001 -75c12 -28.667 35.667 -62.667 71 -102c34 -37.333 54.333 -66.333 61 -87c18.667 -58 11 -109 -23 -153c-33.333 -42 -76.333 -62.333 -129 -61c-5.33301 -117.333 -5.66602 -232.333 -0.999023 -345
c63.333 9.33301 115 -4.66699 155 -42s56 -87.333 48 -150c-4 -30 -35.333 -102 -94 -216l-106 -201l-108 -204c-50.667 -98.667 -92 -158 -124 -178c2 0.666992 -17 -7 -57 -23c-22.667 -9.33301 -34.334 -23 -35.001 -41c2.66699 0 1.33398 9 -3.99902 27z" />
    <glyph glyph-name="backslash" unicode="\" horiz-adv-x="1160" 
d="M393 1108c114 -364.667 191.664 -688 232.997 -970c16.667 -118.667 27.334 -185.334 32.001 -200.001c22.667 -75.333 64.667 -125.666 126 -150.999c27.333 14 39 35 35 63c-1.33301 8.66699 -4.33301 20.667 -9 36c-5.33301 16.667 -8.66602 28.667 -9.99902 36
c-7.33301 44 -11.666 108 -12.999 192c-1.33301 90.667 -4.66602 157 -9.99902 199c-25.333 208 -154.333 622 -387 1242l-9 -5c-38.667 -121.333 -55 -203.333 -49 -246c-0.666992 1.33301 19.666 -64 60.999 -196zM383.997 1732
c51.333 3.33301 94.665 -11.333 129.998 -44c36.667 -34 72.667 -100.667 108 -200c10.667 -29.333 24.334 -71.333 41.001 -126s29 -92.334 37 -113.001c147.333 -414 231.333 -703.667 252 -869c6.66699 -48.667 11 -119.667 13 -213
c2 -89.333 6.33301 -156.666 13 -201.999c-2 10 5.66699 -23.333 23 -100c8 -35.333 7.33301 -66 -2 -92c-11.333 -32 -34.666 -64.667 -69.999 -98c-38 -36 -76 -58.333 -114 -67c-50 -12 -103.667 0 -161 36c-60 38 -105.667 91 -137 159c-20.667 44 -46 166.667 -76 368
c-28 188 -88.333 435.333 -181 742c-71.333 237.333 -107.666 361 -108.999 371c-6.66699 56 -0.333984 124.667 18.999 206c22 94.667 54 160 96 196c32 28 71.333 43.333 118 46z" />
    <glyph glyph-name="bracketright" unicode="]" horiz-adv-x="1027" 
d="M587 1513c-2.66699 -0.666992 -6.99902 -5.33398 -12.999 -14.001c-4 -5.33301 -61 -118.666 -171 -339.999c-82.667 -167.333 -133.334 -287 -152.001 -359c22.667 27.333 54 81 94 161c40.667 80.667 72 134.667 94 162c6.66699 -728 11 -1083.67 13 -1067
c-62 54 -105.333 83.667 -130 89c8.66699 -11.333 28.334 -35 59.001 -71c24.667 -29.333 44 -56.333 58 -81c-0.666992 1.33301 12 -33 38 -103c17.333 -46.667 36 -72 56 -76c27.333 -6 60 4.33301 98 31c31.333 22 55.666 46 72.999 72c41.333 64 62 158 62 282
c0 146 -28.667 364.333 -86 655c-57.333 287.333 -85.333 507 -84 659h-9zM587.001 1683c49.333 -16 85.667 -32.999 109 -50.999c34.667 -26 55 -61.333 61 -106c3.33301 -22.667 5.33301 -54 6 -94c0.666992 -46.667 1.66699 -78 3 -94c9.33301 -106 35 -276.333 77 -511
c48.667 -274.667 73 -477.334 73 -608.001c0 -234.667 -57.333 -396.667 -172 -486c-61.333 -48 -128 -71.667 -200 -71c-78 0.666992 -137 31.667 -177 93c-8.66699 14 -17.667 35.667 -27 65c-12 36.667 -21 61.334 -27 74.001c-12.667 28 -37.334 61 -74.001 99
c-35.333 36 -56.666 64.333 -63.999 85c-22 57.333 -16.667 108.666 16 153.999c31.333 43.333 73.666 65.333 126.999 66c0 118 -4.33301 233 -13 345c-63.333 -12 -115.666 -0.333008 -156.999 35c-41.333 36 -59.333 85.667 -54 149c2.66699 30 31 103 85 219l98 205
l99 208c47.333 100.667 86.333 162 117 184c-2 -1.33301 16.667 7 56 25c22 10 33.333 24 34 42c-3.33301 0 -2 -9 4 -27z" />
    <glyph glyph-name="asciicircum" unicode="^" 
d="M735 1130c-6.66699 18.667 -17.001 43.332 -31.001 73.999c-16.667 36.667 -27.334 60.667 -32.001 72c-54.667 129.333 -93.334 206.666 -116.001 231.999c-99.333 -2.66699 -169.666 -24.667 -210.999 -66c-11.333 -11.333 -36.666 -70 -75.999 -176
c-30 -83.333 -47 -137.333 -51 -162c-9.33301 -59.333 6 -102.333 46 -129c11.333 3.33301 23 12 35 26c13.333 15.333 23.666 25 30.999 29c8.66699 50.667 26.334 106.667 53.001 168c46 104.667 68.333 156 67 154c10.667 -20 28.667 -50.333 54 -91
c26 -40.667 44.667 -72 56 -94c40 -77.333 55.333 -151.666 46 -222.999c6.66699 -9.33301 16 -30.333 28 -63c10 -28 21 -47 33 -57c34 4 59.667 21 77 51c14.667 24.667 22.334 56.334 23.001 95.001c0.666992 48.667 -10 102 -32 160zM328.999 811.998
c-56.667 -18.667 -108.332 -16.332 -154.999 7.00098c-37.333 18.667 -69 51 -95 97c-26 46.667 -39.667 96.334 -41 149.001c-1.33301 55.333 16 136 52 242c32.667 93.333 64 165.333 94 216c36 60 108 107.667 216 143c118.667 39.333 211 31.666 277 -23.001
c31.333 -26 81.666 -121.333 150.999 -286c52.667 -126 79 -189.333 79 -190c24.667 -69.333 36.667 -135 36 -197c0 -88.667 -24 -163.667 -72 -225c-50.667 -65.333 -115.334 -97.666 -194.001 -96.999c-67.333 0 -119.666 25 -156.999 75
c-15.333 21.333 -42 76.666 -80 165.999c-22.667 -34.667 -59.667 -60.334 -111 -77.001z" />
    <glyph glyph-name="underscore" unicode="_" horiz-adv-x="1024" 
 />
    <glyph glyph-name="grave" unicode="`" horiz-adv-x="1024" 
d="M389 1463c-32 -15.333 -61.001 -35.334 -87.001 -60.001c115.333 -26.667 203.333 -77 264 -151c3.33301 -4.66699 7 -11 11 -19c4.66699 -12 7.66699 -18.667 9 -20c8 -15.333 20 -23 36 -23c12.667 20 17 46.333 13 79c-4 29.333 -14.333 60.333 -31 93
c-15.333 30.667 -33.666 57.334 -54.999 80.001c-22 22.667 -42.667 36 -62 40c-27.333 5.33301 -60 -1 -98 -19zM613.999 1643c37.333 -23.333 77.333 -65.999 120 -127.999c60.667 -88 94.334 -179.333 101.001 -274c8.66699 -120 -38 -198.667 -140 -236
c-46.667 -17.333 -89.334 -20.333 -128.001 -9c-30.667 8.66699 -61.334 27.667 -92.001 57c-103.333 96 -153.666 143.333 -150.999 142c-10 5.33301 -30.667 11.666 -62 18.999c-31.333 6.66699 -49.666 11.667 -54.999 15c-35.333 19.333 -62.333 50.333 -81 93
c-22 48.667 -25 98 -9 148c16.667 54 55 99 115 135c55.333 34 121.666 56.333 198.999 67c72.667 10.667 133.667 1 183 -29z" />
    <glyph glyph-name="a" unicode="a" horiz-adv-x="1138" 
d="M492 172c20.667 -10.667 53 -20.668 97 -30.001c150 -30 246.333 -41.667 289 -35c13.333 55.333 19 120 17 194c-76 26 -163.333 37.667 -262 35c-123.333 -2.66699 -185 -36 -185 -100c0 -27.333 14.667 -48.666 44 -63.999zM819 -28.001
c-32 23.333 -77.665 41 -136.998 53c-118 24.667 -174.333 36.334 -169 35.001c-68.667 18 -118 34.667 -148 50c-55.333 28 -84.333 62.333 -87 103c-2.66699 46.667 22.666 91.667 75.999 135c54 43.333 132.333 74 235 92c96 16.667 196 19.334 300 8.00098
c6.66699 73.333 4.33398 135.666 -6.99902 186.999c-13.333 62 -38.333 99.667 -75 113c-93.333 33.333 -240.333 -25.667 -441 -177c-36 -26.667 -58.667 -42.667 -68 -48c-28 -16 -48.333 -17.667 -61 -5c-18 18 -11 44.667 21 80c16.667 18 45 42.333 85 73
c62 48.667 116.667 88 164 118c173.333 110 302.666 168.667 387.999 176c92.667 8 156 -43 190 -153c17.333 -56.667 30.666 -164.334 39.999 -323.001c10.667 -199.333 4.33398 -345.333 -18.999 -438c-34 -138 -110 -217.333 -228 -238
c-58.667 62.667 -78.334 115.667 -59.001 159zM1242 970.999c-68.667 149.333 -188.334 215.998 -359.001 199.998c-134 -12.667 -306.333 -89 -517 -229c-98.667 -66 -164 -112.333 -196 -139c-70 -58.667 -114.333 -116.334 -133 -173.001
c-17.333 -51.333 -18 -102.666 -2 -153.999c10 -32 32 -74.667 66 -128c-48 -120 -34 -227 42 -321c72 -89.333 172 -135.333 300 -138c10 0 24.333 0.666992 43 2c20 1.33301 34.333 2 43 2c32.667 0 60.667 -7 84 -21c39.333 -91.333 71.333 -152.333 96 -183
c46 -55.333 106 -82.666 180 -81.999c94.667 1.33301 185 42.333 271 123c132.667 126.667 189.334 371.667 170.001 735c-12 236.667 -41.333 405.334 -88 506.001z" />
    <glyph glyph-name="b" unicode="b" horiz-adv-x="1519" 
d="M728 640c-35.333 -23.333 -94.667 -81 -178 -173c27.333 -151.333 42.333 -233 45 -245c19.333 -5.33301 95.666 -44.666 228.999 -117.999c106 -58.667 193.667 -82 263 -70c78.667 13.333 120 85 124 215c3.33301 116 -18.667 214.667 -66 296
c-42 72.667 -93.667 118 -155 136c-93.333 27.333 -180.666 13.666 -261.999 -41.001zM1394 -115c-71.333 -66.667 -160.999 -79.665 -268.999 -38.998c-42 16 -121.333 66 -238 150c-99.333 71.333 -186 112 -260 122c-4.66699 -4.66699 -2.33398 -12.667 6.99902 -24
c10 -14 14.333 -25.333 13 -34c-34.667 -36.667 -74.667 -38.334 -120 -5.00098c-30 23.333 -61.333 61.666 -94 114.999c-36 59.333 -70.667 170.333 -104 333c-36 172.667 -66 283.667 -90 333c47.333 66 120.666 128.667 219.999 188c14 -4.66699 23 -16.667 27 -36
c1.33301 -6 2.33301 -14.333 3 -25c0.666992 -11.333 1.66699 -19 3 -23c19.333 -109.333 32 -213 38 -311c18.667 12.667 56.334 41 113.001 85c47.333 36.667 87 64.667 119 84c98.667 58.667 202.667 82 312 70c134 -14 243.333 -102.667 328 -266
c77.333 -149.333 110.333 -304 99 -464c-8 -110 -43.667 -194.333 -107 -253zM1159 1074c-158 40.667 -309.334 24 -454.001 -50c-13.333 77.333 -41 135.666 -83 174.999c-48.667 44.667 -113.667 61.667 -195 51c-65.333 -8.66699 -147 -55.667 -245 -141
c-96 -84 -150.333 -153.333 -163 -208c-8.66699 -38 -6.66699 -76.667 6 -116c3.33301 -9.33301 10 -26 20 -50c8.66699 -22 15.334 -40 20.001 -54c11.333 -39.333 29.333 -130.333 54 -273c20 -118.667 45 -211 75 -277c53.333 -118 123 -206.667 209 -266
c105.333 -72.667 212.333 -81 321 -25c114 -97.333 228.333 -165.666 343 -204.999c158.667 -54 299 -44 421 30c86 52.667 148.667 132 188 238c36 96 51 206.667 45 332c-12.667 254 -86 463 -220 627c-86 105.333 -200 176 -342 212z" />
    <glyph glyph-name="c" unicode="c" horiz-adv-x="1091" 
d="M519 751c-172.667 -127.333 -268 -250.331 -286 -368.998c-14 -94.667 8 -172 66 -232c34 -35.333 94.667 -62.666 182 -81.999c102 -22 168.333 -42.333 199 -61c-3.33301 2 40.334 -33.667 131.001 -107c44 -36 67 -54.333 69 -55
c33.333 -22.667 63.666 -32 90.999 -28c20.667 2.66699 41 16.667 61 42c21.333 28 27 53.667 17 77c-7.33301 15.333 -29.333 26 -66 32c-6 1.33301 -22.333 3.66602 -49 6.99902c-20 2.66699 -35.333 5.33398 -46 8.00098c-60 15.333 -132.667 43.666 -218 84.999
c-94 45.333 -154.333 84.666 -181 117.999c-49.333 61.333 -71.333 128.333 -66 201c5.33301 65.333 32 127.666 80 186.999c46.667 57.333 104.334 101.333 173.001 132c72 32 142.667 43 212 33c20 -2.66699 46.333 -14.667 79 -36c29.333 -19.333 58.666 -29 87.999 -29
c31.333 74 41.333 138 30 192c-12.667 63.333 -54.667 94.333 -126 93c-108 -2 -254.667 -71.333 -440 -208zM1144 1126c69.333 -37.333 117.671 -109.336 145.004 -216.003c29.333 -114 18.666 -218.667 -32.001 -314c-22.667 -41.333 -54.334 -74 -95.001 -98
c-47.333 -27.333 -99 -38.333 -155 -33c-24 2.66699 -54.333 15.334 -91 38.001c-36 22 -63.333 33.333 -82 34c-40.667 2 -84.667 -16.667 -132 -56c-50 -42 -71.333 -85 -64 -129c4 -24.667 22.333 -45.334 55 -62.001c10 -4.66699 24.333 -10.334 43 -17.001
c19.333 -7.33301 32.333 -12.666 39 -15.999c100.667 -46.667 152.334 -70.334 155.001 -71.001c18 -5.33301 51 -11 99 -17c41.333 -5.33301 69.666 -11.666 84.999 -18.999c55.333 -25.333 96 -64.333 122 -117c31.333 -64 32.333 -136 3 -216
c-24.667 -67.333 -66.334 -120.666 -125.001 -159.999c-70 -47.333 -147.333 -59.666 -232 -36.999c-58.667 16.667 -120 50.667 -184 102c-102.667 81.333 -156.334 123 -161.001 125c-30 10.667 -81.667 22.667 -155 36c-57.333 10.667 -103 26.334 -137 47.001
c-70.667 42.667 -126.667 102.334 -168 179.001c-48.667 91.333 -66 192.333 -52 303c20.667 161.333 137.667 324 351 488c221.333 169.333 415.666 256.666 582.999 261.999c74.667 2 136.334 -10 185.001 -36z" />
    <glyph glyph-name="d" unicode="d" horiz-adv-x="1015" 
d="M479 533c-43.333 -18.667 -78 -48.668 -104 -90.001c-26 -40.667 -38 -83.667 -36 -129c1.33301 -49.333 19 -92.666 53 -129.999c38 -42 99 -74.333 183 -97c75.333 -20 154 -28.667 236 -26c20 95.333 28.333 198.666 25 309.999c-66 72.667 -97 107.334 -93 104.001
c-36.667 35.333 -74.667 58 -114 68c-52.667 14 -102.667 10.667 -150 -10zM984 -89.001c-47.333 -84.667 -116.667 -131.665 -208 -140.998c-17.333 8 -31 26.333 -41 55c-2 5.33301 -5.66699 17.666 -11 36.999c-4 15.333 -8 27.333 -12 36
c4.66699 8.66699 15.667 18.334 33 29.001c16.667 10 27 20 31 30c-38 4 -83.667 20.333 -137 49c-65.333 34.667 -111.333 56 -138 64c-151.333 46.667 -223 68.334 -215 65.001c-70 34 -105 93 -105 177c0 64 24.667 125.667 74 185c46.667 56 106 99.667 178 131
c74 32 145 44.333 213 37c75.333 -8.66699 135.333 -41 180 -97c-0.666992 27.333 -3.33398 75 -8.00098 143c-4 67.333 -6.33301 119.666 -7 156.999c-4 185.333 -2.33301 288.666 5 309.999c10 31.333 35.667 59.666 77 84.999c62.667 38 96 59 100 63h10
c-13.333 -124.667 -7.66602 -311 17.001 -559c26.667 -270.667 37.334 -461.667 32.001 -573c-4.66699 -116.667 -27.334 -211 -68.001 -283zM1175 1365c-10 40 -34.001 73 -72.001 99c-38.667 26.667 -80.334 38 -125.001 34c-48 -4 -108.667 -34.667 -182 -92
c-69.333 -54.667 -113.666 -102.667 -132.999 -144c8 16.667 0 -123 -24 -419c-50 2 -94.333 -1 -133 -9c-135.333 -28.667 -250.333 -89.334 -345 -182.001c-103.333 -101.333 -154.333 -216.333 -153 -345c2 -132 56.333 -235.333 163 -310
c35.333 -25.333 95.666 -48.666 180.999 -69.999c90 -22.667 154.333 -45.334 193 -68.001c26.667 -84 48.334 -140.333 65.001 -169c30.667 -52 73 -82.667 127 -92c110.667 -20 217.334 21 320.001 123c117.333 116 171.333 329.667 162 641
c-2 74.667 -11.333 208.334 -28 401.001c-14.667 168 -21.667 295 -21 381c2 154 3.66699 227.667 5 221z" />
    <glyph glyph-name="e" unicode="e" horiz-adv-x="1243" 
d="M969 240c-114.667 26 -200 40.6719 -256 44.0049c-75.333 4.66699 -170.666 0.666992 -285.999 -12c12 -75.333 61 -131.333 147 -168c22.667 -9.33301 63.334 -23.333 122.001 -42c55.333 -17.333 97.666 -32.666 126.999 -45.999
c150 -68.667 239 -115.334 267 -140.001c-9.33301 -24.667 -25 -46.334 -47 -65.001c-22.667 -20.667 -45.334 -31.334 -68.001 -32.001c-29.333 -1.33301 -67.333 14 -114 46c-58 39.333 -91 60.666 -99 63.999c-11.333 4 -34.333 9.33301 -69 16
c-33.333 6 -59 12.667 -77 20c-14 6 -97.333 56.667 -250 152c-90.667 57.333 -138.667 135.666 -144 234.999c-4.66699 96.667 31.333 184.667 108 264c63.333 65.333 149.333 129.666 258 192.999c124 72.667 230.667 113.667 320 123c92 10 163.333 -16.333 214 -79
c37.333 -46.667 67.333 -121.667 90 -225c39.333 -177.333 39.333 -305 0 -383c-56.667 0 -137.667 11.667 -243 35zM348 868.005c-198 -140.667 -311.331 -292.667 -339.998 -456c-18.667 -103.333 -4.66699 -202.333 42 -297c42 -85.333 102.333 -153.333 181 -204
c-12 10.667 143 -66.333 465 -231c112.667 -57.333 204.667 -86.666 276 -87.999c51.333 -6.66699 101 1 149 23c46.667 20.667 85.667 51 117 91c32.667 42 52 88 58 138c6.66699 54.667 -3 108 -29 160c58.667 18 104.667 53.667 138 107c32 51.333 48.667 113 50 185
c4.66699 226 -33 413.333 -113 562c-98.667 183.333 -245.334 265.666 -440.001 246.999c-168.667 -16 -353.334 -95 -554.001 -237zM520.002 590.005c-81.333 -69.333 -120.332 -145.001 -116.999 -227.001c196 38 396.667 48 602 30c-8.66699 108 -25.334 184 -50.001 228
c-35.333 64.667 -95.666 92.334 -180.999 83.001c-92.667 -10 -177.334 -48 -254.001 -114z" />
    <glyph glyph-name="f" unicode="f" horiz-adv-x="966" 
d="M941 1270c-2 2 -3.66797 3.00195 -5.00098 3.00195c-0.666992 4.66699 -2.66699 6.66699 -6 6c-94 -50.667 -207.333 -152.334 -340 -305.001c-75.333 -87.333 -128.333 -163.333 -159 -228c-43.333 -92.667 -57.333 -189.334 -42 -290.001
c-12 -10 -31.333 -20.667 -58 -32c-34 -14.667 -55.333 -24.334 -64 -29.001c-48 -26.667 -67 -64 -57 -112c24 -2 54.333 6.66699 91 26c42 22 73 34.333 93 37c26.667 -281.333 50 -452 70 -512c13.333 -4 33 -13 59 -27c24 -13.333 44.333 -21.666 61 -24.999
c28.667 97.333 34.667 300.666 18 609.999c42.667 2 97.334 1.66699 164.001 -1c95.333 -2.66699 144.333 -4 147 -4c19.333 21.333 26 55 20 101c-5.33301 42 -18 73.333 -38 94c-56.667 -1.33301 -156.334 -18.666 -299.001 -51.999c-23.333 148 0 268.333 70 361
c57.333 74.667 147.333 133 270 175c22.667 56.667 26.334 124 11.001 202c-2 0 -4 0.666992 -6 2zM1062 696.002c49.333 -62 73.3311 -138.998 71.998 -230.998c-1.33301 -92.667 -28 -166 -80 -220c-60 -61.333 -139.667 -79.333 -239 -54
c-2 -221.333 -9.33301 -359.666 -22 -414.999c-31.333 -136 -106.666 -201.333 -225.999 -196c-43.333 2 -91 16 -143 42c-51.333 25.333 -90 53.666 -116 84.999c-29.333 35.333 -50.333 89.666 -63 162.999c-2.66699 17.333 -7.33398 50.333 -14.001 99
c-5.33301 42.667 -10.333 76.334 -15 101.001c-79.333 27.333 -123.666 44.666 -132.999 51.999c-75.333 58.667 -98.333 144.334 -69 257.001c12 48.667 33.333 90.667 64 126c31.333 37.333 67.666 61.333 108.999 72c4 108.667 33.333 210.667 88 306
c34 60 95 140.333 183 241c162.667 186 287.334 297.333 374.001 334c82 34 151.667 31.333 209 -8c50 -34 84.333 -90.667 103 -170c18 -74.667 17.333 -149.334 -2 -224.001c-20 -78.667 -56 -134.667 -108 -168c-14 -9.33301 -48 -23.333 -102 -42
c-38.667 -12.667 -68 -33.334 -88 -62.001c90.667 11.333 163.334 -18 218.001 -88z" />
    <glyph glyph-name="g" unicode="g" horiz-adv-x="1060" 
d="M445 155c-16.667 -4 -33.333 -15.3311 -50 -33.998c-17.333 -20 -24 -38.667 -20 -56c4 -16.667 36.333 -34 97 -52l71 -18c26.667 -6.66699 44 -11.667 52 -15c11.333 -4 30.333 -12.333 57 -25c24 -10.667 42.667 -18.334 56 -23.001
c42.667 -14.667 80 -15.334 112 -2.00098c27.333 70 -11 128.333 -115 175c-108 49.333 -194.667 66 -260 50zM746.001 678.002c-14 72.667 -52.666 105.335 -115.999 98.002c-32.667 -4 -76 -22.333 -130 -55c-47.333 -28.667 -86 -61.334 -116 -98.001
c-44.667 -55.333 -52.667 -104.333 -24 -147c32 -48 92.333 -66.333 181 -55c84.667 11.333 142.667 39.666 174 84.999c33.333 48.667 43.666 106 30.999 172zM708.002 -144.997c-90 73.333 -166.001 113.335 -228.001 120.002c-16 2 -41.333 2.66699 -76 2
c-34 0 -58.667 0.666992 -74 2c-52 6.66699 -79 32 -81 76c-0.666992 21.333 6.33301 40.666 21 57.999c22.667 27.333 36 44.666 40 51.999c-65.333 -6 -97.333 19.667 -96 77c1.33301 54 21.666 93.667 60.999 119c-36 13.333 -59.667 27 -71 41c-18 22 -23 55 -15 99
c9.33301 47.333 63 115.666 161 204.999c63.333 58 133.333 109.667 210 155c26 15.333 66.667 37.666 122 66.999c50.667 26.667 88.334 47.667 113.001 63c25.333 16 66 43.333 122 82c49.333 34 87 58.333 113 73c1.33301 0 3 -0.666992 5 -2c2 -2 3.66699 -3 5 -3
c18 -72 6.66699 -130 -34 -174c-26.667 -28.667 -73.667 -55.667 -141 -81c1.33301 -9.33301 7 -20 17 -32c12 -14.667 19.667 -25.667 23 -33c21.333 -48 30 -110 26 -186c-4 -72.667 -17.667 -130.667 -41 -174c-65.333 -120.667 -235.333 -160.667 -510 -120l-25 -27
c-7.33301 -11.333 -9 -24 -5 -38c4.66699 -19.333 25.334 -30.666 62.001 -33.999c11.333 -1.33301 27.333 -1.66602 48 -0.999023c22.667 0 37.667 -0.333008 45 -1c124 -6 231.667 -33 323 -81c104.667 -55.333 168.667 -130 192 -224c10 -40 5.66699 -77 -13 -111
c-20 -35.333 -49 -55 -87 -59c-60 -6 -130.667 24 -212 90zM1086 500.005c24 98.667 25.334 198.997 4.00098 300.997c41.333 23.333 74.333 64.666 99 123.999c24 57.333 34.667 117 32 179c-3.33301 66 -21 118.333 -53 157c-36 44.667 -87 65 -153 61
c-16.667 -1.33301 -33.334 -4.66602 -50.001 -9.99902c-31.333 -10.667 -74.666 -36.667 -129.999 -78c-78 -58 -123 -90.667 -135 -98c-28 -17.333 -74.667 -42.333 -140 -75c-62.667 -30.667 -111 -57.334 -145 -80.001c-91.333 -59.333 -171.666 -126 -240.999 -200
c-64.667 -69.333 -110.334 -137.666 -137.001 -204.999c-36.667 -94 -32.667 -179 12 -255c-20.667 -38.667 -23.334 -81.334 -8.00098 -128.001c3.33301 -9.33301 10.666 -27.333 21.999 -54c8.66699 -21.333 14 -37.666 16 -48.999c2 -9.33301 2 -23.666 0 -42.999
s-2 -33.333 0 -42c12.667 -56.667 40.334 -103 83.001 -139c44 -37.333 98.333 -59.333 163 -66c16 -1.33301 40.333 -0.666016 73 2.00098c29.333 2.66699 55 2 77 -2c18.667 -3.33301 65.334 -33.333 140.001 -90c62 -47.333 108.667 -77.333 140 -90
c57.333 -23.333 120 -31 188 -23c66.667 8.66699 119 29.667 157 63c96 82.667 122 195.334 78 338.001c-40 130 -111 224.333 -213 283c57.333 48.667 97.666 121.667 120.999 219z" />
    <glyph glyph-name="h" unicode="h" horiz-adv-x="1304" 
d="M215 857c3.33301 -7.33301 35.0039 -146 95.0039 -416c37.333 -167.333 104.333 -270.333 201 -309c3.33301 2 15.666 7.66699 36.999 17c15.333 7.33301 26 15 32 23c-30 45.333 -60.667 165.333 -92 360c66.667 71.333 119 119.333 157 144
c74 46.667 149.333 58.667 226 36c90 -26.667 144.333 -117 163 -271c17.333 -146 -2.33398 -268.667 -59.001 -368c-8 -14 -23 -30.333 -45 -49c-24 -20.667 -40 -37 -48 -49c3.33301 -7.33301 13.666 -36.666 30.999 -87.999c12.667 -36 25.667 -63 39 -81
c116.667 7.33301 206 65.333 268 174c55.333 97.333 80.666 216.666 75.999 357.999c-4.66699 138.667 -36.334 259.334 -95.001 362.001c-63.333 112 -144.333 174 -243 186c-91.333 11.333 -182.666 -8.33398 -273.999 -59.001c-46.667 -26 -116 -78 -208 -156
c-4 20 -11 83.667 -21 191c-8 78.667 -20.333 137 -37 175c-91.333 -58.667 -159 -118.667 -203 -180zM989.004 1080c116.667 -19.333 210.667 -64.666 282 -135.999c136 -134 209.333 -331.667 220 -593c4.66699 -121.333 -8.33301 -233.666 -39 -336.999
c-33.333 -110.667 -84 -199.334 -152 -266.001c-44 -43.333 -94.667 -78.333 -152 -105c-69.333 -32 -136.666 -45.333 -201.999 -40c-83.333 7.33301 -146.333 51 -189 131c-25.333 47.333 -51.333 131.333 -78 252c-133.333 -76 -255 -65.667 -365 31
c-91.333 79.333 -157.333 197 -198 353c-9.33301 35.333 -19.666 93 -30.999 173c-11.333 78 -22.333 136.333 -33 175c-2.66699 9.33301 -7.33398 23 -14.001 41c-6.66699 19.333 -11.334 34 -14.001 44c-10.667 36.667 -13 72 -7 106
c9.33301 48.667 50.666 108 123.999 178c66.667 63.333 126 106.666 178 129.999c72.667 32 140.334 31 203.001 -3c65.333 -36 102.333 -97 111 -183c111.333 54 230 70.333 356 49z" />
    <glyph glyph-name="i" unicode="i" horiz-adv-x="495" 
d="M435 555c-2 18 -4.33301 31.334 -7 40.001c-6 27.333 -18 42 -36 44c-31.333 4 -73.333 -23.667 -126 -83c-46.667 -52.667 -72.667 -91.334 -78 -116.001c-2.66699 -10 -4.33398 -57 -5.00098 -141c-1.33301 -155.333 21.334 -273.666 68.001 -354.999
c8.66699 -14.667 24.667 -48.334 48 -101.001c17.333 -39.333 33.666 -67.333 48.999 -84c94.667 40 142.334 146.667 143.001 320c0 71.333 -16.667 214.333 -50 429c-1.33301 7.33301 -3.33301 23 -6 47zM300 751.001c48.667 90.667 76.334 145.333 83.001 164
c24 66 27 133 9 201c-1.33301 4 -4.66602 5.66699 -9.99902 5c-84.667 -174 -154.334 -370.333 -209.001 -589c13.333 13.333 55.666 86.333 126.999 219zM547 741c17.333 -21.333 29.002 -38.9961 35.002 -52.9961c5.33301 -14 18.333 -87 39 -219
c50 -322.667 46.667 -548 -10 -676c-24 -54 -57 -99.667 -99 -137c-43.333 -38 -88.333 -60.333 -135 -67c-69.333 -9.33301 -123.666 10.667 -162.999 60c-14 17.333 -40.667 68.666 -80 153.999c-69.333 151.333 -106.333 243.666 -111 276.999
c-6.66699 42.667 -10 104.334 -10 185.001c0 15.333 2 45.666 6 90.999c4 39.333 5.33301 70.666 4 93.999c-0.666992 8.66699 -4.33398 22 -11.001 40c-6 16.667 -9 30.667 -9 42c-0.666992 32 14 95.333 44 190c13.333 42 32.666 98.667 57.999 170
c57.333 160 87.333 242.667 90 248c44.667 92.667 100.667 143 168 151c60.667 7.33301 108.667 -7.33398 144 -44.001c31.333 -32 51.666 -78 60.999 -138c17.333 -118.667 -0.666992 -226.667 -54 -324c3.33301 -8 14.333 -22.667 33 -44z" />
    <glyph glyph-name="j" unicode="j" horiz-adv-x="565" 
d="M296 378c6.66699 -123.333 9.66895 -222.001 9.00195 -296.001c-0.666992 -51.333 -2 -84 -4 -98c-4.66699 -37.333 -16 -57.666 -34 -60.999c-14 -2.66699 -33 3 -57 17c-24 14.667 -44 20 -60 16c-0.666992 2 25.666 -23 78.999 -75
c9.33301 -9.33301 21.666 -22.666 36.999 -39.999c17.333 -20 29.666 -33.667 36.999 -41c29.333 -30.667 59 -49.667 89 -57c142 -34.667 191 134 147 506c-16.667 142 -34.667 276 -54 402c-11.333 70 -22.666 110.667 -33.999 122c0 3.33301 -1.33301 4.66602 -4 3.99902
c-66 -26 -120.333 -68 -163 -126c0.666992 -38.667 4.66699 -129.667 12 -273zM439.002 1200c-19.333 -16 -53 -67.667 -101 -155c-36.667 -67.333 -56.667 -105 -60 -113c-17.333 -43.333 -21 -85.333 -11 -126c66 55.333 113 107.333 141 156
c41.333 72 54.333 151.333 39 238h-8zM615.002 756.999c4.66699 -23.333 9.66309 -56.6689 14.9961 -100.002c6 -51.333 10.667 -86.666 14 -105.999c42.667 -267.333 61.667 -458.333 57 -573c-8.66699 -238.667 -87.667 -367.334 -237 -386.001c-68 -8 -132 8 -192 48
c-23.333 16 -68.333 57.333 -135 124c-9.33301 9.33301 -23.666 22 -42.999 38c-20 15.333 -34.333 27.333 -43 36c-30.667 30.667 -46.667 66 -48 106c-3.33301 93.333 48.334 146.333 155.001 159c4.66699 62.667 1.33398 155.334 -9.99902 278.001
s-15 211.334 -11 266.001c2 30 7.66699 51 17 63c-43.333 60 -54.666 131.333 -33.999 214c8.66699 33.333 41 100 97 200c50.667 92.667 77 140 79 142c34 48 74.667 74.667 122 80c52.667 6.66699 94.667 -6.33301 126 -39c28 -28 45.667 -68.667 53 -122
c16 -110 -3.33301 -204 -58 -282c36.667 -26 62 -74.667 76 -146z" />
    <glyph glyph-name="k" unicode="k" horiz-adv-x="1163" 
d="M268 544c23.333 -151.333 54 -255.998 92 -313.998c25.333 -38 53.666 -66 84.999 -84c40 -23.333 76.333 -22.666 109 2.00098c-38 100 -61.333 196 -70 288c134.667 -79.333 234.334 -179.333 299.001 -300c7.33301 -14 23 -66.667 47 -158
c8 -30 20.333 -63.667 37 -101c24 -54 45 -81 63 -81c22.667 -0.666992 40 16 52 50c8 25.333 12 53.666 12 84.999c0 94 -36.667 193.333 -110 298c-22.667 31.333 -55.334 72.666 -98.001 123.999c-45.333 54 -75.666 91.333 -90.999 112
c90.667 46 180.667 104.667 270 176c72 57.333 113 91.333 123 102c43.333 45.333 65 93.666 65 144.999c-34.667 16 -76 22.333 -124 19c-46 -2.66699 -85 -13 -117 -31c6 3.33301 -27.333 -34 -100 -112c-63.333 -68 -174.666 -167.667 -333.999 -299
c-2.66699 20.667 -11.667 120.334 -27 299.001c-10.667 121.333 -25.334 215.333 -44.001 282c-54.667 -32.667 -123 -93.334 -205 -182.001c18 -44 40 -150.667 66 -320zM702 953.002c26.667 34 47.6719 57.333 63.0049 70c48 38.667 107.667 65.667 179 81
s139.666 16 204.999 2c70 -16 123.667 -46.667 161 -92c42 -51.333 58 -117 48 -197c-10 -81.333 -56.667 -159 -140 -233c-24.667 -22 -61.334 -51 -110.001 -87c-49.333 -36 -83.333 -62.333 -102 -79c82 -102 139.667 -224.667 173 -368
c41.333 -180.667 13 -314.334 -85 -401.001c-31.333 -28 -70.666 -47 -117.999 -57c-56.667 -11.333 -109.334 -4 -158.001 22c-50 26 -90 73.333 -120 142c-8.66699 20 -31.334 88 -68.001 204c-62 -39.333 -128.333 -50 -199 -32c-59.333 14.667 -114.333 47 -165 97
c-102.667 102 -175 305.333 -217 610c-27.333 202 -43 296 -47 282c11.333 42.667 51.666 99.334 120.999 170.001c68.667 70 130 117 184 141c101.333 46 185.666 30.667 252.999 -46c62 -72 89.333 -168 82 -288c17.333 9.33301 37.333 29 60 59z" />
    <glyph glyph-name="l" unicode="l" horiz-adv-x="415" 
d="M306 979c-32 -73.333 -52.332 -134.663 -60.999 -183.996c-5.33301 -26 -8.66602 -62 -9.99902 -108c-2.66699 -66.667 -4.66699 -105 -6 -115c-8 -104 -14.667 -178.333 -20 -223c-3.33301 -26 -9.33301 -62.667 -18 -110c-11.333 -58 -18.333 -96.333 -21 -115
c-15.333 -92.667 -16 -163.334 -2 -212.001c3.33301 -11.333 11.666 -25.333 24.999 -42c17.333 -23.333 27.666 -38 30.999 -44c32.667 -54.667 51.334 -83.334 56.001 -86.001c84.667 138 126.667 354.667 126 650c-0.666992 78 -5.33398 206.667 -14.001 386
c-8 167.333 -11.667 293.666 -11 378.999c-6.66699 -2 -10 -7 -10 -15c-6 -22.667 -27.667 -76.334 -65 -161.001zM448.001 1289c33.333 -14.667 56.668 -35.668 70.001 -63.001c10.667 -20.667 16 -96.667 16 -228c0 -70.667 2.66699 -169.334 8 -296.001
c6.66699 -142 10.334 -240.667 11.001 -296c4 -228.667 -16 -410 -60 -544c-28 -86 -53.333 -147.333 -76 -184c-40 -66 -87.333 -96 -142 -90c-61.333 6.66699 -110.333 40.334 -147 101.001l-38 60c-16 24.667 -28.333 45.334 -37 62.001c-25.333 48 -39.333 97 -42 147
c0 3.33301 17 145.333 51 426c5.33301 43.333 10.666 120 15.999 230c4.66699 94 11 162.667 19 206c4 19.333 31.333 99 82 239c32 88 52.333 140 61 156c29.333 50.667 69.666 79.667 120.999 87c27.333 4 56.333 -0.333008 87 -13z" />
    <glyph glyph-name="m" unicode="m" horiz-adv-x="1858" 
d="M1578 -174c98 46 170 148 216 306c36 125.333 53.667 275 53 449c0 115.333 -11.667 201.333 -35 258c-32.667 78 -89.667 116 -171 114c-101.333 -2.66699 -201.333 -39.334 -300 -110.001c-22.667 -16.667 -98 -83 -226 -199c-50 68 -116.667 102.333 -200 103
c-89.333 0.666992 -182 -24.333 -278 -75c-84 -44.667 -149.667 -96 -197 -154c-21.333 36 -38.666 59 -51.999 69c-34.667 -6.66699 -92 -27.667 -172 -63c0.666992 -2 25.667 -32.667 75 -92c14.667 -17.333 40 -54.333 76 -111c36.667 -57.333 66.667 -100.333 90 -129
c50 -61.333 101 -107.666 153 -138.999c78 -46.667 126 -31 144 47c-57.333 25.333 -106.333 70.666 -147 135.999c-18 28.667 -49 92 -93 190c33.333 66 90.666 118.667 171.999 158c93.333 45.333 169.666 40.333 228.999 -15c32.667 -30.667 54 -87 64 -169
c15.333 -132 24.333 -203.333 27 -214c16.667 -1.33301 42.334 -6.66602 77.001 -15.999c32 -8.66699 54 -13 66 -13c8.66699 41.333 11.667 97.666 9 168.999c-3.33301 93.333 -4.33301 153.666 -3 180.999c12.667 11.333 36.334 36 71.001 74
c33.333 36.667 60.666 64.334 81.999 83.001c72 62 145 85.667 219 71c36.667 -7.33301 64.667 -35.333 84 -84c16 -42 24 -94 24 -156c1.33301 -147.333 -14 -268 -46 -362c-42 -125.333 -110.333 -189.666 -205 -192.999c12 -58.667 18 -88.334 18 -89.001
c9.33301 -28.667 24.333 -46.667 45 -54c27.333 -9.33301 71 0.333984 131 29.001zM1063 -33c-62 14 -103.997 22.3311 -125.997 24.998c-11.333 -12 -28 -32.667 -50 -62c-20.667 -26.667 -37.334 -46.334 -50.001 -59.001c-43.333 -40 -99.333 -57 -168 -51
c-87.333 7.33301 -190.333 70.333 -309 189c-35.333 34.667 -73.333 82.334 -114 143.001l-98 143c-8.66699 10.667 -29 30.334 -61 59.001c-28 24.667 -46 45 -54 61c-46 92.667 -31.667 174.667 43 246c59.333 56.667 138.666 94.667 237.999 114c10 2 27.333 3 52 3
c24.667 -0.666992 43.334 0.333008 56.001 3c22 4.66699 55.667 21.667 101 51c50 32.667 89 54 117 64c176.667 62.667 327.334 68.334 452.001 17.001c154 102 268.333 167.667 343 197c168 66.667 309.333 62 424 -14c110 -73.333 171 -207 183 -401
c11.333 -188 -0.333984 -364 -35.001 -528c-40.667 -189.333 -107.334 -329.666 -200.001 -420.999c-40.667 -40.667 -93.667 -76.334 -159 -107.001c-68.667 -31.333 -130 -47.333 -184 -48c-166.667 -2 -260.334 118.333 -281.001 361
c-29.333 -1.33301 -69.333 3.66699 -120 15z" />
    <glyph glyph-name="n" unicode="n" horiz-adv-x="1347" 
d="M1279 886c-44 118 -116.668 173.665 -218.001 166.998c-82.667 -6 -196 -59.333 -340 -160c-65.333 -46 -154.666 -125 -267.999 -237l-4 25c-1.33301 10.667 -2.66602 19 -3.99902 25c-4.66699 18 -12.667 29 -24 33c-60.667 -23.333 -124.667 -61.666 -192 -114.999
c19.333 -29.333 45.333 -98.333 78 -207c33.333 -110.667 62.666 -186.667 87.999 -228c18 -28 39 -53.667 63 -77c32.667 -31.333 60.667 -46 84 -44c10.667 0.666992 23 8.66699 37 24c14.667 16 28 25 40 27c-2.66699 6 -11.334 22.333 -26.001 49
c-11.333 20 -19.666 37.667 -24.999 53c-53.333 152 -74.666 256.667 -63.999 314c6 29.333 32 64.333 78 105c15.333 13.333 33.666 28 54.999 44c27.333 20.667 40.666 30.667 39.999 30c95.333 76 178.333 110 249 102c96.667 -11.333 150 -115.666 160 -312.999
c14.667 -290.667 -28 -465.667 -128 -525c4.66699 -10.667 10.334 -26 17.001 -46l15 -46c14 -35.333 31 -60 51 -74c128.667 18 215 96.667 259 236c32.667 103.333 44.667 257 36 461c-8 170 -27 295.667 -57 377zM618.999 -142.002
c-44.667 -16 -91.667 -18.666 -141 -7.99902c-76 17.333 -148.333 66.333 -217 147c-42 50 -79.333 119.667 -112 209c-8 21.333 -21 60 -39 116c-16.667 50 -30.334 89 -41.001 117c-4 10.667 -13 30.334 -27 59.001c-11.333 25.333 -19.666 45.666 -24.999 60.999
c-16 48.667 -15.667 96 1 142c18 50.667 59.333 99.667 124 147c56.667 41.333 117.667 73.333 183 96c12 4 31.333 7.33301 58 10c26 2 45 5 57 9c-6 -2 38.667 32.333 134 103c263.333 193.333 485.333 255 666 185c212.667 -82.667 319 -372.667 319 -870
c0 -306.667 -61.667 -522 -185 -646c-97.333 -97.333 -204 -146.333 -320 -147c-89.333 -0.666992 -158.666 32.666 -207.999 99.999c-29.333 40 -64.333 119.667 -105 239c-50.667 -35.333 -91.334 -58.333 -122.001 -69z" />
    <glyph glyph-name="o" unicode="o" horiz-adv-x="1492" 
d="M543 529c-51.333 -60 -72.6699 -135.334 -64.0029 -226.001c9.33301 -90 44 -156 104 -198c20.667 -14 101.334 -38.667 242.001 -74c10.667 -2.66699 31.667 -8.66699 63 -18c28.667 -8.66699 51.667 -15 69 -19c56 -12 104 -10.667 144 4
c30 10.667 55 37.334 75 80.001c17.333 38.667 28 83.667 32 135c12.667 149.333 -5.66602 268.333 -54.999 357c-56 102 -145 144.333 -267 127c-151.333 -21.333 -265.666 -77.333 -342.999 -168zM1029 -120.001c-128 72.667 -204.999 112 -230.999 118
c-42 9.33301 -93.667 12 -155 8c-66 -4 -108.333 -4.33301 -127 -1c-62.667 9.33301 -115.667 34.666 -159 75.999c-40.667 38.667 -68 87 -82 145c-14.667 56.667 -14.334 114.334 0.999023 173.001c16 62 46.667 116.667 92 164c73.333 76 178.666 149.667 315.999 221
c152 80 288.667 125 410 135c97.333 8 175 -23.333 233 -94c42 -51.333 76.333 -127.666 103 -228.999c40.667 -154.667 52.667 -304.334 36 -449.001c-20.667 -174 -82 -277.667 -184 -311c-75.333 -24.667 -159.666 -10 -252.999 44zM1094 1154
c-146.667 -8.66699 -319.332 -64.667 -517.999 -168c-241.333 -126 -402.666 -260.333 -483.999 -403c-49.333 -87.333 -73 -179 -71 -275c2 -88.667 25.667 -173.334 71 -254.001c44 -78 102.333 -142.333 175 -193c75.333 -52 156 -82.667 242 -92
c14 -1.33301 49.333 0.333984 106 5.00098c50.667 4 93.667 2.33301 129 -5c-8 2 50.333 -29.333 175 -94c76.667 -39.333 155.667 -64 237 -74c96 -12 180.667 -0.666992 254 34c102 48 179.333 138 232 270c46.667 119.333 68.667 258.333 66 417
c-2.66699 152 -27.334 294.667 -74.001 428c-48.667 138 -112 239 -190 303c-92.667 76 -209.334 109.667 -350.001 101z" />
    <glyph glyph-name="p" unicode="p" horiz-adv-x="1356" 
d="M770 796c-30 -18 -76.334 -56.665 -139.001 -115.998c-106 -100 -161.667 -165.333 -167 -196c-4.66699 -28.667 -0.333984 -70.334 12.999 -125.001c14 -56.667 19.667 -98.334 17 -125.001c24.667 -8.66699 59.334 -25 104.001 -49
c51.333 -26.667 88.333 -44.667 111 -54c90.667 -38.667 173.667 -46 249 -22c48 15.333 84.333 59 109 131c21.333 64.667 30.333 141 27 229c-3.33301 86.667 -17.666 162.667 -42.999 228c-28 70.667 -63 112.667 -105 126c-57.333 18 -116 9 -176 -27zM949.999 -47.998
c-20 6 -46.001 14.332 -78.001 24.999c-38.667 13.333 -63.334 21.666 -74.001 24.999c-90.667 28 -184 61.667 -280 101c17.333 -108.667 45 -188 83 -238c-49.333 -58 -103.333 -53.333 -162 14c-43.333 48.667 -78.666 113.334 -105.999 194.001
c-14.667 44.667 -33 125 -55 241c-18 92 -39 160.333 -63 205c34 50 93.333 97.667 178 143c10 -3.33301 16.333 -13 19 -29c0 -3.33301 0.666992 -10.333 2 -21c0.666992 -9.33301 1.66699 -16.333 3 -21c86 99.333 177 190.333 273 273
c143.333 124 258.666 191.667 345.999 203c83.333 10.667 146 -20 188 -92c22.667 -38.667 47 -115 73 -229c44 -191.333 60 -355.666 48 -492.999c-17.333 -196 -92.666 -301.667 -225.999 -317c-51.333 -5.33301 -107.666 0 -168.999 16zM1144 1269
c-53.333 9.33301 -101.329 9.33594 -143.996 0.00292969c-114 -25.333 -227.333 -78.666 -340 -159.999c-67.333 -48.667 -158.333 -128.334 -273 -239.001c-41.333 -3.33301 -75 -11 -101 -23c-48.667 -22.667 -99.334 -56.334 -152.001 -101.001
c-56.667 -48.667 -93.334 -92.334 -110.001 -131.001c-16.667 -39.333 -21 -78 -13 -116c1.33301 -6 13.666 -42.667 36.999 -110c16 -46.667 33 -119.667 51 -219c17.333 -95.333 34 -163.333 50 -204c35.333 -90.667 81 -168 137 -232
c65.333 -74 134.666 -115.667 207.999 -125c65.333 -8 126.333 7.33301 183 46c37.333 25.333 79.333 67.666 126 126.999c110 -40 215 -56.667 315 -50c101.333 7.33301 185 37.666 251 90.999c74.667 61.333 127.334 161.333 158.001 300c28 126 35 267 21 423
c-14 152 -45 289.333 -93 412c-50.667 128.667 -111.334 216.334 -182.001 263.001c-33.333 22.667 -76.333 38.667 -129 48z" />
    <glyph glyph-name="q" unicode="q" horiz-adv-x="963" 
d="M638 712c-43.333 6.66699 -88.666 -0.666016 -135.999 -21.999c-44 -20.667 -83 -50 -117 -88s-56 -77.667 -66 -119c-22.667 -92.667 -6.33398 -166.334 48.999 -221.001c25.333 -26 67 -45.333 125 -58c62 -14.667 117.333 -14.334 166 0.999023
c19.333 5.33301 41.333 15.333 66 30c31.333 18 49 34.333 53 49c0.666992 2.66699 -2.33301 61.667 -9 177c-5.33301 104.667 -8 163.334 -8 176.001c-33.333 42.667 -74.333 67.667 -123 75zM721 -259c-11.333 2 -25.3311 19.3359 -41.998 52.0029
c-16 32 -22.667 56 -20 72c2 10 12.333 21.667 31 35c22 16 36.667 30.667 44 44c13.333 23.333 26.666 82.333 39.999 177c-62.667 -18 -177.667 -12.333 -345 17c-86.667 15.333 -150.334 37.333 -191.001 66c-52.667 37.333 -78.667 92 -78 164
c0.666992 133.333 103.667 268.666 309 405.999c49.333 33.333 97.666 55.666 144.999 66.999c65.333 16 120 8.33301 164 -23c-9.33301 66.667 1.66699 119.334 33 158.001c20 24 57.667 49.667 113 77c9.33301 -8.66699 13 -22 11 -40
c-0.666992 -4.66699 -2 -12.334 -4 -23.001l-3 -21c1.33301 19.333 13.333 -198.667 36 -654c6.66699 -137.333 2 -246 -14 -326c-20.667 -103.333 -61.667 -174.333 -123 -213c-45.333 -28.667 -80.666 -40.334 -105.999 -35.001zM1089 988.003
c2.66699 40 2.00098 70.334 -1.99902 91.001c-6 38 -27 70 -63 96c-37.333 26.667 -78 37.334 -122 32.001c-74 -8.66699 -162.333 -76.334 -265 -203.001c-148 -26.667 -293.667 -110.667 -437 -252c-130.667 -128 -195.667 -257.333 -195 -388
c1.33301 -131.333 54 -230 158 -296c84 -52.667 206.667 -86.667 368 -102c-28.667 -44.667 -32.667 -105 -12 -181c17.333 -68 43.333 -118 78 -150c48 -44.667 112.333 -57.334 193 -38.001c70.667 16.667 131.667 50 183 100c99.333 96.667 147.666 273 144.999 529
c-0.666992 70.667 -6.66699 182.334 -18 335.001c-11.333 146.667 -17 254.667 -17 324c0 13.333 2 47.666 6 102.999z" />
    <glyph glyph-name="r" unicode="r" horiz-adv-x="991" 
d="M680 754c-40.667 -44 -116.667 -143.998 -228 -299.998c-2 12 -4.33301 29.333 -7 52c-2 25.333 -4 42.666 -6 51.999c-4 -2.66699 -22.333 -13 -55 -31c-27.333 -15.333 -49.666 -29 -66.999 -41c-53.333 -36.667 -82.333 -71.334 -87 -104.001
c-0.666992 -7.33301 2.66602 -23 9.99902 -47c8.66699 -30.667 14.334 -52 17.001 -64c26.667 -154.667 44.667 -246.334 54 -275.001c28.667 -93.333 73.667 -151.666 135 -174.999c10 8.66699 40.333 17.334 91 26.001c-1.33301 6.66699 -18.666 154.667 -51.999 444
c104 147.333 164.667 230 182 248c81.333 82.667 181.666 126 300.999 130c30 56 36.667 152 20 288c-108.667 -30.667 -211.334 -98.334 -308.001 -203.001zM641 1029c102 90.667 204.665 142.666 307.998 155.999c78 10.667 143 -11 195 -65
c49.333 -50.667 75.666 -116 78.999 -196c4.66699 -112.667 -2 -202.667 -20 -270c-24.667 -94 -72.334 -158.667 -143.001 -194c-20 -9.33301 -47.333 -15.666 -82 -18.999c-39.333 -4 -66.666 -8.33301 -81.999 -13c-27.333 -9.33301 -61.666 -37 -102.999 -83
c-42.667 -47.333 -67 -87.333 -73 -120c-8 -44 -2.33301 -109 17 -195c21.333 -93.333 31 -158.666 29 -195.999c-2 -34.667 -14 -69.667 -36 -105c-22 -34.667 -47 -60.667 -75 -78c-33.333 -20 -76.666 -35.667 -129.999 -47c-55.333 -11.333 -101.333 -13 -138 -5
c-87.333 17.333 -162.666 78.666 -225.999 183.999c-56 92.667 -93.667 201 -113 325c-2.66699 14.667 -5.66699 43.334 -9 86.001c-2.66699 36 -6.33398 64 -11.001 84c-20 83.333 -26.667 139.666 -20 168.999c12.667 52.667 53 112 121 178
c59.333 56.667 117 99.667 173 129c30.667 16 63.334 24.667 98.001 26c160 166 240.333 249 241 249z" />
    <glyph glyph-name="s" unicode="s" horiz-adv-x="1157" 
d="M528 831c-223.333 -170.667 -314.001 -304.335 -272.001 -401.002c15.333 -36.667 68.666 -64 159.999 -82l115 -20c44.667 -7.33301 78 -14.333 100 -21c64.667 -20.667 119 -48 163 -82c74.667 -57.333 106.334 -109.333 95.001 -156
c-9.33301 -41.333 -45.666 -55.666 -108.999 -42.999c-19.333 4 -44.666 11.333 -75.999 22c-34.667 12.667 -54.667 19.667 -60 21c-122.667 32 -222.667 38.667 -300 20c17.333 -56 53 -82.667 107 -80c100.667 4.66699 153.667 6.33398 159 5.00098
c39.333 -9.33301 88.666 -35.666 147.999 -78.999c66.667 -48.667 115 -79 145 -91c84.667 -34 152.334 -25 203.001 27c48 50 62 118 42 204c-22 97.333 -81 181.333 -177 252c-84 61.333 -186 107 -306 137c-84 20 -127 30.333 -129 31c-41.333 14.667 -64.333 36 -69 64
c-9.33301 54 24.667 109 102 165c65.333 47.333 135.666 81 210.999 101c56.667 14 140.667 11.667 252 -7c19.333 22.667 30.666 59.667 33.999 111c2.66699 46.667 -1.66602 89 -12.999 127c-50.667 15.333 -106.334 11.666 -167.001 -11.001
c-26 -10 -75 -35.667 -147 -77c-89.333 -52 -159.666 -97.667 -210.999 -137zM1393 -20.001c-4.66699 -107.333 -40.334 -198 -107.001 -272c-72 -80.667 -165.667 -121.667 -281 -123c-73.333 -0.666992 -157.333 24.333 -252 75
c-12.667 6.66699 -47.334 30.334 -104.001 71.001c-42 30 -75.333 47.333 -100 52c-18 2.66699 -42.333 1 -73 -5c-34 -6.66699 -57.333 -9.66699 -70 -9c-104 4.66699 -186 51.667 -246 141c-62 92.667 -68.667 188.667 -20 288c-58.667 76 -93 124.667 -103 146
c-32 65.333 -38.333 137 -19 215c22 92 67.667 177.333 137 256c52 58.667 133.333 130 244 214c233.333 175.333 424 268.333 572 279c102.667 7.33301 184.334 -17.667 245.001 -75c44 -41.333 72.667 -100.333 86 -177c12.667 -72.667 10 -146.667 -8 -222
c-19.333 -78 -51.666 -140 -96.999 -186c-50 -51.333 -109.333 -74.333 -178 -69c260 -168.667 384.667 -368.334 374 -599.001z" />
    <glyph glyph-name="t" unicode="t" horiz-adv-x="1057" 
d="M403 981c2 -6.66699 8.33398 -58.9971 19.001 -156.997c-6 -8 -48.333 -35.667 -127 -83c-53.333 -32 -76 -73.667 -68 -125c26.667 -0.666992 60.667 10.666 102 33.999c48 27.333 83.333 43.333 106 48c4 -22.667 8.33301 -110 13 -262
c4 -113.333 20.667 -194.333 50 -243c20 -32.667 50.333 -65.667 91 -99c48 -38.667 80.667 -68.667 98 -90c7.33301 -8.66699 26.333 -36 57 -82c26 -38 47.667 -65.333 65 -82c54 -52 103.667 -39.333 149 38c-21.333 29.333 -67.333 71 -138 125
c-61.333 47.333 -103.666 94 -126.999 140c-26 52.667 -36.333 150.334 -31 293.001c6.66699 168 4.66699 280.333 -6 337c39.333 11.333 101 23.333 185 36c87.333 12.667 149.666 24 186.999 34c14.667 34.667 19.667 77 15 127c-5.33301 50.667 -19 88 -41 112
c-42.667 -12.667 -104.334 -37.334 -185.001 -74.001c-79.333 -36.667 -137.333 -60.334 -174 -71.001c-1.33301 13.333 -1 56 1 128c2 53.333 -2.66699 90.666 -14 111.999c-91.333 -38.667 -167 -104 -227 -196zM1010 1299c64 -4.66699 116 -26.3301 156 -64.9971
c64.667 -62.667 98.334 -157 101.001 -283c2 -131.333 -33.667 -226.333 -107 -285c-32.667 -25.333 -74 -42.333 -124 -51c-16.667 -3.33301 -40.667 -6.33301 -72 -9c-37.333 -4 -64.333 -7 -81 -9c10.667 -38.667 11.667 -97 3 -175c-8 -78 -7 -135.333 3 -172
c6.66699 -25.333 25 -49.333 55 -72c8.66699 -6.66699 22 -16 40 -28c17.333 -11.333 29.666 -20 36.999 -26c68 -54 110 -96 126 -126c34.667 -66 42.334 -130.667 23.001 -194c-17.333 -56.667 -53.666 -105 -108.999 -145c-54 -38.667 -113.333 -61 -178 -67
c-69.333 -6.66699 -130.333 6.66602 -183 39.999c10.667 -6.66699 -50.333 73.333 -183 240c-14.667 18 -39 40 -73 66c-38 28 -64.333 50 -79 66c-67.333 74 -111.333 202.333 -132 385c-100 6 -170 56.333 -210 151c-39.333 92.667 -32.333 181 21 265
c15.333 24 38.666 47.667 69.999 71c40.667 31.333 65.667 51.666 75 60.999c4.66699 81.333 6.66699 121.333 6 120c14 52 66 118.667 156 200c93.333 84.667 171.666 131.667 234.999 141c66.667 8.66699 121.667 -1 165 -29c32.667 -21.333 64 -58 94 -110
c47.333 31.333 102.333 44.666 165 39.999z" />
    <glyph glyph-name="u" unicode="u" horiz-adv-x="1215" 
d="M980 689c0 -345.333 -1.66699 -533.998 -5 -565.998c-87.333 -26 -175.666 -32.667 -264.999 -20c-102.667 14 -168.667 51.333 -198 112c-19.333 38.667 -34.333 107.667 -45 207c-11.333 96 -28.666 166 -51.999 210c-42.667 -6.66699 -109.334 -44.667 -200.001 -114
c27.333 -36 53 -101.333 77 -196c22.667 -89.333 50.334 -151.666 83.001 -186.999c29.333 -32 71.333 -50 126 -54c10 -1.33301 36.333 -2.33301 79 -3c36 -0.666992 66.667 -2.66699 92 -6c24.667 -3.33301 70.667 -18.333 138 -45
c57.333 -22.667 104.666 -32.334 141.999 -29.001c-1.33301 -14 -11.666 -26 -30.999 -36c-19.333 -10.667 -30 -23.667 -32 -39c-2 -18 7.33301 -43 28 -75c19.333 -30.667 34.666 -47.334 45.999 -50.001c24.667 -6 55 2.33301 91 25c26 17.333 47.333 35.666 64 54.999
c66 77.333 97.667 232 95 464c-0.666992 43.333 -4.66699 140 -12 290c-5.33301 116 -6.33301 203.667 -3 263c0 10 1.66699 23 5 39c3.33301 20 5.33301 32.333 6 37c3.33301 27.333 -0.333984 49.666 -11.001 66.999c-124 -48.667 -192.667 -92.667 -206 -132
c-8 -21.333 -12 -93.666 -12 -216.999zM512 -127.998c-150 10.667 -260.664 73.3271 -331.997 187.994c-17.333 28 -35.333 72.667 -54 134c-25.333 83.333 -41.666 134 -48.999 152c-4 11.333 -13 31.333 -27 60c-11.333 24 -19.333 43.333 -24 58
c-14.667 44.667 -12.667 89.334 6 134.001c18.667 45.333 66.334 94 143.001 146s145 81.333 205 88c120 13.333 200 -39.667 240 -159c12.667 -38 24.667 -95.667 36 -173c14 -89.333 25 -150 33 -182c9.33301 -0.666992 24 -4 44 -10
c18 -5.33301 33.667 -7.66602 47 -6.99902c7.33301 60.667 6.66602 187.334 -2.00098 380.001c-6.66699 144 5.66602 249.667 36.999 317c51.333 110 159.666 188 324.999 234c54 15.333 108.333 8 163 -22c53.333 -29.333 86.666 -67.666 99.999 -114.999
c3.33301 -11.333 1.66602 -78 -5.00098 -200c-4 -68 -1 -208.667 9 -422c9.33301 -181.333 6.33301 -320.666 -9 -417.999c-20.667 -129.333 -68 -236 -142 -320c-72.667 -82 -158.667 -127.667 -258 -137c-86 -8.66699 -152.333 15 -199 71
c-12 14.667 -46.667 78.334 -104 191.001c4 -1.33301 -57 2.66699 -183 12z" />
    <glyph glyph-name="v" unicode="v" horiz-adv-x="1600" 
d="M1248 634c-9.33301 -28 -29.3301 -92.002 -59.9971 -192.002c-26 -82 -47.667 -147 -65 -195c-53.333 -146.667 -111.666 -252.667 -174.999 -318c-2 3.33301 -29.667 54 -83 152c-37.333 68 -72.333 126.667 -105 176c-114 172.667 -197.667 261 -251 265
c-37.333 2.66699 -82.333 -14.666 -135 -51.999c-16.667 -12 -37.667 -28.667 -63 -50c-28.667 -24.667 -46.334 -39.334 -53.001 -44.001c74.667 -18.667 141.667 -53.334 201 -104.001c26 -22 77.333 -75.667 154 -161c13.333 -14.667 31.666 -36.667 54.999 -66l58 -70
c46 -53.333 85.333 -87.333 118 -102c8.66699 -3.33301 22.667 -5.66602 42 -6.99902c22 -1.33301 38 -3.66602 48 -6.99902c10 -2.66699 29 -12 57 -28c23.333 -13.333 41.666 -20 54.999 -20c42 -0.666992 88.667 24.333 140 75c39.333 38.667 71.666 81 96.999 127
c29.333 52 69 161.333 119 328c120.667 402 185.667 627.333 195 676c-144 -41.333 -232.333 -87.666 -265 -138.999c-2.66699 -4 -30.667 -85.333 -84 -244zM1022 724.998c33.333 122 64.6689 210 94.002 264c29.333 54.667 88 111 176 169c90 59.333 170.667 94 242 104
c88.667 11.333 163.334 -8.66699 224.001 -60c58.667 -49.333 88.667 -115.666 90 -198.999c0.666992 -42.667 -11 -100.667 -35 -174c-5.33301 -16.667 -16 -47.667 -32 -93c-14 -38 -24 -67.333 -30 -88c-104.667 -343.333 -157.334 -516.333 -158.001 -519
c-70.667 -197.333 -150.667 -338.333 -240 -423c-76.667 -72.667 -144 -112.334 -202 -119.001c-22.667 -2 -92.667 7.33301 -210 28c-131.333 24 -196.333 35.667 -195 35c-64 22 -145.667 96 -245 222c-106.667 135.333 -185.334 217.333 -236.001 246
c-12.667 6.66699 -35.667 14 -69 22c-32 8 -55.667 16.667 -71 26c-45.333 29.333 -78 71 -98 125c-22 60 -21.667 120.667 1 182c21.333 59.333 88.666 122.333 201.999 189c122.667 71.333 218 106 286 104c90 -2 170 -40 240 -114c19.333 -20.667 47.666 -55 84.999 -103
c36 -47.333 64.667 -82 86 -104c28.667 58 60.334 151.333 95.001 280z" />
    <glyph glyph-name="w" unicode="w" horiz-adv-x="2108" 
d="M1783 583c-58.667 -154.667 -89.333 -236.661 -92 -245.994c-48 -144 -78 -229.333 -90 -256c-37.333 -85.333 -83.333 -143.333 -138 -174c-40.667 236 -114.334 480 -221.001 732c-52 5.33301 -121.667 -11.334 -209 -50.001c-27.333 -93.333 -66.333 -290 -117 -590
c-44.667 30.667 -120.667 104.334 -228 221.001c-64 70.667 -102.667 112 -116 124c-51.333 46.667 -96.666 71 -135.999 73c-60 3.33301 -129.667 -27.334 -209 -92.001c70 -18.667 135.667 -49 197 -91c28 -18.667 85.333 -64.334 172 -137.001
c80 -66 124.333 -102 133 -108c56 -38.667 108 -56 156 -52c16.667 2 41.667 10.333 75 25c32.667 14.667 61 23 85 25c17.333 41.333 35.666 100.666 54.999 177.999c24 95.333 40.333 156.666 49 183.999c12 -30.667 42 -101.334 90 -212.001
c37.333 -86 65 -158.667 83 -218c23.333 -8.66699 48.666 -27.667 75.999 -57c26.667 -29.333 50.334 -47.333 71.001 -54c28.667 -8.66699 62.334 -8.33398 101.001 0.999023c34.667 8 62.667 20 84 36c54.667 41.333 104.334 112 149.001 212
c19.333 44.667 53.666 140 102.999 286c22.667 68 58.334 167.333 107.001 298c43.333 118 73.333 203.333 90 256c-117.333 -22 -191.333 -48.667 -222 -80c-10.667 -12 -43.334 -90 -98.001 -234zM826.001 645.006c25.333 66.667 63.334 113.664 114.001 140.997
c40.667 21.333 95 39.333 163 54c71.333 14.667 130 19.334 176 14.001c71.333 -8.66699 126 -49 164 -121c13.333 -24.667 38.666 -97 75.999 -217c22 38 57 124.667 105 260c36 101.333 78.667 172.333 128 213c82 67.333 178.333 108.333 289 123
c83.333 11.333 152.333 -9 207 -61c56 -52 79.333 -119.667 70 -203c-1.33301 -11.333 -24 -69 -68 -173c-16.667 -39.333 -67 -187 -151 -443c-60 -183.333 -122.333 -322.666 -187 -417.999c-118 -173.333 -278 -241 -480 -203c-15.333 3.33301 -64.333 28 -147 74
c-11.333 6.66699 -32.666 23 -63.999 49c-23.333 18.667 -43 29 -59 31c-21.333 2.66699 -50.333 -2.66602 -87 -15.999c-45.333 -16 -73.666 -25 -84.999 -27c-146.667 -22 -288.334 20 -425.001 126c-207.333 162 -316 245 -326 249c-12 6 -31 13.667 -57 23
c-25.333 10 -44 17.667 -56 23c-42 20 -72 45.667 -90 77c-23.333 42 -31.333 89.333 -24 142c7.33301 49.333 25.666 90.333 54.999 123c36.667 40 98.667 76 186 108c96.667 36 178.334 47 245.001 33c47.333 -10 97.666 -35.333 150.999 -76
c88 -68 131.667 -102 131 -102c18 96 33.333 161.667 46 197z" />
    <glyph glyph-name="x" unicode="x" horiz-adv-x="1176" 
d="M642 475c-27.333 29.333 -50.0039 51.998 -68.0039 67.998c-60 54 -112 80 -156 78c-13.333 -0.666992 -52.666 -19.334 -117.999 -56.001c-54.667 -30.667 -86.334 -56.667 -95.001 -78c83.333 0.666992 157 -17 221 -53c44 -25.333 93.333 -67.333 148 -126
c-7.33301 -11.333 -23.333 -32.666 -48 -63.999c-23.333 -30 -40.666 -54 -51.999 -72c-36 -61.333 -40 -118.333 -12 -171c36.667 18 77.667 55.667 123 113c46.667 59.333 86 98 118 116c8.66699 -15.333 23.334 -36.333 44.001 -63
c23.333 -29.333 39.333 -50.666 48 -63.999c34 -53.333 48 -107.666 42 -162.999c10 -12.667 22.667 -40 38 -82c14 -37.333 29.333 -62.333 46 -75c54 13.333 81.667 60 83 140c1.33301 61.333 -21 132.333 -67 213c-9.33301 16 -28.666 47.333 -57.999 94
c-22.667 36 -38.667 64 -48 84c44.667 59.333 106.334 167.333 185.001 324c93.333 186 145.333 301.333 156 346c-113.333 -24 -208 -102.333 -284 -235c-120 -211.333 -183.667 -321 -191 -329c-8.66699 8 -27 26.333 -55 55zM1190 -58.002
c6.66699 -160.667 -43.9961 -269.663 -151.996 -326.996c-91.333 -48 -176 -37 -254 33c-65.333 59.333 -109.333 139.666 -132 240.999c-10.667 -6 -24.334 -15.333 -41.001 -28c-17.333 -12.667 -30 -21.667 -38 -27c-30.667 -18.667 -63.667 -28.334 -99 -29.001
c-52.667 -0.666992 -98.334 15.333 -137.001 48c-34.667 30 -59.667 70.333 -75 121c-34 110.667 -19.333 211 44 301c-24 9.33301 -57.333 16 -100 20c-40.667 3.33301 -70.667 9.66602 -90 18.999c-57.333 28 -92 74.667 -104 140c-12.667 65.333 1.66602 123 42.999 173
c26 32 73.667 68.333 143 109c74 44 134.333 69 181 75c82 11.333 173 -18.334 273 -89.001c12 16 44 72.667 96 170c40 74.667 80.667 127.667 122 159c157.333 120 286 157.333 386 112c42 -18.667 74 -52 96 -100c23.333 -52 26.666 -106 9.99902 -162
c-4 -13.333 -52.333 -114 -145 -302c-70 -140.667 -122.333 -235.667 -157 -285c80.667 -102 124 -226 130 -372z" />
    <glyph glyph-name="y" unicode="y" horiz-adv-x="1315" 
d="M1023 774c-119.333 -386 -195.665 -610.999 -228.998 -674.999c-16 26 -41.667 71.333 -77 136c-32.667 58.667 -58.667 103.667 -78 135c-64.667 100 -135 171.667 -211 215c-106.667 -49.333 -179.334 -104.666 -218.001 -165.999
c114 -16.667 212.333 -78.334 295 -185.001c16 -20 49 -67.333 99 -142c40 -59.333 74.667 -104.666 104 -135.999c-48.667 -80.667 -75.334 -132.334 -80.001 -155.001c59.333 -21.333 109.666 -21 150.999 1c24 13.333 57.667 45.666 101 96.999
c94.667 112 174.667 277.667 240 497c19.333 65.333 44.333 161.333 75 288c32.667 132 57.334 227 74.001 285c3.33301 10.667 9 26 17 46l18 47c11.333 36 11.333 64 0 84c-114 -57.333 -183 -107 -207 -149c-8 -14 -32.667 -88.333 -74 -223zM239.001 213.001
c-12.667 6 -31.667 10.3359 -57 13.0029c-24.667 2.66699 -42 6 -52 10c-44 19.333 -77.667 55.333 -101 108c-26 58.667 -26.667 116.334 -2 173.001c18 40.667 64.333 90 139 148c73.333 58 135.666 94.333 186.999 109c78 22.667 153.333 8 226 -44
c24 -18 80.333 -74 169 -168c24.667 49.333 57 154.666 97 315.999c32.667 133.333 73 226.666 121 279.999c32.667 36 78.334 73.333 137.001 112c68 45.333 123.333 70.666 166 75.999c75.333 10 136.666 -8 183.999 -54c48.667 -47.333 69.334 -111.333 62.001 -192
c-1.33301 -16.667 -20.333 -89 -57 -217l-70 -261c-30 -117.333 -54.667 -207.666 -74 -270.999c-62 -210.667 -128.333 -371 -199 -481c-70 -108.667 -141 -185.334 -213 -230.001c-104 -65.333 -218 -74.666 -342 -27.999c-57.333 22 -97.333 66.667 -120 134
c-23.333 71.333 -14 135.666 28 192.999c-172.667 191.333 -249 282.666 -229 273.999z" />
    <glyph glyph-name="z" unicode="z" horiz-adv-x="1049" 
d="M981 729c46.667 113.333 65.332 229.331 55.999 347.998h-12c-0.666992 4.66699 -2.66699 6.66699 -6 6c-0.666992 3.33301 -7 1.33301 -19 -6l-190 -115l-219 -133l-205 -124c-124 -80 -177.667 -134 -161 -162c10.667 -17.333 31.667 -18.333 63 -3
c9.33301 4.66699 21.666 12 36.999 22c16.667 10.667 26.667 17 30 19c70 37.333 212.667 97.333 428 180c-36.667 -83.333 -142 -244.666 -316 -483.999c-42 -58 -68 -104.667 -78 -140c-16 -56.667 3.66699 -92.667 59 -108c85.333 50 167.666 45.667 246.999 -13
c69.333 -50.667 115.333 -121 138 -211c34 -9.33301 64.667 -8.66602 92 2.00098c28.667 11.333 43.334 29.333 44.001 54c0.666992 20.667 -16.666 46.667 -51.999 78c-8 7.33301 -38.333 31 -91 71c-90 68 -187 109.333 -291 124c135.333 126 232.333 233.667 291 323
c74.667 111.333 126.334 202 155.001 272zM365.998 -171.002c-58.667 20 -106.331 58.334 -142.998 115.001c-35.333 55.333 -53.333 115.666 -54 180.999c0 69.333 20.667 130.333 62 183c-98 9.33301 -166.333 62 -205 158c-38.667 96.667 -26.334 184.667 36.999 264
c14.667 17.333 83 66.666 205 147.999c0.666992 0.666992 145.334 87.667 434.001 261c6 3.33301 36 23.333 90 60c41.333 28.667 77 50 107 64c92 44.667 173.333 46.667 244 6c93.333 -53.333 131.666 -158 114.999 -314c-12 -112 -48.333 -232.667 -109 -362
c-60 -127.333 -113.667 -224.333 -161 -291c-6 -8.66699 -20.333 -24.334 -43 -47.001c-17.333 -18 -26 -29.333 -26 -34c0 1.33301 39.333 -34 118 -106c90.667 -82 140.334 -150 149.001 -204c12 -76 -3.33301 -142.667 -46 -200c-38 -52 -91.333 -89 -160 -111
c-67.333 -21.333 -132.333 -23.666 -195 -6.99902c-68 18.667 -118.333 56.334 -151 113.001c-5.33301 10 -13.333 32 -24 66c-8.66699 27.333 -21.334 50.666 -38.001 69.999c-72.667 -31.333 -141.334 -35.666 -206.001 -12.999z" />
    <glyph glyph-name="braceleft" unicode="{" horiz-adv-x="1417" 
d="M968 82c94 122.667 145.67 208.668 155.003 258.001c-22.667 -9.33301 -58.667 -45.333 -108 -108c-44.667 -58 -84.334 -89 -119.001 -93c-20 44 -24.333 121.333 -13 232c10.667 107.333 5 180.333 -17 219c9.33301 -16 -70.667 30.667 -240 140
c84.667 0.666992 151.667 26 201 76c48 48.667 76 116.667 84 204c1.33301 16.667 1.33301 40.667 0 72c-2 39.333 -2.66699 65.333 -2 78c0 61.333 14 104.666 42 129.999c57.333 -6 87.333 -8.33301 90 -7c-5.33301 19.333 -19.666 35.666 -42.999 48.999
c-4.66699 2.66699 -15.334 8.33398 -32.001 17.001c-14.667 7.33301 -26 13.666 -34 18.999c-6 4 -16 11.667 -30 23c-13.333 10.667 -24 18.334 -32 23.001c-26 16.667 -53 22 -81 16c-32.667 -6.66699 -57 -30.334 -73 -71.001c-11.333 -28.667 -20.666 -74 -27.999 -136
c-18 -151.333 -41.667 -244.666 -71 -279.999c-34.667 -42 -81.334 -60.333 -140.001 -55c-22 2.66699 -80.333 18.334 -175 47.001c-20 -28.667 -27.667 -63 -23 -103c4 -35.333 15.333 -63.333 34 -84c-3.33301 3.33301 40 -17 130 -61
c58.667 -28.667 99.667 -53.334 123 -74.001c41.333 -35.333 67.666 -86.333 78.999 -153c8 -46.667 9.33301 -114 4 -202c-12.667 -208 -2.33398 -347 30.999 -417c4 0.666992 10 0 18 -2s15 -2.33301 21 -1c48.667 8 131.667 89.333 249 244zM327.003 491.001
c-57.333 22 -93.0029 37.335 -107.003 46.002c-57.333 34 -101 84.333 -131 151c-31.333 69.333 -42 145 -32 227c10.667 91.333 53.334 159.666 128.001 204.999c79.333 48.667 166 49.667 260 3c22 179.333 58.667 310.333 110 393c72.667 117.333 182 161.333 328 132
c52.667 -10.667 120.334 -44.667 203.001 -102c88 -60.667 141.667 -115.334 161 -164.001c24 -58.667 23.667 -119 -1 -181c-23.333 -60.667 -60.666 -102 -111.999 -124c-5.33301 -164.667 -35.333 -280 -90 -346c38 -100 57.333 -155 58 -165
c79.333 4.66699 144.666 -22.666 195.999 -81.999c52.667 -62 67.334 -135 44.001 -219c-16.667 -58 -89.667 -170 -219 -336c-85.333 -110.667 -142 -179.334 -170 -206.001c-72.667 -70 -148 -106.667 -226 -110c-164.667 -8.66699 -262.667 81 -294 269
c-1.33301 8 -4.33301 191 -9 549c-22 23.333 -54.333 43.333 -97 60z" />
    <glyph glyph-name="bar" unicode="|" horiz-adv-x="1160" 
d="M487 1136c37.333 -380 47.332 -712.334 29.999 -997.001c-7.33301 -119.333 -10.333 -187 -9 -203c6.66699 -78 37.334 -135.667 92.001 -173c29.333 8.66699 45 27 47 55c0.666992 8.66699 0.333984 21.334 -0.999023 38.001c-2 17.333 -3 29.666 -3 36.999
c2 44 11 107.333 27 190c17.333 88.667 27.666 154.334 30.999 197.001c17.333 208.667 -25 640.334 -127 1295l-10 -4c-62 -110.667 -94.667 -187.334 -98 -230.001c0 1.33301 7 -67 21 -205zM604.999 1749c50.667 -7.33301 90 -30.333 118 -69
c28.667 -40.667 50.334 -113.667 65.001 -219c4 -30 8.66699 -73.667 14 -131c6 -56.667 10.333 -96 13 -118c60 -435.333 83.667 -736.333 71 -903c-4 -48 -14.667 -118 -32 -210c-16 -88 -25.333 -154.667 -28 -200c0.666992 9.33301 1.66699 -25 3 -103
c0 -36.667 -7 -66.667 -21 -90c-18 -28.667 -47.667 -56 -89 -82c-44.667 -27.333 -86.334 -41.666 -125.001 -42.999c-51.333 -1.33301 -101.333 21.667 -150 69c-50.667 49.333 -84.667 110.333 -102 183c-11.333 48 -11.333 173.333 0 376c11.333 190 3 444.667 -25 764
c-22 246.667 -32.667 375 -32 385c4.66699 56 25 122 61 198c40.667 87.333 85 144.666 133 171.999c37.333 20.667 79.333 27.667 126 21z" />
    <glyph glyph-name="braceright" unicode="}" horiz-adv-x="1417" 
d="M401 1172c-84 -129.333 -128.666 -218.67 -133.999 -268.003c22 10 55 48.333 99 115c40 61.333 77.333 95.333 112 102c23.333 -42 33.333 -119 30 -231c-2.66699 -107.333 8.66602 -179.666 33.999 -216.999c-10.667 15.333 72.333 -25 249 -121
c-84 -7.33301 -148.667 -37.666 -194 -90.999c-44 -52 -66.667 -122 -68 -210c0 -16.667 1.66699 -40.667 5 -72c5.33301 -39.333 8.33301 -65 9 -77c4 -61.333 -7 -105.666 -33 -132.999c-57.333 2 -87.333 2 -90 0c6.66699 -18.667 22.334 -34 47.001 -46l33 -14
c14.667 -6 26.667 -11.333 36 -16l31 -21c14 -9.33301 25 -16.333 33 -21c27.333 -14 55 -17.333 83 -10c32 9.33301 54.333 35 67 77c9.33301 29.333 15.333 75.333 18 138c6 152 22.333 247 49 285c31.333 44 76.333 65.333 135 64c22.667 0 82.334 -10.667 179.001 -32
c17.333 30 22.333 64.333 15 103c-6.66699 36 -20.334 63.333 -41.001 82c3.33301 -3.33301 -41.334 13.667 -134.001 51c-60.667 24 -103.334 45.333 -128.001 64c-44 32.667 -74.333 81.667 -91 147c-11.333 46 -17.666 113 -18.999 201
c-3.33301 208.667 -24.333 346.667 -63 414c-4 -1.33301 -10 -1.33301 -18 0s-15 1.33301 -21 0c-48 -12 -124.667 -99.667 -230 -263zM1072 812.996c58.667 -18 95.333 -30.332 110 -36.999c59.333 -30 106.666 -77 141.999 -141c36.667 -67.333 53.334 -142 50.001 -224
c-4 -92 -41.333 -163.333 -112 -214c-76 -54.667 -162.333 -62.334 -259 -23.001c-9.33301 -180 -36.333 -313.333 -81 -400c-63.333 -122.667 -168.666 -175 -315.999 -157c-54 6.66699 -124.333 35.334 -211 86.001c-92.667 54 -150.334 104.333 -173.001 151
c-28 57.333 -32.333 117.666 -13 180.999c18.667 62.667 53 107 103 133c-7.33301 164 14 281.333 64 352c-46 96.667 -69.667 150 -71 160c-79.333 -11.333 -146.666 11 -201.999 67c-57.333 57.333 -77.333 128.666 -60 213.999c12 59.333 76 176.666 192 351.999
c76.667 116.667 128 189.334 154 218.001c67.333 75.333 139.666 118 216.999 128c163.333 20.667 268 -61.333 314 -246c2 -8 19 -190.667 51 -548c23.333 -21.333 57 -38.666 101 -51.999z" />
    </font>
</defs>
</svg>
